<?xml version="1.0" encoding="UTF-8" standalone="no"?>
<svg
   version="1.1"
   id="Layer_1"
   x="0px"
   y="0px"
   width="100%"
   viewBox="0 0 1350 1350"
   enable-background="new 0 0 1350 1350"
   xml:space="preserve"
   sodipodi:docname="buurtboersplash2.svg"
   inkscape:version="1.3 (0e150ed6c4, 2023-07-21)"
   xmlns:inkscape="http://www.inkscape.org/namespaces/inkscape"
   xmlns:sodipodi="http://sodipodi.sourceforge.net/DTD/sodipodi-0.dtd"
   xmlns="http://www.w3.org/2000/svg"
   xmlns:svg="http://www.w3.org/2000/svg"><defs
   id="defs53" /><sodipodi:namedview
   id="namedview53"
   pagecolor="#ffffff"
   bordercolor="#000000"
   borderopacity="0.25"
   inkscape:showpageshadow="2"
   inkscape:pageopacity="0.0"
   inkscape:pagecheckerboard="0"
   inkscape:deskcolor="#d1d1d1"
   inkscape:zoom="0.42583542"
   inkscape:cx="1029.7406"
   inkscape:cy="743.2449"
   inkscape:window-width="1920"
   inkscape:window-height="1009"
   inkscape:window-x="-8"
   inkscape:window-y="-8"
   inkscape:window-maximized="1"
   inkscape:current-layer="Layer_1" />&#10;<path
   fill="#01a89b"
   opacity="1"
   stroke="none"
   d="m 761.5786,1242.977 c -207.68653,0 -414.97419,0 -622.26185,0 0,-368.58019 0,-737.16042 0,-1105.74066 358.99722,0 717.99444,0 1076.99175,0 0,368.58024 0,737.16047 0,1105.74066 -151.4437,0 -302.88739,0 -454.7299,0 m 271.2519,-176.1037 c 0,0 -0.01,0.086 -0.2184,-0.2934 -0.224,-0.1741 -0.4478,-0.3482 -0.5982,-0.5192 0,0 -0.01,0.076 -0.1369,-0.4779 -0.9251,-0.9276 -1.6993,-2.3314 -2.8018,-2.6996 -4.6079,-1.5388 -9.2537,-3.5426 -13.9983,-3.9335 -7.8794,-0.6488 -15.84572,-0.2355 -23.77466,-0.1659 -2.34353,0.021 -4.68427,0.3898 -7.45242,0.8006 -0.19301,0.2442 -0.38603,0.4883 -0.90782,1.3186 -0.12358,0.9404 -0.35447,1.8808 -0.35506,2.8214 -0.0154,22.5108 -0.0167,45.0217 0.0279,67.5324 0.003,1.1846 0.4316,2.3684 0.78959,3.9433 0.0256,0.1348 0.0511,0.2697 0.2979,0.9745 5.06336,0.3418 10.12432,0.7312 15.19105,1.0085 3.17372,0.1736 4.46032,-1.4109 4.38642,-4.7396 -0.1602,-7.212 0,-14.431 -0.082,-21.6458 -0.027,-2.4847 0.724,-3.9526 3.3118,-3.7974 0,0 0,-0.057 0.053,0.526 0.8059,0.9131 1.6118,1.8261 2.3516,2.734 0,0 0.01,-0.067 0.046,0.4381 0.2631,0.4147 0.5265,0.8297 0.7252,1.2286 0,0 0.016,-0.066 0.012,0.5969 2.5255,7.3792 5.0375,14.7631 7.613,22.1238 0.1395,0.3986 0.8102,0.6012 1.27,0.9118 0,0 0.017,0.037 0.2215,0.6138 1.3498,0.3498 2.6972,0.9846 4.05,0.9965 4.3744,0.039 8.7599,-0.013 13.1217,-0.3205 1.7717,-0.1249 3.4937,-0.9971 5.2382,-1.5292 -0.9532,-1.7871 -1.9063,-3.574 -2.808,-5.3629 0,0 -0.021,0.048 -0.012,-0.5993 -3.7057,-8.7483 -7.4113,-17.4968 -11.2301,-26.5123 0.2082,-0.3162 0.9206,-1.3971 1.6331,-2.415 0,0 -0.056,-0.027 0.497,-0.038 0.625,-0.5743 1.2498,-1.1486 1.8791,-1.6386 0,0 -0.082,-0.01 0.4948,-0.025 0.584,-0.2792 1.2925,-0.4253 1.7327,-0.8588 4.2516,-4.1878 6.7413,-17.2618 4.3715,-22.8775 -0.1343,-0.3181 -0.6059,-0.486 -1.0106,-0.7808 0,0 0.05,-0.096 0.03,-0.5998 -0.2698,-0.6021 -0.5398,-1.2045 -0.7744,-1.8166 0,0 -0.027,0.027 -0.1014,-0.4554 -0.2653,-0.3952 -0.5306,-0.7902 -0.7242,-1.1709 0,0 -0.019,0.073 -0.05,-0.4907 -0.5544,-0.6423 -1.1088,-1.2846 -1.5468,-1.9475 0,0 0.013,0.1203 -0.2091,-0.2639 -0.2117,-0.2011 -0.4235,-0.402 -0.5521,-0.5942 m -520.73249,63.6214 c 0.18613,-0.2298 0.37223,-0.4593 0.7839,-1.1778 10.47479,-11.3929 7.87011,-25.4974 -6.55041,-34.3218 6.58067,-3.0245 9.7997,-8.3815 9.992,-15.4702 0.24676,-9.098 -2.43474,-18.169 -14.43927,-19.1185 -12.26347,-0.97 -24.63088,-0.5568 -36.9531,-0.7262 -0.20657,0 -0.41695,0.2863 -0.90253,0.6422 0,11.7732 -0.0337,23.7453 0.009,35.7172 0.0472,13.2098 0.16445,26.4193 0.71716,40.025 0.63499,0.1577 1.26965,0.4512 1.90506,0.4529 10.04435,0.028 20.08898,0.043 30.13303,-0.021 0.99559,-0.01 1.98803,-0.5415 3.16595,-1.0322 0,0 0.26636,0.038 0.86104,0.1132 0.74697,-0.2076 1.49392,-0.4153 2.62183,-0.7668 0.13514,-0.01 0.27031,-0.012 0.86204,-0.029 0.39789,-0.2124 0.79578,-0.4247 1.5685,-0.7949 0.13293,-0.024 0.26585,-0.049 0.72207,-0.1772 0.21043,-0.1 0.3912,-0.24 0.83978,-0.5686 0,0 0.33059,7e-4 0.83935,-0.05 0.40879,-0.2876 0.81756,-0.5753 1.22008,-0.7793 0,0 -0.0816,-0.01 0.27257,-0.1852 0.22465,-0.151 0.40647,-0.3444 0.70634,-0.7785 0,0 0.25142,-8e-4 0.69142,-0.18 0.22978,-0.2207 0.45956,-0.4412 0.6787,-0.5337 0,0 -0.12468,-0.012 0.25544,-0.2394 m 250.65088,4.4524 c 0.15957,-1.6038 0.4544,-3.2073 0.45776,-4.8114 0.0345,-16.2932 -0.0239,-32.5867 0.0876,-48.8791 0.012,-1.7522 0.93411,-3.4978 2.17902,-5.3627 4.73925,0 9.47851,0 14.21299,0 0.71134,-5.7114 1.3531,-10.8639 2.0119,-16.1537 -18.7785,0 -36.91607,0 -55.21593,0 0,5.4196 0,10.6176 0,16.2292 5.69406,0 11.0703,0 16.93317,0 0,20.3636 0,40.3143 0,61.0045 6.67764,-0.5406 12.81357,-1.0373 19.33349,-2.0268 m -334.8664,0.3658 c 0,-5.0004 0,-10.0009 0,-15.5311 -8.49093,0 -16.77346,0 -24.98991,0 0,-5.6383 0,-10.7348 0,-16.1845 6.11427,0 11.89893,0 17.78927,0 0,-5.0697 0,-9.7708 0,-15.0305 -6.11989,0 -12.00655,0 -17.92581,0 0,-4.4687 0,-8.3731 0,-12.6915 7.42587,0 14.66848,0 22.21407,0 0.52968,-5.5786 1.02298,-10.7741 1.52653,-16.0773 -14.53314,0 -28.65594,0 -43.04441,0 0,3.4024 -0.007,6.5186 9.3e-4,9.6346 0.062,22.0811 0.12726,44.162 0.66954,66.6505 0.7728,0.1542 1.54532,0.4415 2.31842,0.4431 12.62696,0.026 25.2541,0.035 37.88094,-0.016 1.01313,0 2.02446,-0.4764 3.56017,-1.1971 m 359.66311,0.8356 c 0.56897,0.289 1.14037,0.8345 1.70656,0.8288 9.94375,-0.1 19.88742,-0.2373 29.82937,-0.4551 1.26776,-0.028 2.52522,-0.5495 3.99538,-1.0443 0,0 0.2853,0.022 0.87369,0.1034 0.74139,-0.2109 1.48277,-0.4219 2.56691,-0.7838 0,0 0.37263,0.016 0.85196,0.01 0.41656,-0.2212 0.83312,-0.4423 1.72974,-0.9583 8.19488,-3.4592 12.23813,-9.9804 13.02411,-18.814 0.88148,-9.9066 -3.90593,-16.1626 -12.73878,-19.8242 0.71212,-0.5003 1.12728,-0.8362 1.58059,-1.1038 7.26594,-4.2905 9.85865,-11.0969 7.9971,-21.0211 -1.41353,-7.5357 -6.04328,-12.1002 -14.35137,-12.7495 -8.97409,-0.7014 -18.00902,-0.6003 -27.01842,-0.7999 -3.39705,-0.076 -6.79693,-0.012 -10.46063,-0.012 0,5.7146 -0.0125,10.8729 0.002,16.0313 0.0573,20.0326 0.12333,40.0651 0.41155,60.5928 M 594.45733,737.39178 c 0,0 -0.25101,0.0321 -0.25101,0.0321 0,0 0.23518,-0.10333 -0.23562,-0.49112 -2.50175,-4.08519 -0.91795,-8.17937 0.1972,-12.16177 0.30822,-1.10062 1.80307,-2.55089 2.78105,-2.57339 1.17114,-0.0268 2.98736,1.02274 3.45364,2.09631 2.06006,4.74304 5.26517,8.0728 9.90552,10.06993 0.76204,0.32799 1.88508,1.08792 1.91371,1.69442 0.32205,6.80499 6.19509,8.45408 10.17758,11.92501 -0.30014,-1.78356 -0.92443,-3.363 -1.49968,-4.96114 -2.7825,-7.73005 -1.11207,-15.38306 3.62674,-21.01115 4.09758,-4.86655 10.57661,-7.61951 16.30893,-11.51468 -0.57724,10.69122 4.53544,19.58672 9.5121,28.55752 0.31247,-1.04468 0.10947,-2.05747 0.3599,-2.93368 0.3792,-1.32693 1.07384,-2.55878 1.63449,-3.83103 1.08452,0.60151 2.25503,1.08458 3.23281,1.83311 1.372,1.05033 2.42531,2.7913 3.92858,3.35451 2.79123,1.04578 3.46834,3.19273 4.37699,5.69223 0.93547,2.57327 2.13353,5.67407 4.17345,7.0653 4.23621,2.88903 4.44465,6.61052 3.94001,10.97427 -1.01401,8.76852 -2.21378,17.52655 -2.82862,26.32633 -0.28826,4.12589 -1.63664,5.79251 -5.63713,6.8159 -3.98619,1.01973 -7.57669,3.6697 -11.34064,5.60488 0.18342,0.50747 0.36685,1.01499 0.55032,1.52246 1.76723,-0.12703 3.53271,-0.3025 5.30208,-0.37199 5.23972,-0.20562 10.81642,-0.20776 14.48046,3.9999 5.92992,6.80965 14.12995,8.58721 22.25472,12.35665 -0.72925,-9.93904 -10.44698,-8.14014 -15.12343,-13.51246 5.63251,-2.64133 10.78784,-0.0236 15.78472,0.44008 5.33855,0.49526 11.19155,-0.15262 15.50762,4.92935 0.7962,-4.9662 -1.05872,-7.02981 -5.73199,-7.80329 -3.55832,-0.58895 -7.05135,-1.59379 -10.5734,-2.4136 0.0772,-0.43253 0.15455,-0.86507 0.23182,-1.2976 5.66626,-0.88095 11.35047,-2.95717 17.17006,0.3541 -1.29137,-1.63274 -2.58272,-3.26552 -4.25389,-5.37848 3.08567,-0.19632 5.73422,-0.0338 8.23325,-0.58561 7.62012,-1.68242 13.90896,0.80262 20.00409,5.38198 3.20949,2.41126 7.14206,3.94231 10.93055,5.35553 2.19796,0.82002 4.75751,0.6184 7.48836,0.91245 -2.78704,-8.02274 -12.10983,-6.20494 -17.39618,-11.58121 1.38456,-0.33386 1.98898,-0.62806 2.5782,-0.59886 5.78287,0.28755 11.56135,0.6699 17.34485,0.94179 4.55219,0.21407 9.10961,0.31096 13.75704,0.46288 -0.33486,-4.12403 -3.11216,-5.38688 -6.41416,-5.82155 -3.1572,-0.41569 -6.34858,-0.55717 -9.52496,-0.81912 -0.0498,-0.44488 -0.0996,-0.88976 -0.14934,-1.33463 3.31515,-0.74548 6.63026,-1.49091 9.94234,-2.23569 -3.10562,-4.23192 -5.48253,-4.80203 -10.10098,-2.86379 -3.28365,1.37803 -6.62568,2.70542 -10.05371,3.60582 -8.51586,2.23673 -13.66086,-0.46643 -16.30436,-9.03684 -1.78514,-5.78746 -3.0059,-11.80503 -3.94274,-17.80786 -0.84899,-5.44037 -2.32802,-11.17319 0.54438,-16.40729 4.93801,-8.99809 10.05263,-17.90315 15.40301,-26.64743 1.40478,-2.29588 3.65728,-4.47343 6.01923,-5.65028 10.82309,-5.39288 21.99822,-10.05992 32.70158,-15.68081 7.82199,-4.10784 16.29364,-8.05965 22.39535,-14.24444 14.72177,-14.92238 20.46851,-34.15176 20.99891,-55.17011 0.0497,-1.97002 1.01348,-3.91571 1.81393,-6.82009 6.46567,9.80486 5.67531,18.82514 2.27777,28.1208 4.3671,-0.0164 5.49787,-2.96873 5.99589,-5.61865 1.24954,-6.64867 2.60075,-13.38218 2.78256,-20.11379 0.30355,-11.23997 0.9178,-22.69632 -0.76125,-33.71418 -2.46148,-16.15283 -6.8745,-31.98916 -10.34639,-47.98544 -0.66893,-3.0819 -0.83318,-6.27928 -1.17095,-8.95425 4.42982,0 8.31282,0.64339 11.90381,-0.13438 7.40393,-1.60364 13.51391,-8.36914 12.88686,-14.06839 -0.76102,-6.91628 -2.39804,-13.57068 -7.61034,-18.78071 -1.57943,-1.57872 -2.20697,-4.1612 -3.507,-6.75598 5.11161,-0.36867 9.07295,-0.65437 14.16624,-1.02173 -5.46345,-3.2614 -9.93913,-5.592 -14.0614,-8.45846 -12.00392,-8.34712 -14.67118,-28.57016 -5.39572,-39.91162 2.66871,-3.26316 5.45863,-6.42181 8.52559,-10.01846 -14.75687,-3.7888 -23.67522,6.40179 -34.0274,13.33119 -1.86185,-3.01756 -3.63643,-5.86127 -5.37937,-8.72526 -3.52487,-5.79211 -8.06234,-10.44813 -14.20471,-13.2671 -4.82324,-2.21356 -7.88987,-0.34259 -7.63862,5.16424 0.12285,2.69378 1.67311,5.31897 2.6881,8.30073 -4.07947,-1.39792 -8.06263,-2.71981 -12.01658,-4.12803 -5.71519,-2.03547 -11.51145,-3.21535 -17.50511,-1.5588 -4.92715,1.36175 -5.84363,4.04068 -2.73727,8.21802 1.09503,1.47251 2.73416,2.52051 4.13362,3.75184 1.05297,0.92648 2.1199,1.83621 3.6615,3.16916 -1.82099,1.01396 -3.0289,1.74487 -4.28452,2.37567 -5.819,2.92322 -11.77287,5.59181 -17.44146,8.79384 -4.77446,2.69699 -6.4058,7.64021 -8.07861,13.14842 6.46085,-0.70061 11.78558,-4.41288 18.42777,-1.48718 -1.93707,1.45786 -3.31651,2.6434 -4.82962,3.60777 -5.06379,3.22753 -10.32584,6.15907 -15.16818,9.69967 -1.29063,0.9437 -1.55805,3.63529 -1.77862,5.58592 -0.0376,0.33297 2.53938,1.38823 3.90963,1.3905 2.62188,0.005 5.36178,-0.11838 7.83806,-0.9027 3.28639,-1.04096 5.24113,0.30253 7.33781,2.84314 -2.17127,1.70622 -4.28583,3.11179 -6.09031,4.85566 -1.921,1.85647 -3.76312,3.88569 -5.22306,6.12573 -0.86448,1.32641 -1.75735,3.84543 -1.14635,4.68669 0.89597,1.23365 3.18183,2.09866 4.77854,1.95836 3.5145,-0.3089 6.98615,-1.26767 10.44187,-2.10639 3.65264,-0.88647 7.26648,-1.94158 11.25358,-3.01935 0,1.63293 0.13239,2.57703 -0.0192,3.47036 -5.00584,29.50797 -11.82288,58.58642 -19.87607,87.3611 -0.44569,1.59245 -1.81379,3.34881 -3.22576,4.15283 -14.34996,8.17113 -28.79774,16.16103 -43.21946,24.19918 -3.46284,1.93004 -6.93064,3.85072 -10.85552,6.03093 -0.23323,-1.99504 -0.44471,-3.4341 -0.56415,-4.88117 -1.70957,-20.72563 -3.11902,-41.48337 -5.23362,-62.16517 -0.99307,-9.71297 -3.50972,-19.092 -9.94975,-27.00665 -9.28865,-11.41557 -20.92806,-19.06885 -34.32345,-24.21832 -10.85947,-4.1746 -22.14391,-6.4492 -33.6764,-6.84511 -8.30376,-0.28508 -16.73932,-0.35345 -24.94073,0.79802 -21.14397,2.96872 -35.30439,16.76933 -47.10066,33.75962 -0.72038,1.03759 -1.00635,2.39307 -1.49444,3.60065 26.52092,-19.69706 55.53198,-19.95992 85.60875,-13.67216 -7.26681,2.94065 -14.52525,6.11394 -22.09576,7.53618 -8.9438,1.6802 -18.19989,1.5176 -27.24347,2.7503 -12.50983,1.70515 -24.42482,5.15071 -33.34213,15.30062 -1.77771,2.02347 -3.7097,3.90764 -5.43401,5.97608 -1.72409,2.06817 -3.31532,4.25761 -4.89372,6.44791 -1.47664,2.04906 -2.86013,4.16892 -4.28462,6.25763 9.92245,-4.19462 18.46026,-11.0779 28.50627,-12.09639 -2.29652,5.27405 -5.03183,10.46385 -6.75628,15.98631 -0.8366,2.67912 -2.00368,4.70919 -3.55971,6.91603 -4.32454,6.13341 -8.42199,12.45863 -12.22031,18.94798 -1.38188,2.36091 -1.66523,5.39952 -2.44973,8.12898 5.16254,-6.03432 11.18399,-10.25179 18.18225,-12.57961 11.51982,-3.83183 23.22281,-7.0833 34.84858,-10.57939 0.36495,0.29676 0.72989,0.59351 1.09484,0.89026 -0.66659,1.78726 -0.8356,4.50472 -2.08227,5.2077 -7.02447,3.96121 -11.36887,10.01328 -14.26396,17.42063 -0.89189,2.28198 -2.30616,3.39455 -4.85076,4.08859 -8.85848,2.41626 -14.20322,8.55821 -15.88627,17.8529 -0.91753,5.06723 -1.57341,10.1837 -2.42311,15.26463 -0.46119,2.75775 -1.08118,5.48751 -1.62955,8.22987 9.041,-8.10694 16.80946,-17.17197 28.8865,-20.45129 -0.53537,1.91259 -1.31168,3.66336 -2.5373,4.9698 -10.75904,11.46843 -20.30301,23.36075 -15.94005,41.04009 1.69636,6.87378 3.15627,13.80906 4.72384,20.71629 2.00208,-5.58784 0.80167,-12.20682 6.72933,-15.17824 1.79586,6.65817 2.68356,13.38123 5.43233,19.17325 2.73835,5.77 7.34394,10.60593 11.13082,15.85138 -3.07388,-15.90128 -2.55652,-20.74559 3.37583,-23.8449 -0.0876,6.68358 2.73996,11.90427 7.31151,16.18629 4.15218,3.88912 6.13696,8.47397 7.12268,14.34492 0.94351,5.61924 5.87271,9.15756 11.21458,11.52068 M 403.33179,505.28504 c 1.61946,-18.14793 3.23979,-36.29582 4.85811,-54.44385 1.424,-15.96876 6.23576,-30.34318 18.77386,-40.88079 6.35714,-5.34286 12.74411,-10.6977 19.49332,-15.48927 14.77685,-10.49068 29.42175,-21.12988 40.17948,-36.2125 7.75211,-10.86869 15.01416,-22.10607 22.48671,-33.18471 9.06029,-13.43266 20.20156,-23.96162 36.70951,-26.19904 11.28178,-1.5291 22.63172,-2.65358 33.98438,-3.47676 16.76406,-1.21555 32.9594,-4.52916 48.2388,-11.9539 11.23103,-5.45748 22.42788,-10.99985 33.77996,-16.18109 12.6616,-5.77893 25.78179,-7.12396 38.95043,-2.06943 7.77257,2.98334 15.34108,6.58814 22.8255,10.28846 14.28567,7.06288 28.38287,14.89428 44.27174,17.19154 15.97934,2.31033 32.12429,3.40835 48.19307,5.07352 14.67526,1.52078 27.56446,6.84312 36.72062,19.27583 6.62778,8.99951 13.05845,18.17119 19.18382,27.53719 9.94332,15.20402 21.53541,28.67638 36.46232,38.92912 8.15777,5.60327 16.29135,11.24758 24.33052,17.02779 11.38893,8.18882 21.56904,17.58917 24.62555,32.30058 1.78719,8.60187 2.73289,17.41981 3.57828,26.18919 1.53857,15.96306 2.3679,32.00475 4.18392,47.9306 1.08545,9.51858 3.42539,18.89203 5.36334,28.29556 0.25037,1.21446 1.4333,3.13327 2.25328,3.17166 5.86876,0.27474 11.75534,0.14678 17.37799,0.14678 -2.88294,-13.34683 -6.42529,-26.03856 -8.2228,-38.98558 -2.37044,-17.07293 -3.19158,-34.36643 -5.01461,-51.52745 -1.6383,-15.42085 -6.4521,-29.53855 -16.88409,-41.3208 -10.37289,-11.71547 -22.81698,-20.7958 -35.27491,-29.82621 -15.81846,-11.46651 -29.36981,-24.99644 -39.41514,-42.13459 -3.89153,-6.63929 -8.25434,-12.99506 -12.54912,-19.37592 -10.39134,-15.43863 -23.17273,-28.03474 -41.70802,-31.7903 -13.19693,-2.67393 -26.7362,-3.52135 -40.07731,-5.50561 -10.17456,-1.51329 -20.73481,-2.19505 -30.30354,-5.64443 -13.64226,-4.91783 -26.70533,-11.6748 -39.709,-18.28261 -23.08785,-11.73209 -46.26452,-13.46452 -69.90362,-2.10817 -8.15037,3.9155 -16.26969,7.89978 -24.38369,11.89432 -11.00135,5.41595 -22.23302,10.27519 -34.46687,11.63717 -14.87869,1.65642 -29.84193,2.52811 -44.70938,4.27136 -15.18697,1.78074 -29.45499,6.69258 -39.89803,18.71275 -8.52597,9.8136 -16.57475,20.23381 -23.59109,31.22237 -11.86314,18.57936 -26.39556,33.97399 -44.9761,45.43375 -6.46531,3.98753 -12.60544,8.57357 -18.66612,13.20099 -12.63018,9.64326 -23.16235,21.24218 -26.33365,37.57449 -2.49885,12.86933 -3.56504,26.04647 -4.97204,39.1204 -1.27895,11.88415 -1.54809,23.91377 -3.38175,35.69564 -1.96801,12.64515 -5.24144,25.07616 -7.99291,37.82156 4.72412,0 9.77417,-0.20883 14.7981,0.0732 3.3647,0.1889 4.72021,-1.22355 5.30233,-4.42081 1.72065,-9.45082 3.61195,-18.86889 5.50885,-29.00202 m 442.47472,373.29069 c -5.14559,2.97826 -9.99922,6.83104 -15.49359,8.76453 -14.31597,5.03793 -29.49598,4.53156 -44.36504,5.8103 -14.73132,1.26689 -29.08687,3.93846 -42.62284,10.2075 -12.65654,5.86185 -25.15737,12.0792 -37.8325,17.89713 -14.2944,6.56104 -28.7528,6.50772 -43.05474,0 -9.652,-4.38909 -19.20544,-9.01634 -28.71223,-13.73001 -13.53763,-6.71216 -27.54883,-11.82913 -42.57565,-13.42807 -14.3578,-1.5278 -28.77588,-2.49519 -43.10855,-4.22391 -11.31624,-1.36488 -21.71025,-5.54936 -29.29417,-14.70667 -6.08388,-7.34616 -11.87744,-15.01092 -17.14785,-22.98833 -10.68135,-16.16757 -21.34456,-32.29351 -37.10244,-43.86928 -10.89046,-8.00015 -21.9841,-15.70826 -32.90548,-23.66476 -12.95478,-9.43797 -21.15792,-21.88416 -22.7054,-38.47092 -1.26256,-13.5327 -2.4393,-27.07755 -3.97768,-40.57816 -1.07417,-9.42673 -2.71038,-18.79211 -7.19843,-27.29628 -0.58394,-1.10647 -1.6575,-2.71266 -2.55465,-2.74826 -6.12165,-0.24271 -12.25678,-0.12722 -19.06652,-0.12722 7.93314,10.52639 9.91686,22.1949 11.25438,33.94639 1.62904,14.31268 2.36008,28.73839 4.17854,43.02142 1.67369,13.14612 6.45927,25.11518 15.26863,35.1899 8.5311,9.75632 18.89237,17.09977 29.58202,23.96577 16.92535,10.87128 32.32153,23.30841 43.32438,40.82833 5.45616,8.68788 11.26412,17.15997 17.23528,25.48596 10.4542,14.57723 23.53909,25.74848 41.33036,28.98305 12.34647,2.24464 24.93051,3.27302 37.45052,4.30736 13.771,1.13784 27.42821,2.63928 40.18127,8.50505 12.78995,5.88288 25.37127,12.24567 38.18158,18.07958 19.94404,9.08252 40.00491,9.08621 59.93313,-0.15137 9.5065,-4.40667 18.96636,-8.93125 28.33029,-13.64737 11.96403,-6.02545 24.39075,-10.43487 37.68765,-11.8327 14.36032,-1.5096 28.79169,-2.39826 43.10497,-4.26236 14.08897,-1.83495 27.15307,-6.97632 36.90741,-17.99234 7.55405,-8.5312 14.52627,-17.70298 20.95451,-27.16479 9.80869,-14.43781 18.95856,-29.36984 33.25253,-39.7782 9.73374,-7.08775 19.7036,-13.83385 29.43365,-20.9269 14.96294,-10.90773 27.36774,-24.06605 31.11743,-43.25339 2.28015,-11.66805 2.99144,-23.65322 4.58601,-35.47055 1.46651,-10.86948 2.71342,-21.80676 4.96621,-32.51253 1.12099,-5.32753 4.27887,-10.20329 6.54489,-15.35071 -5.26858,0 -10.71966,0.14123 -16.15827,-0.0652 -2.3792,-0.0902 -3.79478,0.76848 -4.48532,2.93483 -2.04576,6.4174 -4.94372,12.72613 -5.84063,19.31656 -2.15959,15.86958 -3.21513,31.89373 -5.01236,47.8203 -1.36854,12.12748 -4.85071,23.56413 -14.2459,31.81309 -7.03772,6.1791 -14.23538,12.37499 -22.11123,17.30015 -23.96485,14.98632 -43.08333,34.57573 -57.74754,59.17795 -5.27501,8.84992 -12.62664,16.39509 -19.48663,24.88082 m -121.26475,250.4728 c -4.48892,-8.9565 -6.96832,-19.0334 -14.37473,-26.4186 10.94457,-4.2551 14.56732,-10.6818 13.91922,-24.2344 -0.39704,-8.3026 -6.06285,-15.7656 -15.106,-16.9394 -12.79852,-1.6612 -25.77877,-1.8465 -38.79875,-2.6701 0,26.6055 0,52.0116 0,77.6863 5.49354,0 10.66124,-0.081 15.82484,0.033 2.70601,0.06 2.98088,-1.5488 2.96793,-3.6854 -0.0357,-5.8651 -0.01,-11.7307 -0.008,-17.596 6.4e-4,-3.1946 1.4e-4,-6.389 1.4e-4,-9.623 4.04735,-0.043 6.03608,1.8943 7.18608,4.9144 2.78885,7.3236 5.45245,14.6989 8.35587,21.9738 0.5022,1.2584 1.89782,2.9879 2.94124,3.0333 6.44937,0.2803 12.91603,0.1409 19.85587,0.1409 -0.96937,-2.3864 -1.71757,-4.2284 -2.76319,-6.6148 m 161.66683,7.8412 c 17.18398,-1.3948 25.66523,-8.5816 29.39144,-25.9002 1.27042,-5.9045 1.56847,-12.1409 1.50312,-18.2164 -0.20781,-19.3106 -11.0383,-35.2784 -33.76496,-34.1615 -13.34061,0.6558 -22.86688,6.9175 -28.40191,19.3735 -3.42145,7.6997 -4.34217,15.9105 -3.97401,24.2854 0.92837,21.12 12.1704,35.0237 35.24632,34.6192 m -527.0002,-72.645 c -2.27421,-1.0474 -4.49031,-2.8231 -6.83242,-3.02 -12.07984,-1.0165 -24.19195,-1.6287 -36.42197,-2.3899 0,26.3074 0,51.4376 0,76.4882 0.55814,0.1497 0.80937,0.2754 1.06102,0.2763 8.50184,0.029 17.00371,0.039 25.50556,0.068 13.18145,0.044 22.25919,-6.7034 26.542,-19.6485 3.05738,-9.2413 2.98904,-18.8069 2.16588,-28.2671 -0.79313,-9.1147 -3.78681,-17.5269 -12.02007,-23.5069 m 224.09236,62.284 c 0.91736,-3.9104 2.55848,-7.8076 2.62674,-11.7335 0.2942,-16.9187 0.12719,-33.8461 0.12806,-50.7702 6e-5,-1.4335 0,-2.8668 0,-4.2578 -6.67972,0 -12.73483,0 -19.11535,0 0,1.7189 -5e-5,3.1913 5e-5,4.6638 5.8e-4,15.9687 0.0278,31.9375 -0.014,47.9062 -0.0127,4.845 -2.43285,8.0323 -6.27022,8.59 -5.80751,0.8439 -9.03731,-0.9385 -10.53157,-6.0826 -0.51858,-1.7849 -0.73145,-3.7248 -0.73856,-5.5953 -0.0581,-15.2861 -0.0298,-30.5724 -0.0448,-45.8588 -9.3e-4,-1.1825 -0.13152,-2.3649 -0.20072,-3.5284 -6.44452,0 -12.59364,0 -18.88123,0 0,18.7589 -0.24641,37.1836 0.0929,55.5968 0.2019,10.9564 5.90265,17.6142 16.27115,20.1908 3.18839,0.7923 6.52827,1.2481 9.80652,1.2956 10.0165,0.1458 19.59365,-1.2162 26.87108,-10.4166 m 72.16172,-50.2274 c 0,-5.5308 0,-11.0616 0,-16.4558 -6.55163,0 -12.45691,0 -18.63614,0 0,15.1958 0.0278,30.0601 -0.0225,44.9241 -0.0106,3.1239 -0.14866,6.2663 -0.51316,9.3648 -0.49326,4.193 -2.94291,6.5579 -6.6342,6.8159 -5.54682,0.3876 -8.93224,-1.486 -10.00244,-5.8293 -0.51375,-2.0851 -0.76296,-4.2924 -0.77308,-6.4459 -0.0689,-14.7386 -0.0424,-29.478 -0.0466,-44.2169 -4.5e-4,-1.5699 -10e-5,-3.1396 -10e-5,-4.6721 -6.55367,0 -12.46489,0 -18.54176,0 0,19.3427 -0.063,38.4209 0.0275,57.4986 0.0433,9.1024 5.15318,14.6709 13.05099,17.4698 9.51809,3.3729 19.26557,3.2348 28.78513,-0.1198 9.09383,-3.2047 13.29358,-9.6305 13.29888,-19.4383 0.007,-12.6921 0.006,-25.384 0.007,-38.8951 m 311.49212,59.3602 c 2.19952,0 4.39904,0 6.51052,0 0,-5.5965 0,-10.572 0,-15.9403 -8.48879,0 -16.67997,0 -24.92262,0 0,-5.504 0,-10.5975 0,-16.0506 6.09528,0 11.88677,0 17.82292,0 0,-5.0704 0,-9.7722 0,-15.0353 -6.10259,0 -11.99404,0 -17.80145,0 0,-4.5783 0,-8.5869 0,-12.8748 7.47473,0 14.61796,0 22.05627,0 0.5248,-5.4582 1.02418,-10.6512 1.53078,-15.9205 -14.53976,0 -28.66714,0 -42.80013,0 0,25.3532 0,50.3954 0,75.8224 12.4311,0 24.62395,0 37.60371,-9e-4 z"
   id="path1"
   style="stroke-width:0.808349" />&#10;<path
   fill="#fdfffe"
   opacity="1"
   stroke="none"
   d="m 594.38594,737.2545 c -5.27048,-2.22584 -10.19968,-5.76416 -11.14319,-11.3834 -0.98572,-5.87095 -2.9705,-10.45581 -7.12268,-14.34493 -4.57155,-4.28201 -7.39906,-9.50271 -7.31151,-16.18628 -5.93235,3.0993 -6.44971,7.94361 -3.37583,23.84489 -3.78688,-5.24545 -8.39247,-10.08137 -11.13082,-15.85138 -2.74877,-5.79201 -3.63647,-12.51508 -5.43233,-19.17324 -5.92766,2.97142 -4.72725,9.5904 -6.72933,15.17824 -1.56756,-6.90724 -3.02748,-13.84251 -4.72384,-20.7163 -4.36296,-17.67933 5.18101,-29.57165 15.94005,-41.04008 1.22563,-1.30645 2.00193,-3.05721 2.5373,-4.9698 -12.07704,3.27932 -19.8455,12.34435 -28.8865,20.45128 0.54837,-2.74236 1.16836,-5.47211 1.62955,-8.22987 0.8497,-5.08092 1.50559,-10.19739 2.42311,-15.26462 1.68305,-9.2947 7.02779,-15.43665 15.88627,-17.85291 2.5446,-0.69403 3.95887,-1.8066 4.85076,-4.08858 2.89509,-7.40735 7.23949,-13.45942 14.26396,-17.42063 1.24667,-0.70299 1.41568,-3.42045 2.08227,-5.20771 -0.36495,-0.29674 -0.72989,-0.59349 -1.09484,-0.89025 -11.62577,3.49608 -23.32876,6.74756 -34.84858,10.57939 -6.99826,2.32782 -13.01971,6.54529 -18.18225,12.57961 0.7845,-2.72947 1.06785,-5.76807 2.44973,-8.12898 3.79832,-6.48935 7.89577,-12.81458 12.22031,-18.94798 1.55603,-2.20685 2.72311,-4.23692 3.55971,-6.91604 1.72445,-5.52245 4.45976,-10.71225 6.75628,-15.9863 -10.04601,1.01849 -18.58381,7.90177 -28.50627,12.09639 1.42449,-2.08871 2.80798,-4.20857 4.28462,-6.25763 1.5784,-2.1903 3.16963,-4.37974 4.89372,-6.44791 1.72431,-2.06844 3.6563,-3.95261 5.43401,-5.97608 8.91731,-10.14991 20.8323,-13.59547 33.34213,-15.30063 9.04358,-1.23269 18.29967,-1.0701 27.24348,-2.7503 7.5705,-1.42224 14.82894,-4.59553 22.09575,-7.53617 -30.07677,-6.28776 -59.08783,-6.0249 -85.60875,13.67216 0.48809,-1.20758 0.77406,-2.56306 1.49444,-3.60065 11.79627,-16.99029 25.95669,-30.79091 47.10066,-33.75962 8.20141,-1.15147 16.63697,-1.0831 24.94074,-0.79803 11.53248,0.39591 22.81692,2.67052 33.67639,6.84512 13.39539,5.14947 25.0348,12.80275 34.32345,24.21832 6.44003,7.91465 8.95668,17.29367 9.94975,27.00665 2.1146,20.68179 3.52405,41.43954 5.23362,62.16517 0.11945,1.44706 0.33092,2.88613 0.56415,4.88116 3.92488,-2.1802 7.39268,-4.10088 10.85552,-6.03092 14.42172,-8.03815 28.8695,-16.02805 43.21946,-24.19918 1.41197,-0.80402 2.78007,-2.56038 3.22576,-4.15283 8.05319,-28.77468 14.87023,-57.85314 19.87607,-87.36111 0.15157,-0.89332 0.0192,-1.83742 0.0192,-3.47035 -3.9871,1.07777 -7.60094,2.13287 -11.25358,3.01935 -3.45572,0.83872 -6.92737,1.79748 -10.44187,2.10639 -1.59671,0.1403 -3.88256,-0.72471 -4.77854,-1.95836 -0.611,-0.84126 0.28187,-3.36028 1.14635,-4.68669 1.45994,-2.24004 3.30206,-4.26926 5.22306,-6.12574 1.80448,-1.74386 3.91904,-3.14943 6.09031,-4.85565 -2.09668,-2.54062 -4.05142,-3.8841 -7.33781,-2.84315 -2.47628,0.78433 -5.21618,0.90706 -7.83806,0.90271 -1.37025,-0.002 -3.94723,-1.05753 -3.90963,-1.3905 0.22057,-1.95064 0.48799,-4.64223 1.77862,-5.58592 4.84234,-3.54061 10.10439,-6.47215 15.16818,-9.69968 1.51311,-0.96436 2.89255,-2.1499 4.82962,-3.60776 -6.64219,-2.9257 -11.96691,0.78657 -18.42777,1.48718 1.67281,-5.50821 3.30415,-10.45143 8.07861,-13.14842 5.66859,-3.20203 11.62246,-5.87062 17.44146,-8.79384 1.25562,-0.63081 2.46353,-1.36171 4.28452,-2.37567 -1.5416,-1.33296 -2.60853,-2.24268 -3.6615,-3.16916 -1.39946,-1.23133 -3.03858,-2.27934 -4.13362,-3.75184 -3.10636,-4.17735 -2.18988,-6.85627 2.73727,-8.21802 5.99366,-1.65655 11.78992,-0.47668 17.50511,1.5588 3.95395,1.40822 7.93711,2.73011 12.01658,4.12803 -1.01499,-2.98176 -2.56525,-5.60695 -2.6881,-8.30073 -0.25125,-5.50684 2.81538,-7.37781 7.63863,-5.16424 6.14237,2.81897 10.67983,7.47499 14.2047,13.2671 1.74294,2.86399 3.51752,5.7077 5.37937,8.72526 10.35218,-6.92941 19.27053,-17.12 34.0274,-13.33119 -3.06696,3.59665 -5.85688,6.7553 -8.52559,10.01846 -9.27546,11.34146 -6.6082,31.5645 5.39572,39.91162 4.12227,2.86646 8.59796,5.19705 14.0614,8.45846 -5.09329,0.36736 -9.05463,0.65306 -14.16624,1.02173 1.30003,2.59478 1.92757,5.17726 3.50701,6.75597 5.21229,5.21004 6.84932,11.86443 7.61033,18.78072 0.62705,5.69925 -5.48293,12.46475 -12.88686,14.06839 -3.59099,0.77777 -7.47399,0.13437 -11.90381,0.13437 0.33778,2.67497 0.50202,5.87235 1.17095,8.95426 3.4719,15.99628 7.88491,31.83261 10.3464,47.98544 1.67904,11.01786 1.06479,22.47421 0.76124,33.71418 -0.18181,6.73161 -1.53302,13.46512 -2.78256,20.11379 -0.49802,2.64992 -1.62879,5.60229 -5.99589,5.61864 3.39754,-9.29565 4.18791,-18.31593 -2.27777,-28.12079 -0.80045,2.90438 -1.76421,4.85006 -1.81393,6.82009 -0.5304,21.01835 -6.27714,40.24773 -20.99891,55.17011 -6.10171,6.18479 -14.57336,10.1366 -22.39535,14.24443 -10.70336,5.6209 -21.87849,10.28794 -32.70158,15.68082 -2.36195,1.17685 -4.61445,3.3544 -6.01923,5.65028 -5.35037,8.74428 -10.465,17.64934 -15.40301,26.64743 -2.8724,5.2341 -1.39337,10.96692 -0.54438,16.40728 0.93684,6.00283 2.1576,12.02041 3.94274,17.80787 2.6435,8.57041 7.78851,11.27357 16.30436,9.03684 3.42803,-0.90041 6.77006,-2.22779 10.05371,-3.60582 4.61845,-1.93824 6.99536,-1.36813 10.10099,2.86378 -3.31209,0.74479 -6.6272,1.49022 -9.94235,2.23569 0.0498,0.44488 0.0996,0.88975 0.14934,1.33464 3.17638,0.26195 6.36776,0.40343 9.52496,0.81912 3.302,0.43467 6.07931,1.69752 6.41416,5.82155 -4.64742,-0.15193 -9.20485,-0.24881 -13.75703,-0.46288 -5.78351,-0.2719 -11.56199,-0.65424 -17.34486,-0.9418 -0.58922,-0.0292 -1.19364,0.26501 -2.5782,0.59886 5.28635,5.37628 14.60914,3.55847 17.39618,11.58122 -2.73085,-0.29405 -5.2904,-0.0925 -7.48836,-0.91245 -3.78849,-1.41322 -7.72106,-2.94427 -10.93055,-5.35553 -6.09513,-4.57936 -12.38397,-7.0644 -20.00409,-5.38198 -2.49903,0.55181 -5.14758,0.38928 -8.23325,0.5856 1.67117,2.11297 2.96253,3.74575 4.25389,5.37849 -5.81958,-3.31127 -11.5038,-1.23506 -17.17006,-0.3541 -0.0772,0.43253 -0.15455,0.86507 -0.23182,1.29759 3.52205,0.81982 7.01508,1.82466 10.5734,2.41361 4.67327,0.77348 6.52819,2.83709 5.73199,7.80329 -4.31607,-5.08198 -10.16907,-4.43409 -15.50762,-4.92936 -4.99688,-0.46372 -10.15221,-3.0814 -15.78472,-0.44008 4.67645,5.37233 14.39418,3.57343 15.12343,13.51247 -8.12477,-3.76945 -16.3248,-5.54701 -22.25472,-12.35665 -3.66404,-4.20767 -9.24074,-4.20552 -14.48046,-3.99991 -1.76937,0.0695 -3.53485,0.24497 -5.30208,0.37199 -0.18347,-0.50746 -0.3669,-1.01498 -0.55032,-1.52245 3.76395,-1.93519 7.35445,-4.58516 11.34064,-5.60489 4.00049,-1.02338 5.34887,-2.69001 5.63713,-6.81589 0.61484,-8.79978 1.81462,-17.55781 2.82862,-26.32633 0.50465,-4.36375 0.2962,-8.08524 -3.94001,-10.97428 -2.03992,-1.39122 -3.23798,-4.49202 -4.17345,-7.0653 -0.90865,-2.49949 -1.58576,-4.64645 -4.37699,-5.69222 -1.50327,-0.56322 -2.55658,-2.30418 -3.92858,-3.35451 -0.97778,-0.74853 -2.14829,-1.2316 -3.23281,-1.83311 -0.56065,1.27225 -1.25528,2.5041 -1.63449,3.83103 -0.25043,0.87621 -0.0475,1.889 -0.35989,2.93368 -4.97667,-8.9708 -10.08935,-17.8663 -9.51211,-28.55752 -5.73232,3.89517 -12.21134,6.64812 -16.30893,11.51468 -4.73881,5.62809 -6.40924,13.2811 -3.62674,21.01115 0.57525,1.59813 1.19954,3.17758 1.49968,4.96114 -3.98249,-3.47094 -9.85553,-5.12002 -10.17758,-11.92502 -0.0287,-0.60649 -1.15167,-1.36643 -1.9137,-1.69442 -4.64036,-1.99713 -7.84546,-5.32689 -9.90553,-10.06992 -0.46628,-1.07357 -2.2825,-2.12315 -3.45364,-2.09631 -0.97798,0.0225 -2.47283,1.47276 -2.78105,2.57338 -1.11515,3.98241 -2.69895,8.07659 0.0125,12.3496 0.20966,0.18782 0.20557,0.13383 0.20557,0.13383 m 124.94568,47.40741 c 0.31411,-2.16479 1.18229,-4.42698 0.84057,-6.4765 -1.11169,-6.66672 -2.26866,-13.37823 -4.15977,-19.84063 -1.94885,-6.65972 -3.69939,-13.69088 -10.404,-17.559 -2.17556,-1.2552 -3.80012,-1.69107 -5.87718,0.40108 -2.54207,2.56064 -5.27511,5.18266 -8.40285,6.81285 -5.85596,3.05225 -9.27346,6.96607 -9.31436,14.22144 -0.0483,8.54187 -1.13565,17.07768 -1.77468,25.61589 -0.2219,2.96508 0.97779,4.02641 3.97235,3.93897 7.27884,-0.21246 14.56746,-0.0692 20.37142,-0.0692 3.35897,-1.72237 5.70301,-3.02151 8.12715,-4.13723 2.01639,-0.92805 4.12685,-1.64063 6.62135,-2.90768 z"
   id="path2"
   style="stroke-width:0.808349" />&#10;<path
   fill="#f9fefd"
   opacity="1"
   stroke="none"
   d="m 403.29559,505.63615 c -1.8607,9.78201 -3.752,19.20009 -5.47265,28.65091 -0.58212,3.19725 -1.93763,4.60971 -5.30233,4.42081 -5.02393,-0.28205 -10.07398,-0.0732 -14.7981,-0.0732 2.75147,-12.7454 6.0249,-25.17641 7.99291,-37.82157 1.83366,-11.78186 2.1028,-23.81149 3.38175,-35.69563 1.407,-13.07393 2.47319,-26.25107 4.97204,-39.12041 3.1713,-16.3323 13.70347,-27.93122 26.33365,-37.57448 6.06068,-4.62742 12.20081,-9.21346 18.66612,-13.20099 18.58054,-11.45976 33.11296,-26.85439 44.9761,-45.43375 7.01634,-10.98856 15.06512,-21.40877 23.59109,-31.22237 10.44304,-12.02017 24.71106,-16.93202 39.89803,-18.71275 14.86745,-1.74326 29.83069,-2.61494 44.70938,-4.27136 12.23385,-1.36198 23.46552,-6.22122 34.46687,-11.63718 8.114,-3.99453 16.23332,-7.97882 24.38369,-11.89431 23.6391,-11.35635 46.81577,-9.62393 69.90362,2.10817 13.00367,6.6078 26.06674,13.36478 39.709,18.28261 9.56873,3.44937 20.12898,4.13114 30.30354,5.64443 13.34111,1.98425 26.88038,2.83168 40.07731,5.50561 18.53529,3.75556 31.31668,16.35166 41.70802,31.7903 4.29478,6.38086 8.65759,12.73663 12.54912,19.37592 10.04533,17.13814 23.59668,30.66807 39.41514,42.13459 12.45793,9.03041 24.90202,18.11073 35.27491,29.82621 10.43199,11.78224 15.24579,25.89995 16.88409,41.3208 1.82303,17.16102 2.64417,34.45452 5.01461,51.52745 1.79751,12.94702 5.33986,25.63874 8.2228,38.98558 -5.62265,0 -11.50923,0.12795 -17.37799,-0.14678 -0.81998,-0.0384 -2.00291,-1.9572 -2.25328,-3.17166 -1.93795,-9.40353 -4.27789,-18.77698 -5.36334,-28.29557 -1.81602,-15.92584 -2.64535,-31.96754 -4.18392,-47.93059 -0.84539,-8.76939 -1.79109,-17.58733 -3.57828,-26.18919 -3.05651,-14.71141 -13.23662,-24.11176 -24.62555,-32.30058 -8.03917,-5.78022 -16.17275,-11.42453 -24.33052,-17.0278 -14.92691,-10.25273 -26.519,-23.72509 -36.46232,-38.92911 -6.12537,-9.366 -12.55604,-18.53768 -19.18382,-27.53719 -9.15616,-12.43271 -22.04536,-17.75506 -36.72062,-19.27583 -16.06878,-1.66518 -32.21373,-2.76319 -48.19307,-5.07352 -15.88887,-2.29726 -29.98607,-10.12866 -44.27174,-17.19154 -7.48442,-3.70032 -15.05293,-7.30512 -22.8255,-10.28846 -13.16864,-5.05453 -26.28883,-3.70951 -38.95043,2.06943 -11.35208,5.18124 -22.54893,10.72361 -33.77996,16.18109 -15.2794,7.42474 -31.47474,10.73835 -48.2388,11.95389 -11.35266,0.82319 -22.7026,1.94767 -33.98438,3.47677 -16.50795,2.23741 -27.64922,12.76638 -36.70951,26.19904 -7.47255,11.07864 -14.7346,22.31602 -22.48671,33.1847 -10.75773,15.08263 -25.40263,25.72183 -40.17948,36.21251 -6.74921,4.79157 -13.13618,10.14641 -19.49332,15.48926 -12.5381,10.53762 -17.34986,24.91204 -18.77386,40.8808 -1.61832,18.14803 -3.23865,36.29591 -4.89431,54.79496 z"
   id="path3"
   style="stroke-width:0.808349" />&#10;<path
   fill="#f9fefd"
   opacity="1"
   stroke="none"
   d="m 846.03454,878.40316 c 6.63196,-8.3132 13.98359,-15.85838 19.2586,-24.70829 14.66421,-24.60222 33.78269,-44.19163 57.74754,-59.17795 7.87585,-4.92516 15.07351,-11.12105 22.11123,-17.30015 9.39519,-8.24896 12.87736,-19.68561 14.2459,-31.81309 1.79723,-15.92657 2.85277,-31.95073 5.01236,-47.8203 0.89691,-6.59043 3.79487,-12.89916 5.84063,-19.31656 0.69054,-2.16636 2.10612,-3.02507 4.48532,-2.93483 5.43861,0.20647 10.88969,0.0652 16.15827,0.0652 -2.26602,5.14742 -5.4239,10.02317 -6.54489,15.35071 -2.25279,10.70577 -3.4997,21.64304 -4.96621,32.51253 -1.59457,11.81733 -2.30586,23.80249 -4.58601,35.47055 -3.74969,19.18734 -16.15449,32.34566 -31.11743,43.25339 -9.73005,7.09305 -19.69991,13.83915 -29.43365,20.9269 -14.29397,10.40836 -23.44384,25.34039 -33.25253,39.7782 -6.42824,9.46181 -13.40046,18.63358 -20.95451,27.16479 -9.75434,11.01602 -22.81844,16.15738 -36.90741,17.99234 -14.31328,1.8641 -28.74465,2.75275 -43.10497,4.26237 -13.2969,1.39783 -25.72362,5.80725 -37.68765,11.8327 -9.36393,4.71612 -18.82379,9.24069 -28.33029,13.64737 -19.92822,9.23758 -39.98909,9.23389 -59.93313,0.15137 -12.81031,-5.83391 -25.39163,-12.1967 -38.18158,-18.07958 -12.75306,-5.86577 -26.41027,-7.36722 -40.18127,-8.50505 -12.52001,-1.03435 -25.10405,-2.06273 -37.45052,-4.30737 -17.79127,-3.23457 -30.87616,-14.40582 -41.33036,-28.98305 -5.97116,-8.32599 -11.77912,-16.79808 -17.23528,-25.48596 -11.00285,-17.51992 -26.39903,-29.95705 -43.32438,-40.82833 -10.68965,-6.866 -21.05092,-14.20945 -29.58202,-23.96577 -8.80936,-10.07472 -13.59494,-22.04378 -15.26863,-35.1899 -1.81846,-14.28303 -2.5495,-28.70874 -4.17854,-43.02142 -1.33752,-11.75149 -3.32124,-23.42 -11.25438,-33.94639 6.80974,0 12.94487,-0.11549 19.06652,0.12722 0.89715,0.0356 1.97071,1.64179 2.55465,2.74825 4.48805,8.50418 6.12426,17.86956 7.19843,27.29629 1.53838,13.50061 2.71512,27.04546 3.97768,40.57816 1.54748,16.58676 9.75062,29.03295 22.7054,38.47092 10.92138,7.9565 22.01502,15.66461 32.90548,23.66476 15.75788,11.57577 26.42109,27.70171 37.10244,43.86928 5.27041,7.97741 11.06397,15.64217 17.14785,22.98833 7.58392,9.15731 17.97793,13.34179 29.29417,14.70667 14.33267,1.72872 28.75075,2.6961 43.10855,4.22391 15.02682,1.59894 29.03802,6.71591 42.57565,13.42807 9.50679,4.71368 19.06023,9.34093 28.71223,13.73002 14.30194,6.50337 28.76034,6.55669 43.05474,0 12.67513,-5.81793 25.17596,-12.03529 37.8325,-17.89715 13.53597,-6.26903 27.89152,-8.9406 42.62284,-10.20749 14.86906,-1.27874 30.04907,-0.77238 44.36504,-5.8103 5.49437,-1.93349 10.348,-5.78627 15.72162,-8.93706 z"
   id="path4"
   style="stroke-width:0.808349" />&#10;<path
   fill="#fafefe"
   opacity="1"
   stroke="none"
   d="m 510.72384,1131.4469 c 0,0 -0.25142,8e-4 -0.55128,0.1136 -0.45343,0.3568 -0.60706,0.6009 -0.76069,0.845 0,0 0.0816,0.01 -0.16988,0 -0.66015,0.2755 -1.06874,0.5549 -1.47732,0.8342 0,0 -0.3306,-8e-4 -0.67434,0.048 -0.62988,0.1293 -0.7884,0.3207 -0.81931,0.6232 -0.13294,0.025 -0.26587,0.049 -0.82481,0.1022 -0.81702,0.2783 -1.20804,0.5278 -1.59906,0.7773 -0.13515,0.01 -0.27032,0.012 -0.89243,0.037 -1.23447,0.2369 -1.98202,0.4548 -2.72954,0.6728 0,0 -0.26636,-0.038 -0.71453,0.038 -12.03937,0.094 -23.6306,0.1106 -35.22181,0.128 -0.0868,-13.2095 -0.20404,-26.4191 -0.25122,-39.6289 -0.0428,-11.9718 -0.009,-23.944 -0.009,-35.7171 0.48558,-0.356 0.69595,-0.645 0.90253,-0.6423 12.32222,0.1695 24.68963,-0.2438 36.9531,0.7262 12.00453,0.9495 14.68603,10.0205 14.43927,19.1185 -0.1923,7.0887 -3.41133,12.4458 -9.992,15.4702 14.42052,8.8244 17.0252,22.9289 6.22481,34.6509 -0.49654,0.5781 -0.66748,0.8272 -0.83839,1.0762 -2e-5,0 0.12465,0.012 -0.10997,0.01 -0.45111,0.237 -0.66762,0.4758 -0.88408,0.7147 m -18.56358,-12.1061 c 3.91556,-1.4732 5.78619,-4.5341 5.2247,-8.7057 -0.43531,-3.2339 -1.84217,-5.7803 -5.33595,-6.0537 -2.84984,-0.2228 -5.72934,-0.045 -8.63784,-0.045 0,5.2937 0,10.0891 0,15.3812 2.89762,-0.1702 5.49688,-0.3229 8.74909,-0.5765 m -8.8956,-42.7937 c 0,4.0189 0,8.0378 0,12.4732 2.38009,0 4.45375,0.015 6.52712,0 5.12244,-0.044 7.0077,-2.064 6.9463,-7.4162 -0.0515,-4.4851 -1.59885,-5.7631 -7.01347,-5.7365 -1.9758,0.01 -3.95129,0.085 -6.45995,0.6825 z"
   id="path5"
   style="stroke-width:0.808349" />&#10;<path
   fill="#fbfefe"
   opacity="1"
   stroke="none"
   d="m 826.89011,1134.8135 c 0,0 -0.37264,-0.016 -0.83916,0.01 -1.20723,0.2412 -1.94803,0.461 -2.68878,0.6809 0,0 -0.28529,-0.022 -0.74509,0.048 -12.07213,0.082 -23.68452,0.094 -35.29691,0.1053 -0.0628,-20.0325 -0.12879,-40.065 -0.18615,-60.0976 -0.0148,-5.1584 -0.002,-10.3167 -0.002,-16.0313 3.66369,0 7.06357,-0.063 10.46063,0.012 9.0094,0.1996 18.04432,0.099 27.01842,0.7999 8.30809,0.6493 12.93784,5.2138 14.35137,12.7495 1.86155,9.9242 -0.73116,16.7306 -7.9971,21.0211 -0.45332,0.2676 -0.86847,0.6035 -1.58059,1.1038 8.83285,3.6616 13.62026,9.9176 12.73878,19.8242 -0.78598,8.8336 -4.82923,15.3548 -13.5122,18.9242 -0.89911,0.3583 -1.31007,0.6062 -1.72098,0.8543 m -15.52227,-30.3001 c -1.65563,0 -3.3113,0 -4.94429,0 0,5.3658 0,10.0863 0,15.182 4.47208,-0.033 9.10484,1.3914 12.42559,-2.4901 2.18156,-2.5499 2.38928,-5.9302 0.98183,-9.2185 -1.54782,-3.6162 -4.61873,-3.56 -8.46313,-3.4734 m 0.73827,-15.4792 c 1.06076,-0.017 2.14382,0.1036 3.17809,-0.075 3.19775,-0.5516 5.19992,-3.7454 4.83206,-7.7538 -0.31748,-3.4588 -2.02014,-5.4691 -5.64873,-5.3706 -2.61681,0.071 -5.23693,0.014 -8.01555,0.014 0,4.548 0,8.6804 0,13.1865 1.78808,0 3.35168,0 5.65413,0 z"
   id="path6"
   style="stroke-width:0.808349" />&#10;<path
   fill="#fafefe"
   opacity="1"
   stroke="none"
   d="m 724.69047,1129.3164 c 0.89691,2.1142 1.64511,3.9562 2.61448,6.3426 -6.93984,0 -13.4065,0.1394 -19.85587,-0.1409 -1.04342,-0.045 -2.43904,-1.7749 -2.94124,-3.0333 -2.90342,-7.2749 -5.56702,-14.6502 -8.35587,-21.9738 -1.15,-3.0201 -3.13873,-4.9579 -7.18608,-4.9144 0,3.234 5e-4,6.4284 -1.4e-4,9.623 -9.3e-4,5.8653 -0.0272,11.7309 0.008,17.596 0.0129,2.1366 -0.26192,3.7451 -2.96793,3.6854 -5.1636,-0.1139 -10.3313,-0.033 -15.82484,-0.033 0,-25.6746 0,-51.0807 0,-77.6862 13.01998,0.8236 26.00023,1.0089 38.79875,2.6701 9.04315,1.1737 14.70896,8.6367 15.106,16.9394 0.6481,13.5526 -2.97465,19.9793 -13.91922,24.2343 7.40641,7.3853 9.88581,17.4622 14.52344,26.6909 m -27.89474,-37.9971 c 5.34148,-1.8569 7.66472,-5.7475 6.3702,-10.6676 -1.20674,-4.5866 -5.5416,-5.9334 -13.96378,-4.2865 0,4.9141 0,9.8457 0,15.0295 2.47614,0 4.69188,0 7.59358,-0.076 z"
   id="path7"
   style="stroke-width:0.808349" />&#10;<path
   fill="#fafefe"
   opacity="1"
   stroke="none"
   d="m 885.86668,1136.9915 c -22.73401,0.2984 -33.97604,-13.6053 -34.90441,-34.7253 -0.36816,-8.3749 0.55256,-16.5857 3.97401,-24.2854 5.53503,-12.456 15.0613,-18.7177 28.40191,-19.3735 22.72666,-1.1169 33.55715,14.8509 33.76496,34.1615 0.0653,6.0755 -0.23269,12.3119 -1.50312,18.2164 -3.72621,17.3186 -12.20746,24.5054 -29.73335,26.0063 m 8.00528,-57.8614 c -2.14465,-4.256 -5.73521,-5.9275 -10.17724,-5.5971 -4.37187,0.3251 -7.55074,2.8463 -8.88325,7.0416 -1.25436,3.9492 -2.58161,8.1461 -2.50905,12.2081 0.13196,7.3861 0.6755,14.8872 2.19898,22.0833 1.13151,5.3448 5.28558,7.191 11.14052,6.9189 4.42913,-0.2057 7.81737,-2.8287 8.93534,-7.8614 2.53277,-11.4015 2.74697,-22.8441 -0.7053,-34.7934 z"
   id="path8"
   style="stroke-width:0.808349" />&#10;<path
   fill="#fafefe"
   opacity="1"
   stroke="none"
   d="m 359.47118,1064.3673 c 7.97061,5.8531 10.96429,14.2653 11.75742,23.3801 0.82316,9.4601 0.8915,19.0256 -2.16588,28.2669 -4.28281,12.9452 -13.36055,19.6934 -26.542,19.6486 -8.50185,-0.029 -17.00372,-0.039 -25.50556,-0.068 -0.25165,-9e-4 -0.50288,-0.1265 -1.06102,-0.2763 0,-25.0505 0,-50.1807 0,-76.4881 12.23002,0.7612 24.34213,1.3734 36.42197,2.3899 2.34211,0.1969 4.55821,1.9726 7.09507,3.1469 m -9.56958,46.0475 c 0.26939,-7.0487 0.9167,-14.1086 0.72244,-21.1439 -0.31711,-11.4827 -5.09047,-15.1968 -15.57761,-12.8659 0,14.3439 0,28.6788 0,42.9679 10.95077,1.4344 12.63273,-1.289 14.85517,-8.9581 z"
   id="path9"
   style="stroke-width:0.808349" />&#10;<path
   fill="#fafefe"
   opacity="1"
   stroke="none"
   d="m 983.27068,1060.3168 c 0.19311,-0.2441 0.38613,-0.4882 1.14883,-0.7693 8.11075,-0.028 15.65959,-0.2363 23.19089,0.046 8.5597,0.3212 17.1368,0.9518 24.399,6.5422 0,0 0.01,-0.076 0.042,0.1386 0.2822,0.3707 0.5273,0.5274 0.7724,0.684 0,0 0.01,-0.086 0.026,0.1392 0.2647,0.4011 0.5101,0.5774 0.7556,0.7535 0,0 -0.013,-0.1203 0,0.1438 0.5298,0.925 1.0494,1.5858 1.5692,2.2467 0,0 0.019,-0.073 0.016,0.1711 0.2653,0.6324 0.5335,1.0209 0.8015,1.4095 0,0 0.027,-0.027 0.013,0.2385 0.2605,0.862 0.535,1.4587 0.8097,2.0555 0,0 -0.05,0.095 -0.034,0.4698 1.7895,9.2312 0.5271,17.3206 -5.6864,24.1589 0,0 0.082,0.01 -0.1619,0.049 -0.8917,0.5633 -1.5398,1.0861 -2.1878,1.609 0,0 0.056,0.026 -0.2326,0.048 -1.9092,0.756 -3.5303,1.4913 -4.4836,1.9236 2.6185,4.5442 5.3404,8.9153 7.7105,13.4794 2.3978,4.6177 4.4472,9.4262 6.6491,14.151 0,0 0.021,-0.048 0.026,0.2688 0.5756,1.8746 1.1463,3.4321 1.8389,5.3223 -7.6369,0 -14.6439,0 -21.651,0 0,0 -0.017,-0.037 -0.054,-0.3489 -2.972,-8.0035 -5.9067,-15.6952 -8.8415,-23.3868 0,0 -0.016,0.066 0,-0.1889 -0.2499,-0.663 -0.5111,-1.0709 -0.7722,-1.479 0,0 -0.01,0.067 -0.017,-0.204 -0.8033,-1.196 -1.6003,-2.1208 -2.3974,-3.0456 0,0 -10e-4,0.057 -0.1264,-0.2087 -1.2917,-0.6692 -2.458,-1.0728 -4.2935,-1.7078 0,10.5287 0,20.3409 0,30.5777 -6.53627,0 -12.57289,0 -18.60954,0 -0.0256,-0.1349 -0.0511,-0.2697 -0.0866,-0.9749 -0.0478,-25.1511 -0.0859,-49.7321 -0.12387,-74.3129 m 18.94511,29.3715 c 2.0074,3.5656 5.3086,1.7823 7.662,1.2604 2.2161,-0.4914 4.8898,-2.4811 5.8462,-4.5503 2.2631,-4.8959 -0.1787,-9.7618 -4.7333,-10.3531 -2.8092,-0.3647 -5.6999,-0.067 -8.8041,-0.067 0,4.6028 0,8.7911 0.029,13.7105 z"
   id="path10"
   style="stroke-width:0.808349" />&#10;<path
   fill="#fbfffe"
   opacity="1"
   stroke="none"
   d="m 583.10564,1126.7523 c -7.08218,8.9725 -16.65933,10.3344 -26.67583,10.1886 -3.27824,-0.047 -6.61813,-0.5033 -9.80652,-1.2956 -10.3685,-2.5765 -16.06925,-9.2344 -16.27115,-20.1908 -0.33929,-18.4132 -0.0929,-36.8379 -0.0929,-55.5967 6.28759,0 12.43671,0 18.88124,0 0.0692,1.1635 0.19954,2.3459 0.20071,3.5284 0.015,15.2864 -0.0133,30.5727 0.0448,45.8588 0.007,1.8705 0.21998,3.8104 0.73856,5.5953 1.49426,5.1441 4.72406,6.9265 10.53157,6.0826 3.83738,-0.5577 6.25746,-3.745 6.27022,-8.59 0.0419,-15.9687 0.0146,-31.9374 0.014,-47.9062 -10e-5,-1.4725 -5e-5,-2.945 -5e-5,-4.6638 6.38052,0 12.43563,0 19.11535,0 0,1.3909 6e-5,2.8243 0,4.2578 -8.7e-4,16.9241 0.16614,33.8514 -0.12806,50.7702 -0.0683,3.9259 -1.70938,7.8231 -2.82199,11.9614 z"
   id="path11"
   style="stroke-width:0.808349" />&#10;<path
   fill="#fbfffe"
   opacity="1"
   stroke="none"
   d="m 655.46261,1076.7065 c -0.002,13.1015 -7.8e-4,25.7934 -0.007,38.4855 -0.006,9.8078 -4.20504,16.2336 -13.29888,19.4383 -9.51956,3.3546 -19.26703,3.4927 -28.78513,0.1198 -7.89781,-2.7989 -13.00775,-8.3674 -13.05099,-17.4698 -0.0904,-19.0777 -0.0274,-38.1559 -0.0274,-57.4986 6.07687,0 11.9881,0 18.54176,0 0,1.5325 -3.4e-4,3.1022 10e-5,4.6721 0.005,14.739 -0.0222,29.4783 0.0466,44.2169 0.0101,2.1536 0.25933,4.3608 0.77308,6.4459 1.0702,4.3433 4.45562,6.2169 10.00244,5.8293 3.69129,-0.2579 6.14094,-2.6229 6.6342,-6.8159 0.3645,-3.0985 0.50255,-6.2409 0.51317,-9.3647 0.0503,-14.864 0.0225,-29.7283 0.0225,-44.9242 6.17923,0 12.08451,0 18.63614,0 0,5.3942 0,10.925 0,16.8654 z"
   id="path12"
   style="stroke-width:0.808349" />&#10;<path
   fill="#fbfffe"
   opacity="1"
   stroke="none"
   d="m 383.64484,1135.6756 c -0.0642,-22.0811 -0.12949,-44.162 -0.19146,-66.243 -0.008,-3.1161 -9.3e-4,-6.2323 -9.3e-4,-9.6347 14.38847,0 28.51128,0 43.04441,0 -0.50354,5.3032 -0.99684,10.4987 -1.52652,16.0773 -7.5456,0 -14.7882,0 -22.21407,0 0,4.3184 0,8.2228 0,12.6915 5.91926,0 11.80592,0 17.92581,0 0,5.2597 0,9.9608 0,15.0305 -5.89034,0 -11.67501,0 -17.78927,0 0,5.4497 0,10.5462 0,16.1846 8.21645,0 16.49898,0 24.98991,0 0,5.5301 0,10.5306 -0.63687,15.7022 -14.95817,0.178 -29.27945,0.1848 -43.60075,0.1916 z"
   id="path13"
   style="stroke-width:0.808349" />&#10;<path
   fill="#fbfffe"
   opacity="1"
   stroke="none"
   d="m 966.56129,1135.6576 c -12.58632,4e-4 -24.77917,4e-4 -37.21027,4e-4 0,-25.427 0,-50.4692 0,-75.8224 14.13299,0 28.26037,0 42.80013,0 -0.5066,5.2693 -1.00598,10.4623 -1.53078,15.9205 -7.43831,0 -14.58154,0 -22.05626,0 0,4.2879 0,8.2965 0,12.8748 5.8074,0 11.69886,0 17.80145,0 0,5.2631 0,9.965 0,15.0353 -5.93616,0 -11.72765,0 -17.82293,0 0,5.4531 0,10.5466 0,16.0506 8.24265,0 16.43383,0 24.92262,0 0,5.3683 0,10.3438 0,15.9403 -2.11148,0 -4.311,0 -6.90396,5e-4 z"
   id="path14"
   style="stroke-width:0.808349" />&#10;<path
   fill="#fafefe"
   opacity="1"
   stroke="none"
   d="m 762.36488,1135.4399 c -6.13594,0.4966 -12.27187,0.9933 -18.94951,1.5339 0,-20.6902 0,-40.6408 0,-61.0045 -5.86288,0 -11.23912,0 -16.93318,0 0,-5.6115 0,-10.8096 0,-16.2292 18.29986,0 36.43743,0 55.21594,0 -0.65881,5.2898 -1.30057,10.4423 -2.01191,16.1538 -4.73448,0 -9.47373,0 -14.92817,0 -1.2846,1.0686 -2.34521,2.1371 -2.35042,3.211 -0.091,18.7787 -0.0529,37.558 -0.0427,56.3372 z"
   id="path15"
   style="stroke-width:0.808349" />&#10;<path
   fill="#298a81"
   opacity="1"
   stroke="none"
   d="m 983.59185,1135.8895 c 5.92601,-0.2849 11.96272,-0.2849 18.49895,-0.2849 0,-10.2368 0,-20.0489 0,-30.5777 1.8355,0.635 3.0019,1.0387 4.3202,1.6998 -2.4892,0.1184 -3.2407,1.5863 -3.2133,4.071 0.08,7.2148 -0.078,14.4338 0.082,21.6458 0.074,3.3287 -1.2126,4.9132 -4.38638,4.7396 -5.06673,-0.2773 -10.12768,-0.6667 -15.30157,-1.2936 z"
   id="path16"
   style="stroke-width:0.808349" />&#10;<path
   fill="#298a81"
   opacity="1"
   stroke="none"
   d="m 983.10629,1060.6099 c 0.20237,24.2877 0.24045,48.8687 0.22457,73.8245 -0.28436,-0.8092 -0.71363,-1.993 -0.71596,-3.1776 -0.0446,-22.5107 -0.0435,-45.0216 -0.0279,-67.5324 5.9e-4,-0.9406 0.23148,-1.881 0.51935,-3.1145 z"
   id="path17"
   style="stroke-width:0.808349" />&#10;<path
   fill="#298a81"
   opacity="1"
   stroke="none"
   d="m 1031.9433,1065.8596 c -7.1961,-5.3137 -15.7732,-5.9443 -24.3329,-6.2655 -7.5313,-0.2829 -15.08014,-0.075 -22.9778,-0.1472 1.98537,-0.2733 4.32611,-0.6426 6.66964,-0.6631 7.92894,-0.07 15.89526,-0.4829 23.77466,0.1659 4.7446,0.3909 9.3904,2.3947 13.9983,3.9335 1.1025,0.3682 1.8767,1.772 2.8681,2.9764 z"
   id="path18"
   style="stroke-width:0.808349" />&#10;<path
   fill="#298a81"
   opacity="1"
   stroke="none"
   d="m 1038.3876,1129.6818 c -2.2065,-4.4011 -4.2558,-9.2096 -6.6536,-13.8273 -2.3701,-4.5641 -5.0921,-8.9352 -7.7105,-13.4794 0.9533,-0.4323 2.5744,-1.1676 4.4834,-1.9551 -0.4244,1.0285 -1.1366,2.1094 -1.345,2.4256 3.8189,9.0155 7.5245,17.764 11.2257,26.8362 z"
   id="path19"
   style="stroke-width:0.808349" />&#10;<path
   fill="#298a81"
   opacity="1"
   stroke="none"
   d="m 762.55687,1135.1935 c -0.20213,-18.5328 -0.24025,-37.3121 -0.14924,-56.0907 0.006,-1.074 1.06582,-2.1425 1.97792,-3.1531 -0.15722,1.809 -1.07936,3.5546 -1.09134,5.3069 -0.11155,16.2923 -0.053,32.5858 -0.0876,48.879 -0.004,1.6041 -0.29819,3.2076 -0.64974,5.0579 z"
   id="path20"
   style="stroke-width:0.808349" />&#10;<path
   fill="#298a81"
   opacity="1"
   stroke="none"
   d="m 1018.6998,1135.885 c 6.9044,-0.2884 13.9114,-0.2884 21.5483,-0.2884 -0.6926,-1.8902 -1.2633,-3.4477 -1.8647,-5.3215 0.9225,1.471 1.8755,3.2579 2.8287,5.045 -1.7445,0.5321 -3.4664,1.4043 -5.2382,1.5292 -4.3618,0.3073 -8.7473,0.3592 -13.1216,0.3205 -1.3527,-0.012 -2.7001,-0.6467 -4.1525,-1.2848 z"
   id="path21"
   style="stroke-width:0.808349" />&#10;<path
   fill="#298a81"
   opacity="1"
   stroke="none"
   d="m 1031.3777,1098.7374 c 5.9251,-6.8303 7.1876,-14.9198 5.443,-24.1224 0.3436,-0.108 0.8152,0.06 0.9495,0.378 2.3698,5.6157 -0.1198,18.6897 -4.3716,22.8775 -0.4401,0.4335 -1.1486,0.5796 -2.0209,0.8669 z"
   id="path22"
   style="stroke-width:0.808349" />&#10;<path
   fill="#298a81"
   opacity="1"
   stroke="none"
   d="m 383.88389,1135.8792 c 14.08225,-0.2104 28.40353,-0.2172 43.09993,-0.1622 -0.63707,0.3165 -1.6484,0.7888 -2.66154,0.7929 -12.62684,0.051 -25.25397,0.043 -37.88093,0.016 -0.7731,0 -1.54563,-0.2889 -2.55746,-0.6469 z"
   id="path23"
   style="stroke-width:0.808349" />&#10;<path
   fill="#298a81"
   opacity="1"
   stroke="none"
   d="m 1009.7,1112.1924 c 2.9367,7.3601 5.8714,15.0518 8.8253,23.0469 -0.4043,0.01 -1.0751,-0.193 -1.2145,-0.5916 -2.5755,-7.3607 -5.0875,-14.7446 -7.6108,-22.4553 z"
   id="path24"
   style="stroke-width:0.808349" />&#10;<path
   fill="#298a81"
   opacity="1"
   stroke="none"
   d="m 787.43284,1135.9008 c 11.49972,-0.2594 23.11211,-0.2711 35.08034,-0.252 -0.90646,0.3238 -2.16393,0.8454 -3.43168,0.8733 -9.94196,0.2178 -19.88562,0.3556 -29.82937,0.4552 -0.56619,0.01 -1.13759,-0.5399 -1.81929,-1.0765 z"
   id="path25"
   style="stroke-width:0.808349" />&#10;<path
   fill="#298a81"
   opacity="1"
   stroke="none"
   d="m 464.52181,1135.8665 c 11.35824,-0.2155 22.94947,-0.2329 34.89683,-0.2255 -0.63774,0.3144 -1.63018,0.8495 -2.62577,0.8559 -10.04406,0.063 -20.08868,0.048 -30.13303,0.021 -0.63541,0 -1.27007,-0.2952 -2.13803,-0.651 z"
   id="path26"
   style="stroke-width:0.808349" />&#10;<path
   fill="#298a81"
   opacity="1"
   stroke="none"
   d="m 1006.5368,1107.2348 c 0.7709,0.6334 1.5679,1.5582 2.4044,2.7568 -0.7665,-0.6392 -1.5725,-1.5522 -2.4044,-2.7568 z"
   id="path27"
   style="stroke-width:0.808349" />&#10;<path
   fill="#298a81"
   opacity="1"
   stroke="none"
   d="m 1029.0159,1100.3983 c 0.3717,-0.5174 1.0199,-1.0402 1.9094,-1.6457 -0.3833,0.4916 -1.0083,1.0659 -1.9094,1.6457 z"
   id="path28"
   style="stroke-width:0.808349" />&#10;<path
   fill="#298a81"
   opacity="1"
   stroke="none"
   d="m 1035.1547,1069.9605 c -0.5037,-0.3793 -1.0233,-1.0401 -1.6111,-1.9547 0.4861,0.3884 1.0405,1.0307 1.6111,1.9547 z"
   id="path29"
   style="stroke-width:0.808349" />&#10;<path
   fill="#298a81"
   opacity="1"
   stroke="none"
   d="m 1036.7996,1073.8647 c -0.2641,-0.3448 -0.5387,-0.9415 -0.8168,-1.7985 0.2665,0.3417 0.5364,0.9441 0.8168,1.7985 z"
   id="path30"
   style="stroke-width:0.808349" />&#10;<path
   fill="#298a81"
   opacity="1"
   stroke="none"
   d="m 500.52252,1135.5402 c 0.45018,-0.2558 1.19773,-0.4737 2.24176,-0.6385 -0.4505,0.2609 -1.19746,0.4686 -2.24176,0.6385 z"
   id="path31"
   style="stroke-width:0.808349" />&#10;<path
   fill="#298a81"
   opacity="1"
   stroke="none"
   d="m 823.65637,1135.5404 c 0.44655,-0.2607 1.18735,-0.4805 2.22323,-0.6462 -0.44626,0.2651 -1.18765,0.4761 -2.22323,0.6462 z"
   id="path32"
   style="stroke-width:0.808349" />&#10;<path
   fill="#298a81"
   opacity="1"
   stroke="none"
   d="m 1008.9429,1110.4457 c 0.2432,0.1554 0.5044,0.5633 0.7865,1.2343 -0.2421,-0.1519 -0.5055,-0.5669 -0.7865,-1.2343 z"
   id="path33"
   style="stroke-width:0.808349" />&#10;<path
   fill="#298a81"
   opacity="1"
   stroke="none"
   d="m 1035.9505,1071.5816 c -0.2307,-0.1475 -0.4988,-0.536 -0.8,-1.1756 0.2322,0.1442 0.4974,0.5392 0.8,1.1756 z"
   id="path34"
   style="stroke-width:0.808349" />&#10;<path
   fill="#298a81"
   opacity="1"
   stroke="none"
   d="m 508.01903,1133.2161 c 0.15422,-0.2539 0.56281,-0.5333 1.22608,-0.8506 -0.15412,0.2499 -0.56289,0.5376 -1.22608,0.8506 z"
   id="path35"
   style="stroke-width:0.808349" />&#10;<path
   fill="#298a81"
   opacity="1"
   stroke="none"
   d="m 504.07546,1134.787 c 0.16271,-0.2438 0.55373,-0.4933 1.18336,-0.6928 -0.15931,0.2625 -0.5572,0.4748 -1.18336,0.6928 z"
   id="path36"
   style="stroke-width:0.808349" />&#10;<path
   fill="#298a81"
   opacity="1"
   stroke="none"
   d="m 827.12977,1134.8104 c 0.17125,-0.245 0.58221,-0.4928 1.24126,-0.7038 -0.16847,0.2584 -0.58503,0.4795 -1.24126,0.7038 z"
   id="path37"
   style="stroke-width:0.808349" />&#10;<path
   fill="#fdfffe"
   opacity="1"
   stroke="none"
   d="m 594.41574,737.31454 c 0.0258,0.006 -0.20942,0.10943 -0.20942,0.10943 0,0 0.25101,-0.0322 0.21531,-0.10083 -0.0357,-0.0686 -0.0316,-0.0147 -0.006,-0.009 z"
   id="path38"
   style="stroke-width:0.808349" />&#10;<path
   fill="#298a81"
   opacity="1"
   stroke="none"
   d="m 506.43265,1133.8613 c -0.13072,-0.2507 0.0278,-0.442 0.50892,-0.4973 0.0439,0.2053 -0.13684,0.3455 -0.50892,0.4973 z"
   id="path39"
   style="stroke-width:0.808349" />&#10;<path
   fill="#298a81"
   opacity="1"
   stroke="none"
   d="m 509.58896,1132.316 c -0.0235,-0.1546 0.13017,-0.3987 0.50314,-0.6564 0.0805,0.2222 -0.10137,0.4156 -0.50314,0.6564 z"
   id="path40"
   style="stroke-width:0.808349" />&#10;<path
   fill="#298a81"
   opacity="1"
   stroke="none"
   d="m 510.94382,1131.3573 c -0.004,-0.1493 0.21298,-0.3881 0.66942,-0.6892 0.0102,0.1584 -0.21962,0.3789 -0.66942,0.6892 z"
   id="path41"
   style="stroke-width:0.808349" />&#10;<path
   fill="#298a81"
   opacity="1"
   stroke="none"
   d="m 511.90793,1130.6083 c -0.0192,-0.1353 0.1518,-0.3843 0.53557,-0.7179 0.0267,0.1449 -0.1594,0.3744 -0.53557,0.7179 z"
   id="path42"
   style="stroke-width:0.808349" />&#10;<path
   fill="#298a81"
   opacity="1"
   stroke="none"
   d="m 1032.7177,1066.7694 c -0.1395,0.033 -0.3847,-0.1238 -0.7035,-0.4961 0.1501,-0.042 0.3739,0.1325 0.7035,0.4961 z"
   id="path43"
   style="stroke-width:0.808349" />&#10;<path
   fill="#298a81"
   opacity="1"
   stroke="none"
   d="m 1033.4939,1067.6594 c -0.1343,0.016 -0.3798,-0.1602 -0.6859,-0.5657 0.151,-0.028 0.3628,0.1726 0.6859,0.5657 z"
   id="path44"
   style="stroke-width:0.808349" />&#10;<path
   fill="#07a69a"
   opacity="1"
   stroke="none"
   d="m 719.11878,784.89142 c -2.28166,1.03754 -4.39213,1.75012 -6.40851,2.67817 -2.42414,1.11572 -4.76818,2.41486 -8.12715,4.13723 -5.80396,0 -13.09258,-0.14327 -20.37142,0.0692 -2.99457,0.0875 -4.19425,-0.97388 -3.97236,-3.93896 0.63904,-8.53821 1.72639,-17.07403 1.77469,-25.61589 0.0408,-7.25537 3.4584,-11.16919 9.31436,-14.22144 3.12774,-1.63019 5.86078,-4.25221 8.40285,-6.81285 2.07706,-2.09216 3.70162,-1.65628 5.87718,-0.40108 6.70461,3.86812 8.45515,10.89928 10.404,17.559 1.8911,6.4624 3.04808,13.17391 4.15977,19.84063 0.34172,2.04952 -0.52647,4.31171 -1.05341,6.70601 z"
   id="path45"
   style="stroke-width:0.808349" />&#10;<path
   fill="#0ea296"
   opacity="1"
   stroke="none"
   d="m 491.83378,1119.3912 c -2.92574,0.2032 -5.525,0.3559 -8.42262,0.526 0,-5.292 0,-10.0874 0,-15.3811 2.9085,0 5.788,-0.1775 8.63784,0.045 3.49378,0.2733 4.90064,2.8198 5.33595,6.0536 0.56149,4.1717 -1.30914,7.2326 -5.55117,8.7562 z"
   id="path46"
   style="stroke-width:0.808349" />&#10;<path
   fill="#0ea296"
   opacity="1"
   stroke="none"
   d="m 483.53116,1076.2712 c 2.24215,-0.3214 4.21764,-0.397 6.19345,-0.4067 5.41461,-0.026 6.96199,1.2514 7.01346,5.7366 0.0614,5.3522 -1.82386,7.3719 -6.9463,7.4162 -2.07337,0.018 -4.14703,0 -6.52712,0 0,-4.4355 0,-8.4543 0.26651,-12.7492 z"
   id="path47"
   style="stroke-width:0.808349" />&#10;<path
   fill="#0ea296"
   opacity="1"
   stroke="none"
   d="m 811.73775,1104.5142 c 3.47448,-0.087 6.54539,-0.1435 8.09322,3.4727 1.40745,3.2883 1.19973,6.6685 -0.98183,9.2184 -3.32075,3.8815 -7.95351,2.4569 -12.4256,2.4901 0,-5.0957 0,-9.8161 0,-15.182 1.633,0 3.28867,0 5.31421,8e-4 z"
   id="path48"
   style="stroke-width:0.808349" />&#10;<path
   fill="#0ea296"
   opacity="1"
   stroke="none"
   d="m 811.73668,1089.0349 c -1.93302,7e-4 -3.49662,7e-4 -5.2847,7e-4 0,-4.5061 0,-8.6385 0,-13.1866 2.77861,0 5.39874,0.058 8.01555,-0.014 3.62859,-0.099 5.33125,1.9117 5.64873,5.3706 0.36786,4.0084 -1.63431,7.2021 -4.83206,7.7538 -1.03427,0.1782 -2.11733,0.058 -3.54752,0.076 z"
   id="path49"
   style="stroke-width:0.808349" />&#10;<path
   fill="#0ea296"
   opacity="1"
   stroke="none"
   d="m 696.45279,1091.357 c -2.55876,0.038 -4.7745,0.038 -7.25064,0.038 0,-5.1837 0,-10.1153 0,-15.0294 8.42218,-1.6469 12.75704,-0.3001 13.96378,4.2865 1.29452,4.9201 -1.02872,8.8107 -6.71314,10.7053 z"
   id="path50"
   style="stroke-width:0.808349" />&#10;<path
   fill="#09a69a"
   opacity="1"
   stroke="none"
   d="m 893.96632,1079.4311 c 3.35791,11.6483 3.14371,23.0909 0.61094,34.4924 -1.11797,5.0327 -4.50621,7.6557 -8.93534,7.8614 -5.85494,0.2721 -10.00901,-1.5741 -11.14052,-6.9189 -1.52348,-7.1961 -2.06702,-14.6972 -2.19898,-22.0833 -0.0726,-4.062 1.25469,-8.2589 2.50905,-12.2081 1.33251,-4.1953 4.51138,-6.7165 8.88325,-7.0416 4.44203,-0.3304 8.03259,1.3411 10.2716,5.8981 z"
   id="path51"
   style="stroke-width:0.808349" />&#10;<path
   fill="#09a69a"
   opacity="1"
   stroke="none"
   d="m 349.82503,1110.7455 c -2.14587,7.3383 -3.82783,10.0618 -14.7786,8.6274 0,-14.2891 0,-28.624 0,-42.9679 10.48714,-2.3309 15.2605,1.3832 15.57761,12.8659 0.19426,7.0353 -0.45305,14.0952 -0.79901,21.4746 z"
   id="path52"
   style="stroke-width:0.808349" />&#10;<path
   fill="#0ea296"
   opacity="1"
   stroke="none"
   d="m 1002.2012,1089.3228 c -0.015,-4.5539 -0.015,-8.7421 -0.015,-13.345 3.1041,0 5.9949,-0.2972 8.8041,0.067 4.5546,0.5913 6.9964,5.4572 4.7334,10.3531 -0.9564,2.0692 -3.6302,4.059 -5.8463,4.5503 -2.3534,0.5219 -5.6546,2.3053 -7.6765,-1.6259 z"
   id="path53"
   style="stroke-width:0.808349" />&#10;<rect
   style="fill:#01a89b;stroke-width:0.808349"
   id="rect53"
   width="1352.5319"
   height="160.48885"
   x="8.6970968"
   y="62.973232" /><rect
   style="fill:#01a89b"
   id="rect54"
   width="215.86717"
   height="1750.1846"
   x="-177.67528"
   y="-250.73801" /><rect
   style="fill:#01a89b"
   id="rect55"
   width="1721.9558"
   height="245.75647"
   x="-179.33578"
   y="1341.6974" /><rect
   style="fill:#01a89b"
   id="rect56"
   width="242.43546"
   height="1751.8452"
   x="1301.8451"
   y="-247.41696"
   ry="0" /><rect
   style="fill:#01a89b"
   id="rect57"
   width="1723.6162"
   height="212.54613"
   x="-177.67528"
   y="-254.05905" /><rect
   style="fill:#01a89b"
   id="rect58"
   width="255.96744"
   height="1491.1864"
   x="-39.921528"
   y="-63.404778" /><rect
   style="fill:#01a89b"
   id="rect59"
   width="1676.7041"
   height="286.49573"
   x="-133.85454"
   y="1195.2975" /><rect
   style="fill:#01a89b"
   id="rect60"
   width="216.04591"
   height="1688.4458"
   x="1164.7693"
   y="-138.55118" /><rect
   style="fill:#01a89b"
   id="rect61"
   width="1408.9951"
   height="176.12439"
   x="-25.831575"
   y="-89.236351" /></svg>
