<svg version="1.1" id="Layer_1" xmlns="http://www.w3.org/2000/svg" xmlns:xlink="http://www.w3.org/1999/xlink" x="0px" y="0px"
	 width="100%" viewBox="0 0 555 459" enable-background="new 0 0 555 459" xml:space="preserve">
<path fill="#01A89B" opacity="1.000000" stroke="none" 
	d="
M298.000000,460.000000 
	C198.666687,460.000000 99.833382,460.000000 1.000053,460.000000 
	C1.000035,307.000061 1.000035,154.000122 1.000018,1.000135 
	C185.999893,1.000090 370.999786,1.000090 555.999756,1.000045 
	C555.999878,153.999863 555.999878,306.999725 555.999939,459.999786 
	C470.166656,460.000000 384.333344,460.000000 298.000000,460.000000 
M215.582993,331.375549 
	C215.582993,331.375549 215.896362,331.283813 215.896362,331.283813 
	C215.896362,331.283813 215.645905,331.513184 216.198090,330.670776 
	C215.476028,316.488251 219.809982,309.676971 230.948364,306.582977 
	C233.317062,312.640442 235.658661,318.628632 238.535141,325.984680 
	C240.449890,321.285583 242.468475,321.563568 244.280151,323.840912 
	C248.062134,328.595032 251.687607,333.475372 255.294281,338.365112 
	C255.734833,338.962402 255.871613,339.954132 255.800842,340.731323 
	C255.199631,347.334229 254.571854,353.935760 253.838699,360.525116 
	C253.430099,364.197540 251.973892,367.019470 247.917068,368.097717 
	C246.170334,368.561951 244.703094,370.077759 244.147263,370.439697 
	C253.270844,374.919434 262.463348,379.433014 271.655853,383.946625 
	C271.983795,383.461029 272.311737,382.975433 272.639679,382.489838 
	C269.346954,379.974823 266.054199,377.459808 262.761475,374.944824 
	C262.903503,374.514221 263.045532,374.083649 263.187531,373.653046 
	C270.415680,374.616699 277.643829,375.580353 284.871979,376.543976 
	C285.003937,376.153168 285.135895,375.762360 285.267853,375.371552 
	C281.431305,373.755920 277.594757,372.140259 273.547363,370.435791 
	C277.754150,368.316498 282.093536,368.462860 286.213257,366.513367 
	C290.831177,364.328156 297.114380,365.460205 302.451111,368.527039 
	C306.910248,371.089508 312.007538,372.541534 316.822205,374.485291 
	C317.071777,373.922821 317.321320,373.360352 317.570862,372.797882 
	C314.000092,370.752289 310.429291,368.706696 306.858521,366.661102 
	C306.937622,366.252625 307.016754,365.844116 307.095856,365.435638 
	C314.532867,365.435638 321.969849,365.435638 329.406860,365.435638 
	C329.475647,364.837494 329.544403,364.239349 329.613190,363.641235 
	C326.338867,362.857544 323.064545,362.073883 319.213837,361.152252 
	C321.586243,359.996735 323.311554,359.156433 325.036865,358.316101 
	C324.843506,357.687653 324.650116,357.059174 324.456757,356.430725 
	C319.633423,357.503693 314.803680,358.548767 309.988495,359.657135 
	C304.744415,360.864197 300.994202,359.263153 299.223358,354.252228 
	C297.749542,350.081726 297.242310,345.578033 295.906036,341.348602 
	C293.630005,334.144623 295.031311,327.739502 299.142456,321.602173 
	C301.905334,317.477570 304.087280,312.942993 307.047760,308.979218 
	C308.853546,306.561432 311.380768,304.394135 314.038696,302.953156 
	C323.445740,297.853241 333.025055,293.067657 342.582794,288.249695 
	C356.952942,281.005920 365.184174,269.298950 368.054901,253.612823 
	C369.091675,247.947891 370.199463,242.295944 371.439606,235.771286 
	C376.642883,242.002243 374.410645,248.522797 375.164185,255.879181 
	C376.416687,253.208328 377.559814,251.716660 377.798492,250.092102 
	C378.664398,244.199310 379.585236,238.276917 379.833252,232.338455 
	C380.446014,217.664871 377.767395,203.347290 374.511108,189.116028 
	C373.098633,182.942886 371.889587,176.723190 370.567688,170.427353 
	C371.886353,170.164566 372.350647,170.007401 372.820679,169.987732 
	C388.138580,169.347305 392.898254,160.758316 385.241730,147.544785 
	C384.746613,146.690338 384.115112,145.911484 383.657959,145.039322 
	C382.917145,143.625931 382.268341,142.164322 381.387817,140.318726 
	C383.111969,140.177811 384.241516,140.159302 385.343292,139.974899 
	C386.465637,139.787048 387.560638,139.435974 390.089813,138.797134 
	C369.309174,127.132126 367.663818,112.957542 382.690979,96.325470 
	C372.044861,94.757072 365.391388,101.454117 357.544342,105.335426 
	C356.665222,104.103111 356.017303,102.921333 355.117157,101.980980 
	C351.461212,98.161766 347.866119,94.262100 343.933685,90.744087 
	C342.840118,89.765755 340.431885,89.385475 339.066833,89.899490 
	C338.208344,90.222771 338.014221,92.699028 337.805267,94.247643 
	C337.602417,95.750977 337.761261,97.303108 337.761261,98.890366 
	C336.913849,98.794037 336.585083,98.787476 336.270935,98.716385 
	C330.820984,97.482872 325.413971,95.950111 319.900330,95.171272 
	C318.143555,94.923111 315.598389,96.254128 314.411041,97.688126 
	C313.829376,98.390610 315.317719,101.110916 316.262024,102.681870 
	C317.094666,104.067154 318.473389,105.124229 319.662445,106.380638 
	C312.398712,112.144814 301.580994,113.221123 297.914612,123.991547 
	C302.218018,123.622910 306.103699,123.290054 309.989380,122.957191 
	C310.110077,123.412292 310.230743,123.867386 310.351440,124.322487 
	C306.867523,126.722221 303.264618,128.971313 299.951752,131.587677 
	C298.385071,132.824951 297.373718,134.765320 296.110748,136.387146 
	C298.048767,136.925308 299.962616,137.588196 301.931091,137.969086 
	C304.229736,138.413879 306.576019,138.612503 309.439484,138.988556 
	C306.601593,142.247086 304.498474,144.380661 302.757477,146.777267 
	C301.860382,148.012146 301.607666,149.715088 301.063782,151.206528 
	C302.567200,151.535461 304.114746,152.274109 305.565948,152.117874 
	C310.253815,151.613190 314.906250,150.779404 319.944122,150.016113 
	C319.944122,151.628342 320.192993,152.983688 319.907013,154.214813 
	C315.254852,174.243591 310.660339,194.287994 305.672943,214.233887 
	C305.043884,216.749847 302.671204,219.336746 300.407440,220.834106 
	C295.313965,224.203171 289.809021,226.959381 284.421539,229.872559 
	C276.953766,233.910599 269.440125,237.863739 261.378845,242.155228 
	C259.861847,226.813919 258.433075,212.352188 257.001465,197.890747 
	C255.875854,186.520279 254.053833,175.381851 244.150269,167.842239 
	C239.542755,164.334518 234.790833,160.929382 229.765320,158.074554 
	C216.134216,150.331131 201.085205,149.808167 185.913773,150.008011 
	C168.345795,150.239410 152.437149,159.508667 144.309174,173.757324 
	C153.342514,171.253189 163.121872,168.089920 173.114182,165.897049 
	C183.498795,163.618103 193.863800,165.361115 204.154938,167.867966 
	C202.733063,169.037750 201.299026,169.852402 199.765945,170.141159 
	C189.076569,172.154678 178.430954,174.613770 167.647705,175.863770 
	C152.874542,177.576324 143.090881,185.898651 135.644684,198.300903 
	C141.385330,196.056030 147.125992,193.811157 152.866638,191.566284 
	C153.284210,192.083862 153.701782,192.601440 154.119354,193.119019 
	C148.194901,203.980270 142.270447,214.841522 136.345978,225.702759 
	C148.549835,217.768066 162.306885,215.413513 175.980499,212.257645 
	C175.491486,214.112793 174.689850,215.461334 173.718292,216.673691 
	C170.510040,220.677063 167.257965,224.645844 163.982040,228.594131 
	C163.154495,229.591507 162.316833,230.690994 161.243942,231.357285 
	C150.065765,238.299484 145.880203,246.485199 146.592621,260.194885 
	C152.826553,255.913986 159.095108,251.609314 165.363663,247.304657 
	C161.746216,255.319977 156.888351,262.091736 153.970123,269.615814 
	C150.846725,277.668884 154.125427,285.770355 156.596039,294.136169 
	C158.293945,290.899841 159.597992,288.414215 160.877121,285.976074 
	C164.551529,294.019562 167.970016,301.502808 171.388504,308.986053 
	C171.954605,308.788239 172.520691,308.590393 173.086792,308.392578 
	C173.086792,305.964722 172.792252,303.489624 173.171860,301.122650 
	C173.532013,298.876984 174.598175,296.744598 175.560349,293.966125 
	C181.939102,304.796539 187.695465,314.570221 193.859344,325.035767 
	C195.510117,320.241638 196.642700,316.952423 198.104828,312.706146 
	C204.796585,319.858856 210.280151,325.720154 215.582993,331.375549 
z"/>
<path fill="#FCFFFE" opacity="1.000000" stroke="none" 
	d="
M215.763733,331.581451 
	C210.280151,325.720154 204.796585,319.858856 198.104828,312.706146 
	C196.642700,316.952423 195.510117,320.241638 193.859344,325.035767 
	C187.695465,314.570221 181.939102,304.796539 175.560349,293.966125 
	C174.598175,296.744598 173.532013,298.876984 173.171860,301.122650 
	C172.792252,303.489624 173.086792,305.964722 173.086792,308.392578 
	C172.520691,308.590393 171.954605,308.788239 171.388504,308.986053 
	C167.970016,301.502808 164.551529,294.019562 160.877121,285.976074 
	C159.597992,288.414215 158.293945,290.899841 156.596039,294.136169 
	C154.125427,285.770355 150.846725,277.668884 153.970123,269.615814 
	C156.888351,262.091736 161.746216,255.319977 165.363663,247.304657 
	C159.095108,251.609314 152.826553,255.913986 146.592621,260.194885 
	C145.880203,246.485199 150.065765,238.299484 161.243942,231.357285 
	C162.316833,230.690994 163.154495,229.591507 163.982040,228.594131 
	C167.257965,224.645844 170.510040,220.677063 173.718292,216.673691 
	C174.689850,215.461334 175.491486,214.112793 175.980499,212.257645 
	C162.306885,215.413513 148.549835,217.768066 136.345978,225.702759 
	C142.270447,214.841522 148.194901,203.980270 154.119354,193.119019 
	C153.701782,192.601440 153.284210,192.083862 152.866638,191.566284 
	C147.125992,193.811157 141.385330,196.056030 135.644684,198.300903 
	C143.090881,185.898651 152.874542,177.576324 167.647705,175.863770 
	C178.430954,174.613770 189.076569,172.154678 199.765945,170.141159 
	C201.299026,169.852402 202.733063,169.037750 204.154938,167.867966 
	C193.863800,165.361115 183.498795,163.618103 173.114182,165.897049 
	C163.121872,168.089920 153.342514,171.253189 144.309174,173.757324 
	C152.437149,159.508667 168.345795,150.239410 185.913773,150.008011 
	C201.085205,149.808167 216.134216,150.331131 229.765320,158.074554 
	C234.790833,160.929382 239.542755,164.334518 244.150269,167.842239 
	C254.053833,175.381851 255.875854,186.520279 257.001465,197.890747 
	C258.433075,212.352188 259.861847,226.813919 261.378845,242.155228 
	C269.440125,237.863739 276.953766,233.910599 284.421539,229.872559 
	C289.809021,226.959381 295.313965,224.203171 300.407440,220.834106 
	C302.671204,219.336746 305.043884,216.749847 305.672943,214.233887 
	C310.660339,194.287994 315.254852,174.243591 319.907013,154.214813 
	C320.192993,152.983688 319.944122,151.628342 319.944122,150.016113 
	C314.906250,150.779404 310.253815,151.613190 305.565948,152.117874 
	C304.114746,152.274109 302.567200,151.535461 301.063782,151.206528 
	C301.607666,149.715088 301.860382,148.012146 302.757477,146.777267 
	C304.498474,144.380661 306.601593,142.247086 309.439484,138.988556 
	C306.576019,138.612503 304.229736,138.413879 301.931091,137.969086 
	C299.962616,137.588196 298.048767,136.925308 296.110748,136.387146 
	C297.373718,134.765320 298.385071,132.824951 299.951752,131.587677 
	C303.264618,128.971313 306.867523,126.722221 310.351440,124.322487 
	C310.230743,123.867386 310.110077,123.412292 309.989380,122.957191 
	C306.103699,123.290054 302.218018,123.622910 297.914612,123.991547 
	C301.580994,113.221123 312.398712,112.144814 319.662445,106.380638 
	C318.473389,105.124229 317.094666,104.067154 316.262024,102.681870 
	C315.317719,101.110916 313.829376,98.390610 314.411041,97.688126 
	C315.598389,96.254128 318.143555,94.923111 319.900330,95.171272 
	C325.413971,95.950111 330.820984,97.482872 336.270935,98.716385 
	C336.585083,98.787476 336.913849,98.794037 337.761261,98.890366 
	C337.761261,97.303108 337.602417,95.750977 337.805267,94.247643 
	C338.014221,92.699028 338.208344,90.222771 339.066833,89.899490 
	C340.431885,89.385475 342.840118,89.765755 343.933685,90.744087 
	C347.866119,94.262100 351.461212,98.161766 355.117157,101.980980 
	C356.017303,102.921333 356.665222,104.103111 357.544342,105.335426 
	C365.391388,101.454117 372.044861,94.757072 382.690979,96.325470 
	C367.663818,112.957542 369.309174,127.132126 390.089813,138.797134 
	C387.560638,139.435974 386.465637,139.787048 385.343292,139.974899 
	C384.241516,140.159302 383.111969,140.177811 381.387817,140.318726 
	C382.268341,142.164322 382.917145,143.625931 383.657959,145.039322 
	C384.115112,145.911484 384.746613,146.690338 385.241730,147.544785 
	C392.898254,160.758316 388.138580,169.347305 372.820679,169.987732 
	C372.350647,170.007401 371.886353,170.164566 370.567688,170.427353 
	C371.889587,176.723190 373.098633,182.942886 374.511108,189.116028 
	C377.767395,203.347290 380.446014,217.664871 379.833252,232.338455 
	C379.585236,238.276917 378.664398,244.199310 377.798492,250.092102 
	C377.559814,251.716660 376.416687,253.208328 375.164185,255.879181 
	C374.410645,248.522797 376.642883,242.002243 371.439606,235.771286 
	C370.199463,242.295944 369.091675,247.947891 368.054901,253.612823 
	C365.184174,269.298950 356.952942,281.005920 342.582794,288.249695 
	C333.025055,293.067657 323.445740,297.853241 314.038696,302.953156 
	C311.380768,304.394135 308.853546,306.561432 307.047760,308.979218 
	C304.087280,312.942993 301.905334,317.477570 299.142456,321.602173 
	C295.031311,327.739502 293.630005,334.144623 295.906036,341.348602 
	C297.242310,345.578033 297.749542,350.081726 299.223358,354.252228 
	C300.994202,359.263153 304.744415,360.864197 309.988495,359.657135 
	C314.803680,358.548767 319.633423,357.503693 324.456757,356.430725 
	C324.650116,357.059174 324.843506,357.687653 325.036865,358.316101 
	C323.311554,359.156433 321.586243,359.996735 319.213837,361.152252 
	C323.064545,362.073883 326.338867,362.857544 329.613190,363.641235 
	C329.544403,364.239349 329.475647,364.837494 329.406860,365.435638 
	C321.969849,365.435638 314.532867,365.435638 307.095856,365.435638 
	C307.016754,365.844116 306.937622,366.252625 306.858521,366.661102 
	C310.429291,368.706696 314.000092,370.752289 317.570862,372.797882 
	C317.321320,373.360352 317.071777,373.922821 316.822205,374.485291 
	C312.007538,372.541534 306.910248,371.089508 302.451111,368.527039 
	C297.114380,365.460205 290.831177,364.328156 286.213257,366.513367 
	C282.093536,368.462860 277.754150,368.316498 273.547363,370.435791 
	C277.594757,372.140259 281.431305,373.755920 285.267853,375.371552 
	C285.135895,375.762360 285.003937,376.153168 284.871979,376.543976 
	C277.643829,375.580353 270.415680,374.616699 263.187531,373.653046 
	C263.045532,374.083649 262.903503,374.514221 262.761475,374.944824 
	C266.054199,377.459808 269.346954,379.974823 272.639679,382.489838 
	C272.311737,382.975433 271.983795,383.461029 271.655853,383.946625 
	C262.463348,379.433014 253.270844,374.919434 244.147263,370.439697 
	C244.703094,370.077759 246.170334,368.561951 247.917068,368.097717 
	C251.973892,367.019470 253.430099,364.197540 253.838699,360.525116 
	C254.571854,353.935760 255.199631,347.334229 255.800842,340.731323 
	C255.871613,339.954132 255.734833,338.962402 255.294281,338.365112 
	C251.687607,333.475372 248.062134,328.595032 244.280151,323.840912 
	C242.468475,321.563568 240.449890,321.285583 238.535141,325.984680 
	C235.658661,318.628632 233.317062,312.640442 230.948364,306.582977 
	C219.809982,309.676971 215.476028,316.488251 215.963211,331.088745 
	C215.728333,331.506714 215.763733,331.581451 215.763733,331.581451 
M291.175476,349.169281 
	C289.194580,343.213409 287.874969,336.918213 285.042908,331.399109 
	C282.325531,326.103546 279.169464,326.175049 274.733643,329.878754 
	C272.956299,331.362732 270.595703,332.258575 269.110260,333.955688 
	C266.912079,336.467163 264.169617,339.249084 263.597473,342.281586 
	C262.401825,348.618744 262.541016,355.200684 261.993469,361.670380 
	C261.751831,364.525360 263.019470,365.674011 265.683472,365.647003 
	C273.446411,365.568390 281.230957,366.289581 288.473175,362.021973 
	C291.194061,360.418610 292.535156,358.820374 292.279938,355.883240 
	C292.107727,353.901123 291.661865,351.942719 291.175476,349.169281 
z"/>
<path fill="#FCFFFE" opacity="1.000000" stroke="none" 
	d="
M215.687119,331.509949 
	C215.645905,331.513184 215.896362,331.283813 215.896362,331.283813 
	C215.896362,331.283813 215.582993,331.375549 215.673370,331.478516 
	C215.763733,331.581451 215.728333,331.506714 215.687119,331.509949 
z"/>
<path fill="#0CA89C" opacity="1.000000" stroke="none" 
	d="
M291.256958,349.571503 
	C291.661865,351.942719 292.107727,353.901123 292.279938,355.883240 
	C292.535156,358.820374 291.194061,360.418610 288.473175,362.021973 
	C281.230957,366.289581 273.446411,365.568390 265.683472,365.647003 
	C263.019470,365.674011 261.751831,364.525360 261.993469,361.670380 
	C262.541016,355.200684 262.401825,348.618744 263.597473,342.281586 
	C264.169617,339.249084 266.912079,336.467163 269.110260,333.955688 
	C270.595703,332.258575 272.956299,331.362732 274.733643,329.878754 
	C279.169464,326.175049 282.325531,326.103546 285.042908,331.399109 
	C287.874969,336.918213 289.194580,343.213409 291.256958,349.571503 
z"/>
</svg>