<svg version="1.1" id="Layer_1" xmlns="http://www.w3.org/2000/svg" xmlns:xlink="http://www.w3.org/1999/xlink" x="0px" y="0px"
	 width="100%" viewBox="0 0 1350 1350" enable-background="new 0 0 1350 1350" xml:space="preserve">
<path fill="#01A89B" opacity="1.000000" stroke="none" 
	d="
M781.000000,1351.000000 
	C520.666687,1351.000000 260.833344,1351.000000 1.000000,1351.000000 
	C1.000000,901.000000 1.000000,451.000000 1.000000,1.000000 
	C451.000000,1.000000 901.000000,1.000000 1351.000000,1.000000 
	C1351.000000,451.000000 1351.000000,901.000000 1351.000000,1351.000000 
	C1161.166626,1351.000000 971.333313,1351.000000 781.000000,1351.000000 
M1121.011963,1135.994751 
	C1121.011963,1135.994751 1121.003052,1136.099365 1120.738281,1135.636597 
	C1120.457520,1135.424072 1120.176880,1135.211426 1119.988403,1135.002686 
	C1119.988403,1135.002686 1119.982788,1135.094971 1119.816772,1134.419312 
	C1118.657104,1133.286743 1117.686646,1131.572754 1116.304688,1131.123291 
	C1110.528809,1129.244629 1104.705322,1126.798096 1098.757935,1126.320923 
	C1088.881226,1125.528687 1078.895508,1126.033447 1068.956665,1126.118408 
	C1066.019043,1126.143433 1063.084961,1126.594238 1059.615112,1127.095825 
	C1059.373169,1127.393921 1059.131226,1127.692017 1058.477173,1128.705688 
	C1058.322266,1129.853882 1058.032837,1131.001953 1058.032104,1132.150269 
	C1058.012695,1159.633789 1058.011230,1187.117310 1058.067139,1214.600708 
	C1058.070068,1216.046997 1058.608154,1217.492310 1059.056885,1219.415039 
	C1059.088989,1219.579712 1059.120972,1219.744263 1059.430298,1220.604858 
	C1065.777222,1221.022217 1072.121094,1221.497559 1078.472168,1221.836060 
	C1082.450439,1222.048096 1084.063110,1220.113525 1083.970459,1216.049561 
	C1083.769653,1207.244385 1083.967407,1198.430664 1083.867554,1189.622070 
	C1083.833130,1186.588501 1084.775146,1184.796387 1088.018921,1184.985962 
	C1088.018921,1184.985962 1088.020264,1184.916382 1088.085693,1185.628174 
	C1089.095825,1186.742798 1090.106079,1187.857544 1091.033325,1188.965942 
	C1091.033325,1188.965942 1091.046631,1188.883911 1091.091431,1189.500854 
	C1091.421387,1190.007324 1091.751465,1190.513916 1092.000610,1191.000854 
	C1092.000610,1191.000854 1092.020508,1190.920166 1092.015381,1191.729736 
	C1095.181030,1200.738892 1098.329712,1209.753906 1101.558105,1218.740601 
	C1101.732910,1219.227295 1102.573730,1219.474609 1103.150024,1219.853882 
	C1103.150024,1219.853882 1103.170654,1219.899170 1103.427734,1220.603271 
	C1105.119751,1221.030273 1106.808716,1221.805420 1108.504395,1221.819946 
	C1113.987549,1221.867188 1119.484741,1221.803711 1124.952271,1221.428589 
	C1127.173096,1221.276123 1129.331543,1220.211182 1131.518311,1219.561523 
	C1130.323486,1217.379761 1129.128784,1215.197998 1127.998535,1213.014038 
	C1127.998535,1213.014038 1127.972046,1213.072998 1127.983398,1212.282349 
	C1123.338379,1201.601440 1118.693359,1190.920410 1113.906494,1179.913452 
	C1114.167603,1179.527466 1115.060425,1178.207764 1115.953613,1176.964966 
	C1115.953613,1176.964966 1115.884155,1176.932251 1116.576660,1176.918823 
	C1117.359985,1176.217651 1118.143311,1175.516479 1118.932007,1174.918213 
	C1118.932007,1174.918213 1118.829468,1174.907471 1119.552246,1174.887939 
	C1120.284302,1174.546875 1121.172485,1174.368530 1121.724121,1173.839355 
	C1127.053589,1168.726440 1130.174316,1152.764404 1127.203857,1145.908203 
	C1127.035522,1145.519775 1126.444336,1145.314819 1125.937134,1144.954834 
	C1125.937134,1144.954834 1126.000366,1144.838257 1125.973999,1144.222656 
	C1125.635742,1143.487427 1125.297363,1142.752075 1125.003174,1142.004639 
	C1125.003174,1142.004639 1124.969727,1142.037598 1124.876099,1141.448730 
	C1124.543579,1140.966309 1124.211060,1140.484009 1123.968384,1140.019165 
	C1123.968384,1140.019165 1123.945435,1140.107788 1123.905029,1139.420044 
	C1123.210083,1138.635864 1122.515137,1137.851685 1121.966064,1137.042358 
	C1121.966064,1137.042358 1121.982910,1137.189209 1121.703979,1136.720093 
	C1121.438599,1136.474609 1121.173096,1136.229248 1121.011963,1135.994751 
M468.278137,1213.670044 
	C468.511444,1213.389648 468.744720,1213.109375 469.260742,1212.232178 
	C482.390808,1198.322510 479.125854,1181.102295 461.049866,1170.328613 
	C469.298676,1166.635986 473.333710,1160.095581 473.574738,1151.441040 
	C473.884064,1140.333252 470.522827,1129.258423 455.475250,1128.099243 
	C440.103088,1126.914917 424.600647,1127.419434 409.154846,1127.212646 
	C408.895905,1127.209229 408.632202,1127.562134 408.023529,1127.996704 
	C408.023529,1142.370605 407.981293,1156.987427 408.034882,1171.603882 
	C408.094025,1187.731689 408.241028,1203.859253 408.933838,1220.470459 
	C409.729797,1220.662964 410.525330,1221.021240 411.321808,1221.023315 
	C423.912323,1221.057495 436.503174,1221.075439 449.093323,1220.998291 
	C450.341278,1220.990601 451.585297,1220.337280 453.061798,1219.738159 
	C453.061798,1219.738159 453.395691,1219.784180 454.141113,1219.876343 
	C455.077423,1219.622803 456.013733,1219.369263 457.427551,1218.940063 
	C457.596954,1218.932617 457.766388,1218.925049 458.508118,1218.903809 
	C459.006866,1218.644653 459.505615,1218.385376 460.474213,1217.933472 
	C460.640839,1217.903564 460.807465,1217.873779 461.379333,1217.717041 
	C461.643097,1217.595215 461.869690,1217.424072 462.431976,1217.022827 
	C462.431976,1217.022827 462.846375,1217.023804 463.484100,1216.961792 
	C463.996521,1216.610596 464.508911,1216.259399 465.013458,1216.010254 
	C465.013458,1216.010254 464.911133,1216.003174 465.355133,1215.784302 
	C465.636719,1215.599854 465.864624,1215.363770 466.240509,1214.833740 
	C466.240509,1214.833740 466.555664,1214.832764 467.107208,1214.614014 
	C467.395233,1214.344604 467.683258,1214.075317 467.957947,1213.962402 
	C467.957947,1213.962402 467.801666,1213.947876 468.278137,1213.670044 
M782.466919,1219.106079 
	C782.666931,1217.147949 783.036499,1215.190308 783.040710,1213.231812 
	C783.083984,1193.339478 783.010681,1173.446655 783.150513,1153.555298 
	C783.165527,1151.416016 784.321411,1149.284790 785.881897,1147.008057 
	C791.822510,1147.008057 797.763123,1147.008057 803.697754,1147.008057 
	C804.589417,1140.034912 805.393860,1133.744263 806.219666,1127.285889 
	C782.680969,1127.285889 759.945679,1127.285889 737.006958,1127.285889 
	C737.006958,1133.902710 737.006958,1140.249023 737.006958,1147.100098 
	C744.144409,1147.100098 750.883484,1147.100098 758.232544,1147.100098 
	C758.232544,1171.962158 758.232544,1196.319946 758.232544,1221.580688 
	C766.602905,1220.920654 774.294250,1220.314209 782.466919,1219.106079 
M362.714691,1219.552734 
	C362.714691,1213.447632 362.714691,1207.342529 362.714691,1200.590820 
	C352.071381,1200.590820 341.689301,1200.590820 331.390045,1200.590820 
	C331.390045,1193.706909 331.390045,1187.484619 331.390045,1180.831055 
	C339.054230,1180.831055 346.305267,1180.831055 353.688751,1180.831055 
	C353.688751,1174.641479 353.688751,1168.901855 353.688751,1162.480225 
	C346.017517,1162.480225 338.638641,1162.480225 331.218903,1162.480225 
	C331.218903,1157.024414 331.218903,1152.257568 331.218903,1146.985229 
	C340.527161,1146.985229 349.605713,1146.985229 359.064056,1146.985229 
	C359.727997,1140.174316 360.346344,1133.831177 360.977539,1127.356445 
	C342.760376,1127.356445 325.057556,1127.356445 307.021729,1127.356445 
	C307.021729,1131.510498 307.012268,1135.314941 307.023224,1139.119385 
	C307.100891,1166.078125 307.182739,1193.036865 307.862488,1220.492920 
	C308.831177,1220.681274 309.799530,1221.031982 310.768616,1221.033936 
	C326.596405,1221.066895 342.424408,1221.077026 358.252045,1221.014282 
	C359.522003,1221.009155 360.789703,1220.432617 362.714691,1219.552734 
M813.549377,1220.572876 
	C814.262573,1220.925659 814.978821,1221.591675 815.688538,1221.584839 
	C828.152954,1221.463257 840.617249,1221.295044 853.079407,1221.029175 
	C854.668518,1220.995117 856.244751,1220.358276 858.087585,1219.754150 
	C858.087585,1219.754150 858.445190,1219.780762 859.182739,1219.880371 
	C860.112061,1219.622803 861.041382,1219.365234 862.400330,1218.923462 
	C862.400330,1218.923462 862.867432,1218.943115 863.468262,1218.935547 
	C863.990417,1218.665527 864.512573,1218.395508 865.636475,1217.765625 
	C875.908691,1213.542236 880.976868,1205.580566 881.962097,1194.795532 
	C883.067017,1182.700562 877.066040,1175.062622 865.994141,1170.592163 
	C866.886780,1169.981323 867.407166,1169.571289 867.975403,1169.244507 
	C877.083191,1164.006226 880.333130,1155.696289 877.999695,1143.579834 
	C876.227844,1134.379395 870.424500,1128.806641 860.010376,1128.013916 
	C848.761414,1127.157593 837.436218,1127.281006 826.143005,1127.037354 
	C821.884827,1126.945435 817.623108,1127.022339 813.030701,1127.022339 
	C813.030701,1133.999390 813.015015,1140.297119 813.033508,1146.594971 
	C813.105408,1171.052734 813.188110,1195.510498 813.549377,1220.572876 
M571.514893,733.730408 
	C571.514893,733.730408 571.200256,733.769714 571.200256,733.769714 
	C571.200256,733.769714 571.495056,733.643555 570.904907,733.170105 
	C567.768982,728.182495 569.754272,723.183899 571.152100,718.321777 
	C571.538452,716.978027 573.412231,715.207397 574.638123,715.179932 
	C576.106140,715.147156 578.382751,716.428589 578.967224,717.739319 
	C581.549500,723.530090 585.567078,727.595398 591.383728,730.033691 
	C592.338928,730.434143 593.746643,731.361938 593.782532,732.102417 
	C594.186218,740.410645 601.548035,742.424011 606.540039,746.661682 
	C606.163818,744.484131 605.381287,742.555786 604.660217,740.604614 
	C601.172363,731.166992 603.266235,721.823425 609.206299,714.952087 
	C614.342590,709.010498 622.463989,705.649414 629.649414,700.893799 
	C628.925842,713.946716 635.334534,724.807251 641.572754,735.759705 
	C641.964417,734.484253 641.709961,733.247742 642.023865,732.177979 
	C642.499207,730.557922 643.369934,729.053955 644.072693,727.500671 
	C645.432129,728.235046 646.899353,728.824829 648.125000,729.738708 
	C649.844788,731.021057 651.165100,733.146606 653.049438,733.834229 
	C656.548218,735.111023 657.396973,737.732239 658.535950,740.783875 
	C659.708557,743.925598 661.210327,747.711365 663.767334,749.409912 
	C669.077393,752.937134 669.338684,757.480713 668.706116,762.808411 
	C667.435059,773.513916 665.931152,784.206604 665.160461,794.950256 
	C664.799133,799.987549 663.108948,802.022339 658.094360,803.271790 
	C653.097717,804.516785 648.597046,807.752136 643.878967,810.114807 
	C644.108887,810.734375 644.338806,811.354004 644.568787,811.973572 
	C646.783997,811.818481 648.997009,811.604248 651.214905,811.519409 
	C657.782837,811.268372 664.773193,811.265747 669.366028,816.402893 
	C676.799133,824.716797 687.077820,826.887024 697.262146,831.489136 
	C696.348022,819.354553 684.166931,821.550842 678.305054,814.991760 
	C685.365356,811.766968 691.827515,814.962891 698.091064,815.529053 
	C704.782898,816.133728 712.119568,815.342712 717.529724,821.547302 
	C718.527771,815.484070 716.202637,812.964600 710.344727,812.020264 
	C705.884399,811.301208 701.505920,810.074402 697.091064,809.073486 
	C697.187927,808.545410 697.284790,808.017334 697.381653,807.489258 
	C704.484253,806.413696 711.609375,803.878845 718.904175,807.921570 
	C717.285461,805.928162 715.666748,803.934692 713.571960,801.354980 
	C717.439819,801.115295 720.759766,801.313721 723.892273,800.640015 
	C733.444031,798.585938 741.327026,801.619934 748.967224,807.210876 
	C752.990295,810.154785 757.919739,812.024048 762.668579,813.749451 
	C765.423706,814.750610 768.632080,814.504456 772.055176,814.863464 
	C768.561646,805.068481 756.875610,807.287842 750.249207,800.723938 
	C751.984741,800.316345 752.742371,799.957153 753.480957,799.992798 
	C760.729736,800.343872 767.973022,800.810669 775.222595,801.142639 
	C780.928711,801.403992 786.641418,801.522278 792.466919,801.707764 
	C792.047180,796.672729 788.565857,795.130920 784.426819,794.600220 
	C780.469299,794.092712 776.468933,793.919983 772.487366,793.600159 
	C772.424988,793.057007 772.362549,792.513855 772.300171,791.970703 
	C776.455688,791.060547 780.611145,790.150452 784.762817,789.241150 
	C780.869934,784.074402 777.890503,783.378357 772.101318,785.744751 
	C767.985291,787.427185 763.796082,789.047791 759.499084,790.147095 
	C748.824524,792.877930 742.375305,789.577637 739.061707,779.114014 
	C736.824036,772.048096 735.293823,764.701233 734.119507,757.372375 
	C733.055298,750.730225 731.201355,743.731018 734.801880,737.340698 
	C740.991638,726.354919 747.402771,715.482727 754.109436,704.806824 
	C755.870300,702.003784 758.693787,699.345215 761.654480,697.908386 
	C775.221130,691.324219 789.229065,685.626221 802.645630,678.763672 
	C812.450439,673.748413 823.069580,668.923645 830.718018,661.372620 
	C849.171631,643.153870 856.375122,619.676697 857.039978,594.015381 
	C857.102295,591.610168 858.310364,589.234680 859.313721,585.688721 
	C867.418396,597.659485 866.427673,608.672363 862.168884,620.021423 
	C867.643005,620.001465 869.060425,616.396912 869.684692,613.161621 
	C871.250977,605.044250 872.944702,596.823303 873.172607,588.604675 
	C873.553101,574.881775 874.323059,560.894714 872.218384,547.442993 
	C869.132935,527.721985 863.601257,508.387390 859.249268,488.857513 
	C858.410767,485.094818 858.204895,481.191132 857.781494,477.925262 
	C863.334229,477.925262 868.201538,478.710785 872.702820,477.761200 
	C881.983582,475.803314 889.642395,467.543304 888.856384,460.585083 
	C887.902466,452.140991 885.850464,444.016632 879.316895,437.655701 
	C877.337097,435.728241 876.550476,432.575287 874.920898,429.407318 
	C881.328247,428.957214 886.293762,428.608398 892.678162,428.159882 
	C885.829773,424.178040 880.219543,421.332611 875.052307,417.832947 
	C860.005493,407.641937 856.662109,382.951599 868.288818,369.104797 
	C871.634033,365.120819 875.131165,361.264404 878.975586,356.873260 
	C860.477966,352.247498 849.298889,364.689209 836.322510,373.149323 
	C833.988708,369.465179 831.764282,365.993286 829.579529,362.496643 
	C825.161133,355.425049 819.473450,349.740509 811.774048,346.298828 
	C805.728149,343.596283 801.884155,345.880554 802.199097,352.603851 
	C802.353088,355.892700 804.296326,359.097778 805.568604,362.738220 
	C800.455017,361.031494 795.462158,359.417603 790.505920,357.698303 
	C783.341980,355.213196 776.076416,353.772675 768.563416,355.795166 
	C762.387268,357.457733 761.238464,360.728424 765.132263,365.828552 
	C766.504883,367.626343 768.559509,368.905853 770.313721,370.409180 
	C771.633606,371.540314 772.971008,372.651001 774.903381,374.278412 
	C772.620789,375.516357 771.106689,376.408722 769.532776,377.178864 
	C762.238708,380.747833 754.775574,384.005920 747.670044,387.915283 
	C741.685303,391.208038 739.640442,397.243225 737.543579,403.968201 
	C745.642212,403.112823 752.316711,398.580505 760.642639,402.152496 
	C758.214539,403.932404 756.485413,405.379822 754.588745,406.557220 
	C748.241333,410.497711 741.645386,414.076843 735.575562,418.399567 
	C733.957764,419.551727 733.622559,422.837891 733.346069,425.219421 
	C733.298950,425.625946 736.529175,426.914307 738.246765,426.917084 
	C741.533264,426.922394 744.967712,426.772552 748.071716,425.814972 
	C752.191162,424.544067 754.641418,426.184326 757.269592,429.286163 
	C754.547913,431.369293 751.897339,433.085358 749.635437,435.214447 
	C747.227478,437.481018 744.918396,439.958496 743.088379,442.693359 
	C742.004761,444.312775 740.885559,447.388245 741.651428,448.415344 
	C742.774536,449.921509 745.639832,450.977600 747.641296,450.806305 
	C752.046692,450.429169 756.398376,449.258606 760.730103,448.234619 
	C765.308655,447.152313 769.838562,445.864136 774.836365,444.548279 
	C774.836365,446.541931 775.002319,447.694580 774.812317,448.785248 
	C768.537537,484.811554 759.992432,520.313477 749.897827,555.444519 
	C749.339172,557.388733 747.624268,559.533081 745.854370,560.514709 
	C727.866821,570.490845 709.756653,580.245728 691.679138,590.059509 
	C687.338501,592.415894 682.991638,594.760864 678.071838,597.422668 
	C677.779480,594.986938 677.514404,593.229980 677.364685,591.463257 
	C675.221741,566.159302 673.455017,540.816162 670.804382,515.565735 
	C669.559570,503.707153 666.404968,492.256287 658.332458,482.593292 
	C646.689209,468.656006 632.099304,459.312103 615.308289,453.025116 
	C601.696045,447.928345 587.551086,445.151276 573.095215,444.667908 
	C562.686523,444.319855 552.112610,444.236389 541.832214,445.642212 
	C515.328430,449.266724 497.578461,466.115906 482.791931,486.859375 
	C481.888947,488.126160 481.530487,489.781067 480.918671,491.255402 
	C514.162415,467.207245 550.527527,466.886322 588.228516,474.563049 
	C579.119629,478.153290 570.021240,482.027557 560.531677,483.763977 
	C549.320679,485.815338 537.718262,485.616821 526.382202,487.121826 
	C510.701233,489.203644 495.765900,493.410339 484.588135,505.802368 
	C482.359772,508.272827 479.938049,510.573212 477.776642,513.098572 
	C475.615509,515.623596 473.620911,518.296692 471.642395,520.970825 
	C469.791443,523.472534 468.057251,526.060669 466.271667,528.610779 
	C478.709381,523.489563 489.411438,515.085754 502.004028,513.842285 
	C499.125366,520.281372 495.696686,526.617615 493.535095,533.359985 
	C492.486420,536.630920 491.023499,539.109436 489.073029,541.803772 
	C483.652252,549.292053 478.516144,557.014526 473.754974,564.937378 
	C472.022797,567.819824 471.667633,571.529663 470.684265,574.862061 
	C477.155457,567.494751 484.703308,562.345642 493.475555,559.503601 
	C507.915558,554.825317 522.585144,550.855591 537.157959,546.587219 
	C537.615417,546.949524 538.072876,547.311829 538.530334,547.674133 
	C537.694763,549.856201 537.482910,553.173950 535.920227,554.032227 
	C527.115112,558.868469 521.669434,566.257446 518.040466,575.301086 
	C516.922485,578.087158 515.149719,579.445496 511.960083,580.292847 
	C500.856049,583.242859 494.156464,590.741577 492.046783,602.089478 
	C490.896667,608.276062 490.074524,614.522766 489.009430,620.726074 
	C488.431335,624.093018 487.654175,627.425781 486.966797,630.773926 
	C498.299622,620.876160 508.037323,609.808655 523.175781,605.804932 
	C522.504700,608.140015 521.531616,610.277527 519.995300,611.872559 
	C506.508942,625.874390 494.545654,640.393738 500.014587,661.978455 
	C502.140961,670.370667 503.970947,678.837952 505.935883,687.270996 
	C508.445465,680.448792 506.940765,672.367676 514.371033,668.739868 
	C516.622131,676.868835 517.734863,685.077026 521.180420,692.148499 
	C524.612915,699.193115 530.385986,705.097290 535.132812,711.501465 
	C531.279724,692.087585 531.928223,686.173157 539.364380,682.389221 
	C539.254639,690.549194 542.798889,696.923157 548.529297,702.151062 
	C553.734009,706.899292 556.221924,712.496948 557.457520,719.664795 
	C558.640198,726.525330 564.818909,730.845276 571.514893,733.730408 
M331.940643,450.351044 
	C333.970612,428.194214 336.001678,406.037445 338.030243,383.880493 
	C339.815216,364.384216 345.846710,346.834473 361.563110,333.969086 
	C369.531738,327.445984 377.537750,320.908264 385.997833,315.058228 
	C404.520477,302.250153 422.877747,289.260742 436.362457,270.846344 
	C446.079681,257.576752 455.182587,243.857025 464.549377,230.331100 
	C475.906372,213.931152 489.871857,201.076324 510.564423,198.344666 
	C524.706055,196.477783 538.933105,195.104904 553.163574,194.099884 
	C574.177185,192.615814 594.477905,188.570221 613.630493,179.505356 
	C627.708496,172.842316 641.743652,166.075638 655.973389,159.749847 
	C671.844604,152.694336 688.290649,151.052200 704.797424,157.223282 
	C714.540283,160.865646 724.027344,165.266739 733.408997,169.784470 
	C751.315979,178.407547 768.986694,187.968918 788.903259,190.773636 
	C808.933228,193.594330 829.170776,194.934891 849.312866,196.967911 
	C867.708191,198.824615 883.864685,205.322678 895.341858,220.501785 
	C903.649719,231.489304 911.710510,242.687012 919.388611,254.121964 
	C931.852478,272.684570 946.383057,289.132996 965.093811,301.650574 
	C975.319519,308.491608 985.514893,315.382751 995.591919,322.439819 
	C1009.867859,332.437561 1022.628540,343.914459 1026.459839,361.875641 
	C1028.700073,372.377655 1029.885498,383.143494 1030.945190,393.850037 
	C1032.873779,413.339355 1033.913330,432.924683 1036.189697,452.368561 
	C1037.550293,463.989807 1040.483398,475.433868 1042.912598,486.914642 
	C1043.226440,488.397369 1044.709229,490.740051 1045.737061,490.786926 
	C1053.093506,491.122345 1060.472290,490.966125 1067.520264,490.966125 
	C1063.906494,474.670959 1059.466187,459.175629 1057.213013,443.368591 
	C1054.241699,422.524231 1053.212402,401.410583 1050.927246,380.458679 
	C1048.873657,361.631348 1042.839600,344.395020 1029.763184,330.010071 
	C1016.760864,315.706635 1001.162292,304.620453 985.546387,293.595215 
	C965.718079,279.595734 948.731567,263.077026 936.139832,242.153046 
	C931.261841,234.047134 925.793091,226.287369 920.409607,218.496964 
	C907.384155,199.647919 891.362793,184.269333 868.128967,179.684158 
	C851.586731,176.419556 834.615356,175.384933 817.892395,172.962357 
	C805.138672,171.114777 791.901489,170.282410 779.907166,166.071060 
	C762.806702,160.066879 746.432251,151.817276 730.132263,143.749802 
	C701.191833,129.426071 672.140076,127.310951 642.508667,141.175934 
	C632.292236,145.956375 622.114746,150.820786 611.943909,155.697723 
	C598.153809,162.310074 584.075012,168.242722 568.739990,169.905563 
	C550.089661,171.927887 531.333374,172.992126 512.697144,175.120468 
	C493.660400,177.294571 475.775574,183.291443 462.685303,197.966888 
	C451.998077,209.948318 441.908997,222.670364 433.114075,236.086304 
	C418.243713,258.769867 400.027466,277.565186 376.736908,291.556427 
	C368.632690,296.424805 360.936096,302.023895 353.339081,307.673523 
	C337.507263,319.446991 324.305267,333.608124 320.330078,353.548248 
	C317.197784,369.260437 315.861328,385.348419 314.097656,401.310394 
	C312.494507,415.819763 312.157135,430.506744 309.858673,444.891235 
	C307.391785,460.329712 303.288574,475.506744 299.839630,491.067627 
	C305.761261,491.067627 312.091461,490.812653 318.388916,491.157013 
	C322.606537,491.387634 324.305664,489.663177 325.035339,485.759644 
	C327.192169,474.221130 329.562897,462.722595 331.940643,450.351044 
M886.578979,906.101990 
	C880.129028,909.738159 874.045044,914.442017 867.157898,916.802612 
	C849.212952,922.953430 830.184937,922.335205 811.546692,923.896423 
	C793.081116,925.443176 775.086548,928.704895 758.119324,936.358765 
	C742.254456,943.515503 726.584778,951.106323 710.696594,958.209412 
	C692.778687,966.219788 674.655212,966.154724 656.727844,958.214722 
	C644.629150,952.856079 632.653992,947.206604 620.737305,941.451721 
	C603.768005,933.256836 586.205078,927.009521 567.369080,925.057373 
	C549.371704,923.192078 531.298767,922.010986 513.332886,919.900391 
	C499.148071,918.234009 486.119263,913.125183 476.612885,901.945007 
	C468.986786,892.976074 461.724609,883.618164 455.118195,873.878540 
	C441.729218,854.139526 428.362976,834.451355 408.610596,820.318481 
	C394.959503,810.551086 381.053711,801.140259 367.363861,791.426147 
	C351.125153,779.903320 340.842590,764.707764 338.902832,744.456970 
	C337.320221,727.934875 335.845184,711.397949 333.916840,694.915039 
	C332.570374,683.405945 330.519409,671.971741 324.893677,661.588989 
	C324.161713,660.238098 322.816010,658.277100 321.691437,658.233643 
	C314.018005,657.937317 306.327667,658.078308 297.791718,658.078308 
	C307.735840,670.929993 310.222412,685.176086 311.898987,699.523499 
	C313.940979,716.997864 314.857330,734.610229 317.136749,752.048401 
	C319.234711,768.098511 325.233398,782.711548 336.275848,795.011780 
	C346.969513,806.923279 359.957275,815.888916 373.356659,824.271606 
	C394.572449,837.544373 413.871429,852.728882 427.663422,874.118958 
	C434.502655,884.726013 441.782898,895.069580 449.267700,905.234802 
	C462.371948,923.032166 478.773743,936.671143 501.074951,940.620239 
	C516.551147,943.360718 532.325134,944.616272 548.018860,945.879150 
	C565.280701,947.268311 582.399902,949.101379 598.385742,956.262939 
	C614.417847,963.445312 630.188416,971.213684 646.246033,978.336243 
	C671.245728,989.425171 696.391846,989.429626 721.371704,978.151550 
	C733.288025,972.771423 745.145874,967.247314 756.883484,961.489441 
	C771.880310,954.132874 787.457092,948.749451 804.124634,947.042847 
	C822.125183,945.199768 840.214783,944.114807 858.156372,941.838928 
	C875.816772,939.598633 892.192505,933.321533 904.419495,919.872070 
	C913.888428,909.456299 922.628052,898.258484 930.685791,886.706543 
	C942.980896,869.079407 954.450195,850.848877 972.367554,838.141296 
	C984.568726,829.487854 997.065857,821.251526 1009.262390,812.591614 
	C1028.018311,799.274353 1043.567627,783.209351 1048.267822,759.783508 
	C1051.125977,745.537964 1052.017578,730.905273 1054.016357,716.477478 
	C1055.854614,703.206909 1057.417603,689.853577 1060.241455,676.782898 
	C1061.646606,670.278503 1065.604980,664.325684 1068.445435,658.041199 
	C1061.841309,658.041199 1055.008423,658.213623 1048.191162,657.961548 
	C1045.208862,657.851379 1043.434448,658.899780 1042.568848,661.544678 
	C1040.004517,669.379700 1036.371948,677.082031 1035.247681,685.128296 
	C1032.540649,704.503479 1031.217529,724.067383 1028.964722,743.512146 
	C1027.249268,758.318604 1022.884399,772.281616 1011.107605,782.352783 
	C1002.285889,789.896851 993.263672,797.461426 983.391357,803.474548 
	C953.351624,821.771362 929.386780,845.688110 911.005310,875.724976 
	C904.393127,886.529846 895.177917,895.741760 886.578979,906.101990 
M734.574646,1211.899292 
	C728.947815,1200.964355 725.839905,1188.661377 716.556030,1179.644653 
	C730.274963,1174.449707 734.816040,1166.603394 734.003662,1150.057007 
	C733.505981,1139.920288 726.403931,1130.808716 715.068420,1129.375732 
	C699.025574,1127.347534 682.754944,1127.121338 666.434509,1126.115845 
	C666.434509,1158.598389 666.434509,1189.616821 666.434509,1220.963013 
	C673.320618,1220.963013 679.798279,1220.864258 686.270813,1221.003418 
	C689.662781,1221.076172 690.007324,1219.112427 689.991089,1216.503906 
	C689.946350,1209.343140 689.979065,1202.181885 689.980408,1195.020752 
	C689.981201,1191.120605 689.980591,1187.220459 689.980591,1183.272095 
	C695.053894,1183.218994 697.546753,1185.584839 698.988281,1189.272095 
	C702.484070,1198.213501 705.822876,1207.218018 709.462280,1216.099976 
	C710.091797,1217.636353 711.841187,1219.747925 713.149109,1219.803223 
	C721.233337,1220.145508 729.339233,1219.975342 738.038269,1219.975342 
	C736.823181,1217.061768 735.885315,1214.812866 734.574646,1211.899292 
M937.222656,1221.472656 
	C958.762634,1219.769775 969.393799,1210.995361 974.064575,1189.851074 
	C975.657043,1182.642212 976.030640,1175.028198 975.948730,1167.610596 
	C975.688232,1144.034302 962.112305,1124.539185 933.624634,1125.902832 
	C916.902283,1126.703491 904.961182,1134.348389 898.023071,1149.556030 
	C893.734314,1158.956543 892.580200,1168.981079 893.041687,1179.206055 
	C894.205383,1204.991455 908.297180,1221.966553 937.222656,1221.472656 
M276.632507,1132.780273 
	C273.781799,1131.501465 271.003937,1129.333618 268.068115,1129.093140 
	C252.926147,1127.852051 237.743713,1127.104736 222.413483,1126.175415 
	C222.413483,1158.294067 222.413483,1188.975586 222.413483,1219.559692 
	C223.113113,1219.742676 223.428024,1219.895996 223.743469,1219.897095 
	C234.400452,1219.932983 245.057480,1219.944824 255.714462,1219.980103 
	C272.237305,1220.034790 283.616180,1211.795898 288.984650,1195.991089 
	C292.817047,1184.708374 292.731384,1173.029785 291.699554,1161.479980 
	C290.705383,1150.351685 286.952820,1140.081299 276.632507,1132.780273 
M557.530396,1208.822876 
	C558.680298,1204.048706 560.737427,1199.290649 560.822998,1194.497437 
	C561.191772,1173.841309 560.982422,1153.174805 560.983521,1132.512085 
	C560.983582,1130.761963 560.983521,1129.011963 560.983521,1127.313721 
	C552.610535,1127.313721 545.020508,1127.313721 537.022583,1127.313721 
	C537.022583,1129.412231 537.022522,1131.209961 537.022644,1133.007690 
	C537.023376,1152.504028 537.057495,1172.000366 537.005005,1191.496582 
	C536.989014,1197.411743 533.955444,1201.303101 529.145325,1201.984009 
	C521.865662,1203.014282 517.817139,1200.838135 515.944092,1194.557861 
	C515.294067,1192.378662 515.027222,1190.010132 515.018311,1187.726440 
	C514.945496,1169.063599 514.980957,1150.400513 514.962219,1131.737427 
	C514.960754,1130.293701 514.797363,1128.850098 514.710632,1127.429565 
	C506.632477,1127.429565 498.924591,1127.429565 491.043152,1127.429565 
	C491.043152,1150.332275 490.734283,1172.826904 491.159576,1195.307617 
	C491.412659,1208.684326 498.558502,1216.812988 511.555328,1219.958618 
	C515.551941,1220.925903 519.738464,1221.482422 523.847717,1221.540527 
	C536.403320,1221.718506 548.408203,1220.055664 557.530396,1208.822876 
M647.984497,1147.500122 
	C647.984497,1140.747559 647.984497,1133.994995 647.984497,1127.409180 
	C639.772095,1127.409180 632.369873,1127.409180 624.624268,1127.409180 
	C624.624268,1145.961914 624.659119,1164.109741 624.596008,1182.257202 
	C624.582703,1186.071045 624.409668,1189.907593 623.952759,1193.690552 
	C623.334473,1198.809814 620.263855,1201.697144 615.636841,1202.012085 
	C608.683960,1202.485352 604.440369,1200.197876 603.098877,1194.895142 
	C602.454895,1192.349487 602.142517,1189.654663 602.129822,1187.025269 
	C602.043518,1169.030884 602.076599,1151.035645 602.071350,1133.040771 
	C602.070801,1131.124146 602.071228,1129.207642 602.071228,1127.336670 
	C593.856262,1127.336670 586.446594,1127.336670 578.829285,1127.336670 
	C578.829285,1150.952148 578.750305,1174.244873 578.863708,1197.536743 
	C578.917908,1208.649902 585.323181,1215.448486 595.223022,1218.865601 
	C607.153870,1222.983643 619.372253,1222.815063 631.304932,1218.719360 
	C642.703979,1214.806763 647.968323,1206.961548 647.974976,1194.987183 
	C647.983521,1179.491455 647.981812,1163.995850 647.984497,1147.500122 
M1038.437256,1219.973022 
	C1041.194336,1219.973022 1043.951416,1219.973022 1046.598145,1219.973022 
	C1046.598145,1213.140259 1046.598145,1207.065674 1046.598145,1200.511475 
	C1035.957520,1200.511475 1025.689941,1200.511475 1015.357849,1200.511475 
	C1015.357849,1193.791626 1015.357849,1187.572998 1015.357849,1180.915283 
	C1022.998230,1180.915283 1030.257812,1180.915283 1037.698730,1180.915283 
	C1037.698730,1174.724854 1037.698730,1168.984375 1037.698730,1162.558594 
	C1030.049194,1162.558594 1022.664307,1162.558594 1015.384766,1162.558594 
	C1015.384766,1156.968994 1015.384766,1152.074951 1015.384766,1146.839844 
	C1024.754272,1146.839844 1033.708252,1146.839844 1043.032104,1146.839844 
	C1043.689941,1140.175903 1044.315918,1133.835815 1044.950928,1127.402466 
	C1026.722534,1127.402466 1009.013550,1127.402466 991.301331,1127.402466 
	C991.301331,1158.357422 991.301331,1188.931763 991.301331,1219.974121 
	C1006.883606,1219.974121 1022.167236,1219.974121 1038.437256,1219.973022 
z"/>
<path fill="#FDFFFE" opacity="1.000000" stroke="none" 
	d="
M571.425415,733.562805 
	C564.818909,730.845276 558.640198,726.525330 557.457520,719.664795 
	C556.221924,712.496948 553.734009,706.899292 548.529297,702.151062 
	C542.798889,696.923157 539.254639,690.549194 539.364380,682.389221 
	C531.928223,686.173157 531.279724,692.087585 535.132812,711.501465 
	C530.385986,705.097290 524.612915,699.193115 521.180420,692.148499 
	C517.734863,685.077026 516.622131,676.868835 514.371033,668.739868 
	C506.940765,672.367676 508.445465,680.448792 505.935883,687.270996 
	C503.970947,678.837952 502.140961,670.370667 500.014587,661.978455 
	C494.545654,640.393738 506.508942,625.874390 519.995300,611.872559 
	C521.531616,610.277527 522.504700,608.140015 523.175781,605.804932 
	C508.037323,609.808655 498.299622,620.876160 486.966797,630.773926 
	C487.654175,627.425781 488.431335,624.093018 489.009430,620.726074 
	C490.074524,614.522766 490.896667,608.276062 492.046783,602.089478 
	C494.156464,590.741577 500.856049,583.242859 511.960083,580.292847 
	C515.149719,579.445496 516.922485,578.087158 518.040466,575.301086 
	C521.669434,566.257446 527.115112,558.868469 535.920227,554.032227 
	C537.482910,553.173950 537.694763,549.856201 538.530334,547.674133 
	C538.072876,547.311829 537.615417,546.949524 537.157959,546.587219 
	C522.585144,550.855591 507.915558,554.825317 493.475555,559.503601 
	C484.703308,562.345642 477.155457,567.494751 470.684265,574.862061 
	C471.667633,571.529663 472.022797,567.819824 473.754974,564.937378 
	C478.516144,557.014526 483.652252,549.292053 489.073029,541.803772 
	C491.023499,539.109436 492.486420,536.630920 493.535095,533.359985 
	C495.696686,526.617615 499.125366,520.281372 502.004028,513.842285 
	C489.411438,515.085754 478.709381,523.489563 466.271667,528.610779 
	C468.057251,526.060669 469.791443,523.472534 471.642395,520.970825 
	C473.620911,518.296692 475.615509,515.623596 477.776642,513.098572 
	C479.938049,510.573212 482.359772,508.272827 484.588135,505.802368 
	C495.765900,493.410339 510.701233,489.203644 526.382202,487.121826 
	C537.718262,485.616821 549.320679,485.815338 560.531677,483.763977 
	C570.021240,482.027557 579.119629,478.153290 588.228516,474.563049 
	C550.527527,466.886322 514.162415,467.207245 480.918671,491.255402 
	C481.530487,489.781067 481.888947,488.126160 482.791931,486.859375 
	C497.578461,466.115906 515.328430,449.266724 541.832214,445.642212 
	C552.112610,444.236389 562.686523,444.319855 573.095215,444.667908 
	C587.551086,445.151276 601.696045,447.928345 615.308289,453.025116 
	C632.099304,459.312103 646.689209,468.656006 658.332458,482.593292 
	C666.404968,492.256287 669.559570,503.707153 670.804382,515.565735 
	C673.455017,540.816162 675.221741,566.159302 677.364685,591.463257 
	C677.514404,593.229980 677.779480,594.986938 678.071838,597.422668 
	C682.991638,594.760864 687.338501,592.415894 691.679138,590.059509 
	C709.756653,580.245728 727.866821,570.490845 745.854370,560.514709 
	C747.624268,559.533081 749.339172,557.388733 749.897827,555.444519 
	C759.992432,520.313477 768.537537,484.811554 774.812317,448.785248 
	C775.002319,447.694580 774.836365,446.541931 774.836365,444.548279 
	C769.838562,445.864136 765.308655,447.152313 760.730103,448.234619 
	C756.398376,449.258606 752.046692,450.429169 747.641296,450.806305 
	C745.639832,450.977600 742.774536,449.921509 741.651428,448.415344 
	C740.885559,447.388245 742.004761,444.312775 743.088379,442.693359 
	C744.918396,439.958496 747.227478,437.481018 749.635437,435.214447 
	C751.897339,433.085358 754.547913,431.369293 757.269592,429.286163 
	C754.641418,426.184326 752.191162,424.544067 748.071716,425.814972 
	C744.967712,426.772552 741.533264,426.922394 738.246765,426.917084 
	C736.529175,426.914307 733.298950,425.625946 733.346069,425.219421 
	C733.622559,422.837891 733.957764,419.551727 735.575562,418.399567 
	C741.645386,414.076843 748.241333,410.497711 754.588745,406.557220 
	C756.485413,405.379822 758.214539,403.932404 760.642639,402.152496 
	C752.316711,398.580505 745.642212,403.112823 737.543579,403.968201 
	C739.640442,397.243225 741.685303,391.208038 747.670044,387.915283 
	C754.775574,384.005920 762.238708,380.747833 769.532776,377.178864 
	C771.106689,376.408722 772.620789,375.516357 774.903381,374.278412 
	C772.971008,372.651001 771.633606,371.540314 770.313721,370.409180 
	C768.559509,368.905853 766.504883,367.626343 765.132263,365.828552 
	C761.238464,360.728424 762.387268,357.457733 768.563416,355.795166 
	C776.076416,353.772675 783.341980,355.213196 790.505920,357.698303 
	C795.462158,359.417603 800.455017,361.031494 805.568604,362.738220 
	C804.296326,359.097778 802.353088,355.892700 802.199097,352.603851 
	C801.884155,345.880554 805.728149,343.596283 811.774048,346.298828 
	C819.473450,349.740509 825.161133,355.425049 829.579529,362.496643 
	C831.764282,365.993286 833.988708,369.465179 836.322510,373.149323 
	C849.298889,364.689209 860.477966,352.247498 878.975586,356.873260 
	C875.131165,361.264404 871.634033,365.120819 868.288818,369.104797 
	C856.662109,382.951599 860.005493,407.641937 875.052307,417.832947 
	C880.219543,421.332611 885.829773,424.178040 892.678162,428.159882 
	C886.293762,428.608398 881.328247,428.957214 874.920898,429.407318 
	C876.550476,432.575287 877.337097,435.728241 879.316895,437.655701 
	C885.850464,444.016632 887.902466,452.140991 888.856384,460.585083 
	C889.642395,467.543304 881.983582,475.803314 872.702820,477.761200 
	C868.201538,478.710785 863.334229,477.925262 857.781494,477.925262 
	C858.204895,481.191132 858.410767,485.094818 859.249268,488.857513 
	C863.601257,508.387390 869.132935,527.721985 872.218384,547.442993 
	C874.323059,560.894714 873.553101,574.881775 873.172607,588.604675 
	C872.944702,596.823303 871.250977,605.044250 869.684692,613.161621 
	C869.060425,616.396912 867.643005,620.001465 862.168884,620.021423 
	C866.427673,608.672363 867.418396,597.659485 859.313721,585.688721 
	C858.310364,589.234680 857.102295,591.610168 857.039978,594.015381 
	C856.375122,619.676697 849.171631,643.153870 830.718018,661.372620 
	C823.069580,668.923645 812.450439,673.748413 802.645630,678.763672 
	C789.229065,685.626221 775.221130,691.324219 761.654480,697.908386 
	C758.693787,699.345215 755.870300,702.003784 754.109436,704.806824 
	C747.402771,715.482727 740.991638,726.354919 734.801880,737.340698 
	C731.201355,743.731018 733.055298,750.730225 734.119507,757.372375 
	C735.293823,764.701233 736.824036,772.048096 739.061707,779.114014 
	C742.375305,789.577637 748.824524,792.877930 759.499084,790.147095 
	C763.796082,789.047791 767.985291,787.427185 772.101318,785.744751 
	C777.890503,783.378357 780.869934,784.074402 784.762817,789.241150 
	C780.611145,790.150452 776.455688,791.060547 772.300171,791.970703 
	C772.362549,792.513855 772.424988,793.057007 772.487366,793.600159 
	C776.468933,793.919983 780.469299,794.092712 784.426819,794.600220 
	C788.565857,795.130920 792.047180,796.672729 792.466919,801.707764 
	C786.641418,801.522278 780.928711,801.403992 775.222595,801.142639 
	C767.973022,800.810669 760.729736,800.343872 753.480957,799.992798 
	C752.742371,799.957153 751.984741,800.316345 750.249207,800.723938 
	C756.875610,807.287842 768.561646,805.068481 772.055176,814.863464 
	C768.632080,814.504456 765.423706,814.750610 762.668579,813.749451 
	C757.919739,812.024048 752.990295,810.154785 748.967224,807.210876 
	C741.327026,801.619934 733.444031,798.585938 723.892273,800.640015 
	C720.759766,801.313721 717.439819,801.115295 713.571960,801.354980 
	C715.666748,803.934692 717.285461,805.928162 718.904175,807.921570 
	C711.609375,803.878845 704.484253,806.413696 697.381653,807.489258 
	C697.284790,808.017334 697.187927,808.545410 697.091064,809.073486 
	C701.505920,810.074402 705.884399,811.301208 710.344727,812.020264 
	C716.202637,812.964600 718.527771,815.484070 717.529724,821.547302 
	C712.119568,815.342712 704.782898,816.133728 698.091064,815.529053 
	C691.827515,814.962891 685.365356,811.766968 678.305054,814.991760 
	C684.166931,821.550842 696.348022,819.354553 697.262146,831.489136 
	C687.077820,826.887024 676.799133,824.716797 669.366028,816.402893 
	C664.773193,811.265747 657.782837,811.268372 651.214905,811.519409 
	C648.997009,811.604248 646.783997,811.818481 644.568787,811.973572 
	C644.338806,811.354004 644.108887,810.734375 643.878967,810.114807 
	C648.597046,807.752136 653.097717,804.516785 658.094360,803.271790 
	C663.108948,802.022339 664.799133,799.987549 665.160461,794.950256 
	C665.931152,784.206604 667.435059,773.513916 668.706116,762.808411 
	C669.338684,757.480713 669.077393,752.937134 663.767334,749.409912 
	C661.210327,747.711365 659.708557,743.925598 658.535950,740.783875 
	C657.396973,737.732239 656.548218,735.111023 653.049438,733.834229 
	C651.165100,733.146606 649.844788,731.021057 648.125000,729.738708 
	C646.899353,728.824829 645.432129,728.235046 644.072693,727.500671 
	C643.369934,729.053955 642.499207,730.557922 642.023865,732.177979 
	C641.709961,733.247742 641.964417,734.484253 641.572754,735.759705 
	C635.334534,724.807251 628.925842,713.946716 629.649414,700.893799 
	C622.463989,705.649414 614.342590,709.010498 609.206299,714.952087 
	C603.266235,721.823425 601.172363,731.166992 604.660217,740.604614 
	C605.381287,742.555786 606.163818,744.484131 606.540039,746.661682 
	C601.548035,742.424011 594.186218,740.410645 593.782532,732.102417 
	C593.746643,731.361938 592.338928,730.434143 591.383728,730.033691 
	C585.567078,727.595398 581.549500,723.530090 578.967224,717.739319 
	C578.382751,716.428589 576.106140,715.147156 574.638123,715.179932 
	C573.412231,715.207397 571.538452,716.978027 571.152100,718.321777 
	C569.754272,723.183899 567.768982,728.182495 571.167725,733.399414 
	C571.430542,733.628723 571.425415,733.562805 571.425415,733.562805 
M728.043762,791.442566 
	C728.437500,788.799561 729.525757,786.037659 729.097412,783.535400 
	C727.703918,775.395996 726.253662,767.201904 723.883179,759.311951 
	C721.440308,751.181091 719.246033,742.596741 710.841858,737.874146 
	C708.114807,736.341675 706.078430,735.809509 703.474854,738.363831 
	C700.288391,741.490112 696.862549,744.691345 692.941956,746.681641 
	C685.601562,750.408142 681.317749,755.186523 681.266479,764.044617 
	C681.205933,774.473389 679.842957,784.894775 679.041931,795.319092 
	C678.763794,798.939148 680.267578,800.234924 684.021240,800.128174 
	C693.145203,799.868774 702.281433,800.043701 709.556641,800.043701 
	C713.767090,797.940857 716.705322,796.354736 719.743958,794.992554 
	C722.271484,793.859497 724.916931,792.989502 728.043762,791.442566 
z"/>
<path fill="#F9FEFD" opacity="1.000000" stroke="none" 
	d="
M331.895264,450.779724 
	C329.562897,462.722595 327.192169,474.221130 325.035339,485.759644 
	C324.305664,489.663177 322.606537,491.387634 318.388916,491.157013 
	C312.091461,490.812653 305.761261,491.067627 299.839630,491.067627 
	C303.288574,475.506744 307.391785,460.329712 309.858673,444.891235 
	C312.157135,430.506744 312.494507,415.819763 314.097656,401.310394 
	C315.861328,385.348419 317.197784,369.260437 320.330078,353.548248 
	C324.305267,333.608124 337.507263,319.446991 353.339081,307.673523 
	C360.936096,302.023895 368.632690,296.424805 376.736908,291.556427 
	C400.027466,277.565186 418.243713,258.769867 433.114075,236.086304 
	C441.908997,222.670364 451.998077,209.948318 462.685303,197.966888 
	C475.775574,183.291443 493.660400,177.294571 512.697144,175.120468 
	C531.333374,172.992126 550.089661,171.927887 568.739990,169.905563 
	C584.075012,168.242722 598.153809,162.310074 611.943909,155.697723 
	C622.114746,150.820786 632.292236,145.956375 642.508667,141.175934 
	C672.140076,127.310951 701.191833,129.426071 730.132263,143.749802 
	C746.432251,151.817276 762.806702,160.066879 779.907166,166.071060 
	C791.901489,170.282410 805.138672,171.114777 817.892395,172.962357 
	C834.615356,175.384933 851.586731,176.419556 868.128967,179.684158 
	C891.362793,184.269333 907.384155,199.647919 920.409607,218.496964 
	C925.793091,226.287369 931.261841,234.047134 936.139832,242.153046 
	C948.731567,263.077026 965.718079,279.595734 985.546387,293.595215 
	C1001.162292,304.620453 1016.760864,315.706635 1029.763184,330.010071 
	C1042.839600,344.395020 1048.873657,361.631348 1050.927246,380.458679 
	C1053.212402,401.410583 1054.241699,422.524231 1057.213013,443.368591 
	C1059.466187,459.175629 1063.906494,474.670959 1067.520264,490.966125 
	C1060.472290,490.966125 1053.093506,491.122345 1045.737061,490.786926 
	C1044.709229,490.740051 1043.226440,488.397369 1042.912598,486.914642 
	C1040.483398,475.433868 1037.550293,463.989807 1036.189697,452.368561 
	C1033.913330,432.924683 1032.873779,413.339355 1030.945190,393.850037 
	C1029.885498,383.143494 1028.700073,372.377655 1026.459839,361.875641 
	C1022.628540,343.914459 1009.867859,332.437561 995.591919,322.439819 
	C985.514893,315.382751 975.319519,308.491608 965.093811,301.650574 
	C946.383057,289.132996 931.852478,272.684570 919.388611,254.121964 
	C911.710510,242.687012 903.649719,231.489304 895.341858,220.501785 
	C883.864685,205.322678 867.708191,198.824615 849.312866,196.967911 
	C829.170776,194.934891 808.933228,193.594330 788.903259,190.773636 
	C768.986694,187.968918 751.315979,178.407547 733.408997,169.784470 
	C724.027344,165.266739 714.540283,160.865646 704.797424,157.223282 
	C688.290649,151.052200 671.844604,152.694336 655.973389,159.749847 
	C641.743652,166.075638 627.708496,172.842316 613.630493,179.505356 
	C594.477905,188.570221 574.177185,192.615814 553.163574,194.099884 
	C538.933105,195.104904 524.706055,196.477783 510.564423,198.344666 
	C489.871857,201.076324 475.906372,213.931152 464.549377,230.331100 
	C455.182587,243.857025 446.079681,257.576752 436.362457,270.846344 
	C422.877747,289.260742 404.520477,302.250153 385.997833,315.058228 
	C377.537750,320.908264 369.531738,327.445984 361.563110,333.969086 
	C345.846710,346.834473 339.815216,364.384216 338.030243,383.880493 
	C336.001678,406.037445 333.970612,428.194214 331.895264,450.779724 
z"/>
<path fill="#F9FEFD" opacity="1.000000" stroke="none" 
	d="
M886.864807,905.891357 
	C895.177917,895.741760 904.393127,886.529846 911.005310,875.724976 
	C929.386780,845.688110 953.351624,821.771362 983.391357,803.474548 
	C993.263672,797.461426 1002.285889,789.896851 1011.107605,782.352783 
	C1022.884399,772.281616 1027.249268,758.318604 1028.964722,743.512146 
	C1031.217529,724.067383 1032.540649,704.503479 1035.247681,685.128296 
	C1036.371948,677.082031 1040.004517,669.379700 1042.568848,661.544678 
	C1043.434448,658.899780 1045.208862,657.851379 1048.191162,657.961548 
	C1055.008423,658.213623 1061.841309,658.041199 1068.445435,658.041199 
	C1065.604980,664.325684 1061.646606,670.278503 1060.241455,676.782898 
	C1057.417603,689.853577 1055.854614,703.206909 1054.016357,716.477478 
	C1052.017578,730.905273 1051.125977,745.537964 1048.267822,759.783508 
	C1043.567627,783.209351 1028.018311,799.274353 1009.262390,812.591614 
	C997.065857,821.251526 984.568726,829.487854 972.367554,838.141296 
	C954.450195,850.848877 942.980896,869.079407 930.685791,886.706543 
	C922.628052,898.258484 913.888428,909.456299 904.419495,919.872070 
	C892.192505,933.321533 875.816772,939.598633 858.156372,941.838928 
	C840.214783,944.114807 822.125183,945.199768 804.124634,947.042847 
	C787.457092,948.749451 771.880310,954.132874 756.883484,961.489441 
	C745.145874,967.247314 733.288025,972.771423 721.371704,978.151550 
	C696.391846,989.429626 671.245728,989.425171 646.246033,978.336243 
	C630.188416,971.213684 614.417847,963.445312 598.385742,956.262939 
	C582.399902,949.101379 565.280701,947.268311 548.018860,945.879150 
	C532.325134,944.616272 516.551147,943.360718 501.074951,940.620239 
	C478.773743,936.671143 462.371948,923.032166 449.267700,905.234802 
	C441.782898,895.069580 434.502655,884.726013 427.663422,874.118958 
	C413.871429,852.728882 394.572449,837.544373 373.356659,824.271606 
	C359.957275,815.888916 346.969513,806.923279 336.275848,795.011780 
	C325.233398,782.711548 319.234711,768.098511 317.136749,752.048401 
	C314.857330,734.610229 313.940979,716.997864 311.898987,699.523499 
	C310.222412,685.176086 307.735840,670.929993 297.791718,658.078308 
	C306.327667,658.078308 314.018005,657.937317 321.691437,658.233643 
	C322.816010,658.277100 324.161713,660.238098 324.893677,661.588989 
	C330.519409,671.971741 332.570374,683.405945 333.916840,694.915039 
	C335.845184,711.397949 337.320221,727.934875 338.902832,744.456970 
	C340.842590,764.707764 351.125153,779.903320 367.363861,791.426147 
	C381.053711,801.140259 394.959503,810.551086 408.610596,820.318481 
	C428.362976,834.451355 441.729218,854.139526 455.118195,873.878540 
	C461.724609,883.618164 468.986786,892.976074 476.612885,901.945007 
	C486.119263,913.125183 499.148071,918.234009 513.332886,919.900391 
	C531.298767,922.010986 549.371704,923.192078 567.369080,925.057373 
	C586.205078,927.009521 603.768005,933.256836 620.737305,941.451721 
	C632.653992,947.206604 644.629150,952.856079 656.727844,958.214722 
	C674.655212,966.154724 692.778687,966.219788 710.696594,958.209412 
	C726.584778,951.106323 742.254456,943.515503 758.119324,936.358765 
	C775.086548,928.704895 793.081116,925.443176 811.546692,923.896423 
	C830.184937,922.335205 849.212952,922.953430 867.157898,916.802612 
	C874.045044,914.442017 880.129028,909.738159 886.864807,905.891357 
z"/>
<path fill="#FAFEFE" opacity="1.000000" stroke="none" 
	d="
M466.555664,1214.832764 
	C466.555664,1214.832764 466.240509,1214.833740 465.864655,1214.971436 
	C465.296265,1215.407104 465.103699,1215.705078 464.911133,1216.003174 
	C464.911133,1216.003174 465.013458,1216.010254 464.698181,1216.005371 
	C463.870697,1216.341675 463.358521,1216.682739 462.846375,1217.023804 
	C462.846375,1217.023804 462.431976,1217.022827 462.001099,1217.083008 
	C461.211548,1217.240845 461.012848,1217.474487 460.974091,1217.843872 
	C460.807465,1217.873779 460.640839,1217.903564 459.940216,1217.968628 
	C458.916077,1218.308472 458.425934,1218.613037 457.935791,1218.917603 
	C457.766388,1218.925049 457.596954,1218.932617 456.817139,1218.962891 
	C455.269745,1219.251953 454.332703,1219.518066 453.395691,1219.784180 
	C453.395691,1219.784180 453.061798,1219.738159 452.500031,1219.830566 
	C437.408783,1219.944336 422.879272,1219.965576 408.349792,1219.986816 
	C408.241028,1203.859253 408.094025,1187.731689 408.034882,1171.603882 
	C407.981293,1156.987427 408.023529,1142.370605 408.023529,1127.996704 
	C408.632202,1127.562134 408.895905,1127.209229 409.154846,1127.212646 
	C424.600647,1127.419434 440.103088,1126.914917 455.475250,1128.099243 
	C470.522827,1129.258423 473.884064,1140.333252 473.574738,1151.441040 
	C473.333710,1160.095581 469.298676,1166.635986 461.049866,1170.328613 
	C479.125854,1181.102295 482.390808,1198.322510 468.852600,1212.633911 
	C468.230194,1213.339722 468.015930,1213.643799 467.801697,1213.947876 
	C467.801666,1213.947876 467.957947,1213.962402 467.663849,1213.960205 
	C467.098389,1214.249512 466.826996,1214.541138 466.555664,1214.832764 
M443.286377,1200.052490 
	C448.194489,1198.253784 450.539307,1194.516724 449.835480,1189.423584 
	C449.289825,1185.475342 447.526337,1182.366333 443.146912,1182.032715 
	C439.574677,1181.760620 435.965240,1181.977417 432.319458,1181.977417 
	C432.319458,1188.440430 432.319458,1194.295044 432.319458,1200.756226 
	C435.951599,1200.548462 439.209747,1200.362061 443.286377,1200.052490 
M432.135803,1147.805542 
	C432.135803,1152.712280 432.135803,1157.618896 432.135803,1163.034058 
	C435.119232,1163.034058 437.718536,1163.052246 440.317505,1163.030396 
	C446.738434,1162.976318 449.101593,1160.510498 449.024628,1153.975952 
	C448.960114,1148.500000 447.020477,1146.939819 440.233307,1146.972168 
	C437.756653,1146.984009 435.280396,1147.076294 432.135803,1147.805542 
z"/>
<path fill="#FBFEFE" opacity="1.000000" stroke="none" 
	d="
M862.867432,1218.943115 
	C862.867432,1218.943115 862.400330,1218.923462 861.815552,1218.949463 
	C860.302307,1219.243896 859.373718,1219.512329 858.445190,1219.780762 
	C858.445190,1219.780762 858.087585,1219.754150 857.511230,1219.839600 
	C842.378906,1219.939575 827.822876,1219.953857 813.266846,1219.968262 
	C813.188110,1195.510498 813.105408,1171.052734 813.033508,1146.594971 
	C813.015015,1140.297119 813.030701,1133.999390 813.030701,1127.022339 
	C817.623108,1127.022339 821.884827,1126.945435 826.143005,1127.037354 
	C837.436218,1127.281006 848.761414,1127.157593 860.010376,1128.013916 
	C870.424500,1128.806641 876.227844,1134.379395 877.999695,1143.579834 
	C880.333130,1155.696289 877.083191,1164.006226 867.975403,1169.244507 
	C867.407166,1169.571289 866.886780,1169.981323 865.994141,1170.592163 
	C877.066040,1175.062622 883.067017,1182.700562 881.962097,1194.795532 
	C880.976868,1205.580566 875.908691,1213.542236 865.024658,1217.900146 
	C863.897644,1218.337524 863.382507,1218.640259 862.867432,1218.943115 
M843.410400,1181.949707 
	C841.335083,1181.949707 839.259705,1181.949707 837.212769,1181.949707 
	C837.212769,1188.500854 837.212769,1194.264038 837.212769,1200.485352 
	C842.818481,1200.444824 848.625610,1202.184204 852.788147,1197.445312 
	C855.522705,1194.332031 855.783081,1190.205078 854.018860,1186.190430 
	C852.078674,1181.775391 848.229309,1181.843994 843.410400,1181.949707 
M844.335815,1163.051147 
	C845.665466,1163.031006 847.023071,1163.177612 848.319519,1162.959961 
	C852.327881,1162.286499 854.837585,1158.387207 854.376465,1153.493408 
	C853.978516,1149.270386 851.844238,1146.816040 847.295837,1146.936279 
	C844.015686,1147.023193 840.731384,1146.953247 837.248413,1146.953247 
	C837.248413,1152.505981 837.248413,1157.551270 837.248413,1163.052734 
	C839.489746,1163.052734 841.449707,1163.052734 844.335815,1163.051147 
z"/>
<path fill="#FAFEFE" opacity="1.000000" stroke="none" 
	d="
M734.761047,1212.231689 
	C735.885315,1214.812866 736.823181,1217.061768 738.038269,1219.975342 
	C729.339233,1219.975342 721.233337,1220.145508 713.149109,1219.803223 
	C711.841187,1219.747925 710.091797,1217.636353 709.462280,1216.099976 
	C705.822876,1207.218018 702.484070,1198.213501 698.988281,1189.272095 
	C697.546753,1185.584839 695.053894,1183.218994 689.980591,1183.272095 
	C689.980591,1187.220459 689.981201,1191.120605 689.980408,1195.020752 
	C689.979065,1202.181885 689.946350,1209.343140 689.991089,1216.503906 
	C690.007324,1219.112427 689.662781,1221.076172 686.270813,1221.003418 
	C679.798279,1220.864258 673.320618,1220.963013 666.434509,1220.963013 
	C666.434509,1189.616821 666.434509,1158.598389 666.434509,1126.115845 
	C682.754944,1127.121338 699.025574,1127.347534 715.068420,1129.375732 
	C726.403931,1130.808716 733.505981,1139.920288 734.003662,1150.057007 
	C734.816040,1166.603394 730.274963,1174.449707 716.556030,1179.644653 
	C725.839905,1188.661377 728.947815,1200.964355 734.761047,1212.231689 
M699.795227,1165.840942 
	C706.490723,1163.573853 709.402893,1158.823853 707.780212,1152.816772 
	C706.267578,1147.217041 700.833862,1145.572754 690.276733,1147.583496 
	C690.276733,1153.583130 690.276733,1159.604126 690.276733,1165.932983 
	C693.380554,1165.932983 696.157959,1165.932983 699.795227,1165.840942 
z"/>
<path fill="#FAFEFE" opacity="1.000000" stroke="none" 
	d="
M936.794067,1221.602173 
	C908.297180,1221.966553 894.205383,1204.991455 893.041687,1179.206055 
	C892.580200,1168.981079 893.734314,1158.956543 898.023071,1149.556030 
	C904.961182,1134.348389 916.902283,1126.703491 933.624634,1125.902832 
	C962.112305,1124.539185 975.688232,1144.034302 975.948730,1167.610596 
	C976.030640,1175.028198 975.657043,1182.642212 974.064575,1189.851074 
	C969.393799,1210.995361 958.762634,1219.769775 936.794067,1221.602173 
M946.828613,1150.959106 
	C944.140320,1145.762939 939.639587,1143.722168 934.071533,1144.125610 
	C928.591431,1144.522583 924.606750,1147.600708 922.936462,1152.722778 
	C921.364136,1157.544312 919.700439,1162.668335 919.791382,1167.627686 
	C919.956787,1176.645264 920.638123,1185.803345 922.547791,1194.589111 
	C923.966125,1201.114624 929.173218,1203.368652 936.512329,1203.036499 
	C942.064209,1202.785278 946.311340,1199.582886 947.712708,1193.438477 
	C950.887512,1179.518311 951.156006,1165.548096 946.828613,1150.959106 
z"/>
<path fill="#FAFEFE" opacity="1.000000" stroke="none" 
	d="
M276.961731,1132.935181 
	C286.952820,1140.081299 290.705383,1150.351685 291.699554,1161.479980 
	C292.731384,1173.029785 292.817047,1184.708374 288.984650,1195.991089 
	C283.616180,1211.795898 272.237305,1220.034790 255.714462,1219.980103 
	C245.057480,1219.944824 234.400452,1219.932983 223.743469,1219.897095 
	C223.428024,1219.895996 223.113113,1219.742676 222.413483,1219.559692 
	C222.413483,1188.975586 222.413483,1158.294067 222.413483,1126.175415 
	C237.743713,1127.104736 252.926147,1127.852051 268.068115,1129.093140 
	C271.003937,1129.333618 273.781799,1131.501465 276.961731,1132.935181 
M264.966339,1189.154663 
	C265.304016,1180.548828 266.115417,1171.929443 265.871918,1163.340088 
	C265.474426,1149.320801 259.491058,1144.786255 246.345520,1147.631958 
	C246.345520,1165.144531 246.345520,1182.646118 246.345520,1200.091553 
	C260.072205,1201.842896 262.180542,1198.517822 264.966339,1189.154663 
z"/>
<path fill="#FAFEFE" opacity="1.000000" stroke="none" 
	d="
M1058.889160,1127.989990 
	C1059.131226,1127.692017 1059.373169,1127.393921 1060.329224,1127.050781 
	C1070.495972,1127.016357 1079.958374,1126.762207 1089.398804,1127.107544 
	C1100.128296,1127.499756 1110.879639,1128.269653 1119.982788,1135.094971 
	C1119.982788,1135.094971 1119.988403,1135.002686 1120.034790,1135.264160 
	C1120.388428,1135.716797 1120.695801,1135.908081 1121.003052,1136.099365 
	C1121.003052,1136.099365 1121.011963,1135.994751 1121.035889,1136.269287 
	C1121.367554,1136.759033 1121.675171,1136.974121 1121.982910,1137.189209 
	C1121.982910,1137.189209 1121.966064,1137.042358 1121.978516,1137.364746 
	C1122.642578,1138.494141 1123.293945,1139.300903 1123.945435,1140.107788 
	C1123.945435,1140.107788 1123.968384,1140.019165 1123.964966,1140.316650 
	C1124.297607,1141.088745 1124.633667,1141.563110 1124.969727,1142.037598 
	C1124.969727,1142.037598 1125.003174,1142.004639 1124.985474,1142.328613 
	C1125.312012,1143.381104 1125.656128,1144.109619 1126.000366,1144.838257 
	C1126.000366,1144.838257 1125.937134,1144.954834 1125.957275,1145.411865 
	C1128.200439,1156.682129 1126.618042,1166.558594 1118.829468,1174.907471 
	C1118.829468,1174.907471 1118.932007,1174.918213 1118.626587,1174.967773 
	C1117.508789,1175.655518 1116.696411,1176.293823 1115.884155,1176.932251 
	C1115.884155,1176.932251 1115.953613,1176.964966 1115.592529,1176.990479 
	C1113.199463,1177.913452 1111.167358,1178.811157 1109.972534,1179.338989 
	C1113.254639,1184.886963 1116.666626,1190.223755 1119.637451,1195.796021 
	C1122.643066,1201.433716 1125.211914,1207.304443 1127.972046,1213.072998 
	C1127.972046,1213.072998 1127.998535,1213.014038 1128.004883,1213.401123 
	C1128.726440,1215.689819 1129.441772,1217.591431 1130.309937,1219.899170 
	C1120.737061,1219.899170 1111.953857,1219.899170 1103.170654,1219.899170 
	C1103.170654,1219.899170 1103.150024,1219.853882 1103.103271,1219.473145 
	C1099.377808,1209.701660 1095.699219,1200.310913 1092.020508,1190.920166 
	C1092.020508,1190.920166 1092.000610,1191.000854 1092.014648,1190.689575 
	C1091.701294,1189.880127 1091.373901,1189.382080 1091.046631,1188.883911 
	C1091.046631,1188.883911 1091.033325,1188.965942 1091.025391,1188.634888 
	C1090.018433,1187.174683 1089.019409,1186.045532 1088.020264,1184.916382 
	C1088.020264,1184.916382 1088.018921,1184.985962 1087.861816,1184.661621 
	C1086.242798,1183.844727 1084.780762,1183.351929 1082.479980,1182.576538 
	C1082.479980,1195.431152 1082.479980,1207.410767 1082.479980,1219.908936 
	C1074.286865,1219.908936 1066.719971,1219.908936 1059.153076,1219.908936 
	C1059.120972,1219.744263 1059.088989,1219.579712 1059.044434,1218.718750 
	C1058.984497,1188.011597 1058.936768,1158.000732 1058.889160,1127.989990 
M1082.636719,1163.849731 
	C1085.152954,1168.203003 1089.291016,1166.025635 1092.240967,1165.388428 
	C1095.018799,1164.788574 1098.370361,1162.359253 1099.569214,1159.833008 
	C1102.405884,1153.855591 1099.345093,1147.914795 1093.635986,1147.192871 
	C1090.114624,1146.747559 1086.491089,1147.110474 1082.600098,1147.110474 
	C1082.600098,1152.730103 1082.600098,1157.843628 1082.636719,1163.849731 
z"/>
<path fill="#FBFFFE" opacity="1.000000" stroke="none" 
	d="
M557.285645,1209.101074 
	C548.408203,1220.055664 536.403320,1221.718506 523.847717,1221.540527 
	C519.738464,1221.482422 515.551941,1220.925903 511.555328,1219.958618 
	C498.558502,1216.812988 491.412659,1208.684326 491.159576,1195.307617 
	C490.734283,1172.826904 491.043152,1150.332275 491.043152,1127.429565 
	C498.924591,1127.429565 506.632477,1127.429565 514.710632,1127.429565 
	C514.797363,1128.850098 514.960754,1130.293701 514.962219,1131.737427 
	C514.980957,1150.400513 514.945496,1169.063599 515.018311,1187.726440 
	C515.027222,1190.010132 515.294067,1192.378662 515.944092,1194.557861 
	C517.817139,1200.838135 521.865662,1203.014282 529.145325,1201.984009 
	C533.955444,1201.303101 536.989014,1197.411743 537.005005,1191.496582 
	C537.057495,1172.000366 537.023376,1152.504028 537.022644,1133.007690 
	C537.022522,1131.209961 537.022583,1129.412231 537.022583,1127.313721 
	C545.020508,1127.313721 552.610535,1127.313721 560.983521,1127.313721 
	C560.983521,1129.011963 560.983582,1130.761963 560.983521,1132.512085 
	C560.982422,1153.174805 561.191772,1173.841309 560.822998,1194.497437 
	C560.737427,1199.290649 558.680298,1204.048706 557.285645,1209.101074 
z"/>
<path fill="#FBFFFE" opacity="1.000000" stroke="none" 
	d="
M647.984497,1148.000122 
	C647.981812,1163.995850 647.983521,1179.491455 647.974976,1194.987183 
	C647.968323,1206.961548 642.703979,1214.806763 631.304932,1218.719360 
	C619.372253,1222.815063 607.153870,1222.983643 595.223022,1218.865601 
	C585.323181,1215.448486 578.917908,1208.649902 578.863708,1197.536743 
	C578.750305,1174.244873 578.829285,1150.952148 578.829285,1127.336670 
	C586.446594,1127.336670 593.856262,1127.336670 602.071228,1127.336670 
	C602.071228,1129.207642 602.070801,1131.124146 602.071350,1133.040771 
	C602.076599,1151.035645 602.043518,1169.030884 602.129822,1187.025269 
	C602.142517,1189.654663 602.454895,1192.349487 603.098877,1194.895142 
	C604.440369,1200.197876 608.683960,1202.485352 615.636841,1202.012085 
	C620.263855,1201.697144 623.334473,1198.809814 623.952759,1193.690552 
	C624.409668,1189.907593 624.582703,1186.071045 624.596008,1182.257202 
	C624.659119,1164.109741 624.624268,1145.961914 624.624268,1127.409180 
	C632.369873,1127.409180 639.772095,1127.409180 647.984497,1127.409180 
	C647.984497,1133.994995 647.984497,1140.747559 647.984497,1148.000122 
z"/>
<path fill="#FBFFFE" opacity="1.000000" stroke="none" 
	d="
M307.263214,1219.995605 
	C307.182739,1193.036865 307.100891,1166.078125 307.023224,1139.119385 
	C307.012268,1135.314941 307.021729,1131.510498 307.021729,1127.356445 
	C325.057556,1127.356445 342.760376,1127.356445 360.977539,1127.356445 
	C360.346344,1133.831177 359.727997,1140.174316 359.064056,1146.985229 
	C349.605713,1146.985229 340.527161,1146.985229 331.218903,1146.985229 
	C331.218903,1152.257568 331.218903,1157.024414 331.218903,1162.480225 
	C338.638641,1162.480225 346.017517,1162.480225 353.688751,1162.480225 
	C353.688751,1168.901855 353.688751,1174.641479 353.688751,1180.831055 
	C346.305267,1180.831055 339.054230,1180.831055 331.390045,1180.831055 
	C331.390045,1187.484619 331.390045,1193.706909 331.390045,1200.590820 
	C341.689301,1200.590820 352.071381,1200.590820 362.714691,1200.590820 
	C362.714691,1207.342529 362.714691,1213.447632 361.916382,1219.761719 
	C343.166443,1219.979004 325.214844,1219.987305 307.263214,1219.995605 
z"/>
<path fill="#FBFFFE" opacity="1.000000" stroke="none" 
	d="
M1037.944092,1219.973633 
	C1022.167236,1219.974121 1006.883606,1219.974121 991.301331,1219.974121 
	C991.301331,1188.931763 991.301331,1158.357422 991.301331,1127.402466 
	C1009.013550,1127.402466 1026.722534,1127.402466 1044.950928,1127.402466 
	C1044.315918,1133.835815 1043.689941,1140.175903 1043.032104,1146.839844 
	C1033.708252,1146.839844 1024.754272,1146.839844 1015.384766,1146.839844 
	C1015.384766,1152.074951 1015.384766,1156.968994 1015.384766,1162.558594 
	C1022.664307,1162.558594 1030.049194,1162.558594 1037.698730,1162.558594 
	C1037.698730,1168.984375 1037.698730,1174.724854 1037.698730,1180.915283 
	C1030.257812,1180.915283 1022.998230,1180.915283 1015.357849,1180.915283 
	C1015.357849,1187.572998 1015.357849,1193.791626 1015.357849,1200.511475 
	C1025.689941,1200.511475 1035.957520,1200.511475 1046.598145,1200.511475 
	C1046.598145,1207.065674 1046.598145,1213.140259 1046.598145,1219.973022 
	C1043.951416,1219.973022 1041.194336,1219.973022 1037.944092,1219.973633 
z"/>
<path fill="#FAFEFE" opacity="1.000000" stroke="none" 
	d="
M781.985596,1219.707764 
	C774.294250,1220.314209 766.602905,1220.920654 758.232544,1221.580688 
	C758.232544,1196.319946 758.232544,1171.962158 758.232544,1147.100098 
	C750.883484,1147.100098 744.144409,1147.100098 737.006958,1147.100098 
	C737.006958,1140.249023 737.006958,1133.902710 737.006958,1127.285889 
	C759.945679,1127.285889 782.680969,1127.285889 806.219666,1127.285889 
	C805.393860,1133.744263 804.589417,1140.034912 803.697754,1147.008057 
	C797.763123,1147.008057 791.822510,1147.008057 784.985413,1147.005371 
	C783.375183,1148.310059 782.045715,1149.614624 782.039185,1150.925781 
	C781.925110,1173.852661 781.972900,1196.780273 781.985596,1219.707764 
z"/>
<path fill="#298A81" opacity="1.000000" stroke="none" 
	d="
M1059.291748,1220.256836 
	C1066.719971,1219.908936 1074.286865,1219.908936 1082.479980,1219.908936 
	C1082.479980,1207.410767 1082.479980,1195.431152 1082.479980,1182.576538 
	C1084.780762,1183.351929 1086.242798,1183.844727 1087.895264,1184.651855 
	C1084.775146,1184.796387 1083.833130,1186.588501 1083.867554,1189.622070 
	C1083.967407,1198.430664 1083.769653,1207.244385 1083.970459,1216.049561 
	C1084.063110,1220.113525 1082.450439,1222.048096 1078.472168,1221.836060 
	C1072.121094,1221.497559 1065.777222,1221.022217 1059.291748,1220.256836 
z"/>
<path fill="#298A81" opacity="1.000000" stroke="none" 
	d="
M1058.683105,1128.347900 
	C1058.936768,1158.000732 1058.984497,1188.011597 1058.964600,1218.480225 
	C1058.608154,1217.492310 1058.070068,1216.046997 1058.067139,1214.600708 
	C1058.011230,1187.117310 1058.012695,1159.633789 1058.032104,1132.150269 
	C1058.032837,1131.001953 1058.322266,1129.853882 1058.683105,1128.347900 
z"/>
<path fill="#298A81" opacity="1.000000" stroke="none" 
	d="
M1119.899780,1134.757080 
	C1110.879639,1128.269653 1100.128296,1127.499756 1089.398804,1127.107544 
	C1079.958374,1126.762207 1070.495972,1127.016357 1060.596313,1126.927856 
	C1063.084961,1126.594238 1066.019043,1126.143433 1068.956665,1126.118408 
	C1078.895508,1126.033447 1088.881226,1125.528687 1098.757935,1126.320923 
	C1104.705322,1126.798096 1110.528809,1129.244629 1116.304688,1131.123291 
	C1117.686646,1131.572754 1118.657104,1133.286743 1119.899780,1134.757080 
z"/>
<path fill="#298A81" opacity="1.000000" stroke="none" 
	d="
M1127.977783,1212.677734 
	C1125.211914,1207.304443 1122.643066,1201.433716 1119.637451,1195.796021 
	C1116.666626,1190.223755 1113.254639,1184.886963 1109.972534,1179.338989 
	C1111.167358,1178.811157 1113.199463,1177.913452 1115.592407,1176.952026 
	C1115.060425,1178.207764 1114.167603,1179.527466 1113.906494,1179.913452 
	C1118.693359,1190.920410 1123.338379,1201.601440 1127.977783,1212.677734 
z"/>
<path fill="#298A81" opacity="1.000000" stroke="none" 
	d="
M782.226257,1219.406982 
	C781.972900,1196.780273 781.925110,1173.852661 782.039185,1150.925781 
	C782.045715,1149.614624 783.375183,1148.310059 784.518494,1147.076172 
	C784.321411,1149.284790 783.165527,1151.416016 783.150513,1153.555298 
	C783.010681,1173.446655 783.083984,1193.339478 783.040710,1213.231812 
	C783.036499,1215.190308 782.666931,1217.147949 782.226257,1219.406982 
z"/>
<path fill="#298A81" opacity="1.000000" stroke="none" 
	d="
M1103.299194,1220.251221 
	C1111.953857,1219.899170 1120.737061,1219.899170 1130.309937,1219.899170 
	C1129.441772,1217.591431 1128.726440,1215.689819 1127.972534,1213.402222 
	C1129.128784,1215.197998 1130.323486,1217.379761 1131.518311,1219.561523 
	C1129.331543,1220.211182 1127.173096,1221.276123 1124.952271,1221.428589 
	C1119.484741,1221.803711 1113.987549,1221.867188 1108.504395,1221.819946 
	C1106.808716,1221.805420 1105.119751,1221.030273 1103.299194,1220.251221 
z"/>
<path fill="#298A81" opacity="1.000000" stroke="none" 
	d="
M1119.190918,1174.897705 
	C1126.618042,1166.558594 1128.200439,1156.682129 1126.013672,1145.446655 
	C1126.444336,1145.314819 1127.035522,1145.519775 1127.203857,1145.908203 
	C1130.174316,1152.764404 1127.053589,1168.726440 1121.724121,1173.839355 
	C1121.172485,1174.368530 1120.284302,1174.546875 1119.190918,1174.897705 
z"/>
<path fill="#298A81" opacity="1.000000" stroke="none" 
	d="
M307.562866,1220.244263 
	C325.214844,1219.987305 343.166443,1219.979004 361.588257,1220.046143 
	C360.789703,1220.432617 359.522003,1221.009155 358.252045,1221.014282 
	C342.424408,1221.077026 326.596405,1221.066895 310.768616,1221.033936 
	C309.799530,1221.031982 308.831177,1220.681274 307.562866,1220.244263 
z"/>
<path fill="#298A81" opacity="1.000000" stroke="none" 
	d="
M1092.018066,1191.324951 
	C1095.699219,1200.310913 1099.377808,1209.701660 1103.080566,1219.462891 
	C1102.573730,1219.474609 1101.732910,1219.227295 1101.558105,1218.740601 
	C1098.329712,1209.753906 1095.181030,1200.738892 1092.018066,1191.324951 
z"/>
<path fill="#298A81" opacity="1.000000" stroke="none" 
	d="
M813.408081,1220.270508 
	C827.822876,1219.953857 842.378906,1219.939575 857.380981,1219.962891 
	C856.244751,1220.358276 854.668518,1220.995117 853.079407,1221.029175 
	C840.617249,1221.295044 828.152954,1221.463257 815.688538,1221.584839 
	C814.978821,1221.591675 814.262573,1220.925659 813.408081,1220.270508 
z"/>
<path fill="#298A81" opacity="1.000000" stroke="none" 
	d="
M408.641815,1220.228638 
	C422.879272,1219.965576 437.408783,1219.944336 452.384705,1219.953369 
	C451.585297,1220.337280 450.341278,1220.990601 449.093323,1220.998291 
	C436.503174,1221.075439 423.912323,1221.057495 411.321808,1221.023315 
	C410.525330,1221.021240 409.729797,1220.662964 408.641815,1220.228638 
z"/>
<path fill="#298A81" opacity="1.000000" stroke="none" 
	d="
M1088.052979,1185.272217 
	C1089.019409,1186.045532 1090.018433,1187.174683 1091.066895,1188.637939 
	C1090.106079,1187.857544 1089.095825,1186.742798 1088.052979,1185.272217 
z"/>
<path fill="#298A81" opacity="1.000000" stroke="none" 
	d="
M1116.230469,1176.925537 
	C1116.696411,1176.293823 1117.508789,1175.655518 1118.623901,1174.916260 
	C1118.143311,1175.516479 1117.359985,1176.217651 1116.230469,1176.925537 
z"/>
<path fill="#298A81" opacity="1.000000" stroke="none" 
	d="
M1123.925293,1139.763916 
	C1123.293945,1139.300903 1122.642578,1138.494141 1121.905762,1137.377441 
	C1122.515137,1137.851685 1123.210083,1138.635864 1123.925293,1139.763916 
z"/>
<path fill="#298A81" opacity="1.000000" stroke="none" 
	d="
M1125.987183,1144.530518 
	C1125.656128,1144.109619 1125.312012,1143.381104 1124.963379,1142.334717 
	C1125.297363,1142.752075 1125.635742,1143.487427 1125.987183,1144.530518 
z"/>
<path fill="#298A81" opacity="1.000000" stroke="none" 
	d="
M453.768402,1219.830322 
	C454.332703,1219.518066 455.269745,1219.251953 456.578430,1219.050781 
	C456.013733,1219.369263 455.077423,1219.622803 453.768402,1219.830322 
z"/>
<path fill="#298A81" opacity="1.000000" stroke="none" 
	d="
M858.813965,1219.830566 
	C859.373718,1219.512329 860.302307,1219.243896 861.600769,1219.041504 
	C861.041382,1219.365234 860.112061,1219.622803 858.813965,1219.830566 
z"/>
<path fill="#298A81" opacity="1.000000" stroke="none" 
	d="
M1091.069092,1189.192383 
	C1091.373901,1189.382080 1091.701294,1189.880127 1092.054932,1190.699341 
	C1091.751465,1190.513916 1091.421387,1190.007324 1091.069092,1189.192383 
z"/>
<path fill="#298A81" opacity="1.000000" stroke="none" 
	d="
M1124.922852,1141.743164 
	C1124.633667,1141.563110 1124.297607,1141.088745 1123.920044,1140.307861 
	C1124.211060,1140.484009 1124.543579,1140.966309 1124.922852,1141.743164 
z"/>
<path fill="#298A81" opacity="1.000000" stroke="none" 
	d="
M463.165222,1216.992798 
	C463.358521,1216.682739 463.870697,1216.341675 464.702087,1215.954346 
	C464.508911,1216.259399 463.996521,1216.610596 463.165222,1216.992798 
z"/>
<path fill="#298A81" opacity="1.000000" stroke="none" 
	d="
M458.221985,1218.910645 
	C458.425934,1218.613037 458.916077,1218.308472 459.705322,1218.064941 
	C459.505615,1218.385376 459.006866,1218.644653 458.221985,1218.910645 
z"/>
<path fill="#298A81" opacity="1.000000" stroke="none" 
	d="
M863.167847,1218.939331 
	C863.382507,1218.640259 863.897644,1218.337524 864.723755,1218.080078 
	C864.512573,1218.395508 863.990417,1218.665527 863.167847,1218.939331 
z"/>
<path fill="#FDFFFE" opacity="1.000000" stroke="none" 
	d="
M571.462769,733.636108 
	C571.495056,733.643555 571.200256,733.769714 571.200256,733.769714 
	C571.200256,733.769714 571.514893,733.730408 571.470154,733.646606 
	C571.425415,733.562805 571.430542,733.628723 571.462769,733.636108 
z"/>
<path fill="#298A81" opacity="1.000000" stroke="none" 
	d="
M461.176697,1217.780518 
	C461.012848,1217.474487 461.211548,1217.240845 461.814636,1217.173340 
	C461.869690,1217.424072 461.643097,1217.595215 461.176697,1217.780518 
z"/>
<path fill="#298A81" opacity="1.000000" stroke="none" 
	d="
M465.133118,1215.893799 
	C465.103699,1215.705078 465.296265,1215.407104 465.763794,1215.092407 
	C465.864624,1215.363770 465.636719,1215.599854 465.133118,1215.893799 
z"/>
<path fill="#298A81" opacity="1.000000" stroke="none" 
	d="
M466.831421,1214.723389 
	C466.826996,1214.541138 467.098389,1214.249512 467.670532,1213.881958 
	C467.683258,1214.075317 467.395233,1214.344604 466.831421,1214.723389 
z"/>
<path fill="#298A81" opacity="1.000000" stroke="none" 
	d="
M468.039917,1213.808960 
	C468.015930,1213.643799 468.230194,1213.339722 468.711243,1212.932373 
	C468.744720,1213.109375 468.511444,1213.389648 468.039917,1213.808960 
z"/>
<path fill="#298A81" opacity="1.000000" stroke="none" 
	d="
M1120.870605,1135.867920 
	C1120.695801,1135.908081 1120.388428,1135.716797 1119.988647,1135.262207 
	C1120.176880,1135.211426 1120.457520,1135.424072 1120.870605,1135.867920 
z"/>
<path fill="#298A81" opacity="1.000000" stroke="none" 
	d="
M1121.843506,1136.954590 
	C1121.675171,1136.974121 1121.367554,1136.759033 1120.983765,1136.263916 
	C1121.173096,1136.229248 1121.438599,1136.474609 1121.843506,1136.954590 
z"/>
<path fill="#07A69A" opacity="1.000000" stroke="none" 
	d="
M727.776978,791.722778 
	C724.916931,792.989502 722.271484,793.859497 719.743958,794.992554 
	C716.705322,796.354736 713.767090,797.940857 709.556641,800.043701 
	C702.281433,800.043701 693.145203,799.868774 684.021240,800.128174 
	C680.267578,800.234924 678.763794,798.939148 679.041931,795.319092 
	C679.842957,784.894775 681.205933,774.473389 681.266479,764.044617 
	C681.317749,755.186523 685.601562,750.408142 692.941956,746.681641 
	C696.862549,744.691345 700.288391,741.490112 703.474854,738.363831 
	C706.078430,735.809509 708.114807,736.341675 710.841858,737.874146 
	C719.246033,742.596741 721.440308,751.181091 723.883179,759.311951 
	C726.253662,767.201904 727.703918,775.395996 729.097412,783.535400 
	C729.525757,786.037659 728.437500,788.799561 727.776978,791.722778 
z"/>
<path fill="#0EA296" opacity="1.000000" stroke="none" 
	d="
M442.877136,1200.114014 
	C439.209747,1200.362061 435.951599,1200.548462 432.319458,1200.756226 
	C432.319458,1194.295044 432.319458,1188.440430 432.319458,1181.977417 
	C435.965240,1181.977417 439.574677,1181.760620 443.146912,1182.032715 
	C447.526337,1182.366333 449.289825,1185.475342 449.835480,1189.423584 
	C450.539307,1194.516724 448.194489,1198.253784 442.877136,1200.114014 
z"/>
<path fill="#0EA296" opacity="1.000000" stroke="none" 
	d="
M432.469879,1147.468628 
	C435.280396,1147.076294 437.756653,1146.984009 440.233307,1146.972168 
	C447.020477,1146.939819 448.960114,1148.500000 449.024628,1153.975952 
	C449.101593,1160.510498 446.738434,1162.976318 440.317505,1163.030396 
	C437.718536,1163.052246 435.119232,1163.034058 432.135803,1163.034058 
	C432.135803,1157.618896 432.135803,1152.712280 432.469879,1147.468628 
z"/>
<path fill="#0EA296" opacity="1.000000" stroke="none" 
	d="
M843.874084,1181.950562 
	C848.229309,1181.843994 852.078674,1181.775391 854.018860,1186.190430 
	C855.783081,1190.205078 855.522705,1194.332031 852.788147,1197.445312 
	C848.625610,1202.184204 842.818481,1200.444824 837.212769,1200.485352 
	C837.212769,1194.264038 837.212769,1188.500854 837.212769,1181.949707 
	C839.259705,1181.949707 841.335083,1181.949707 843.874084,1181.950562 
z"/>
<path fill="#0EA296" opacity="1.000000" stroke="none" 
	d="
M843.872742,1163.052002 
	C841.449707,1163.052734 839.489746,1163.052734 837.248413,1163.052734 
	C837.248413,1157.551270 837.248413,1152.505981 837.248413,1146.953247 
	C840.731384,1146.953247 844.015686,1147.023193 847.295837,1146.936279 
	C851.844238,1146.816040 853.978516,1149.270386 854.376465,1153.493408 
	C854.837585,1158.387207 852.327881,1162.286499 848.319519,1162.959961 
	C847.023071,1163.177612 845.665466,1163.031006 843.872742,1163.052002 
z"/>
<path fill="#0EA296" opacity="1.000000" stroke="none" 
	d="
M699.365356,1165.886963 
	C696.157959,1165.932983 693.380554,1165.932983 690.276733,1165.932983 
	C690.276733,1159.604126 690.276733,1153.583130 690.276733,1147.583496 
	C700.833862,1145.572754 706.267578,1147.217041 707.780212,1152.816772 
	C709.402893,1158.823853 706.490723,1163.573853 699.365356,1165.886963 
z"/>
<path fill="#09A69A" opacity="1.000000" stroke="none" 
	d="
M946.946899,1151.326660 
	C951.156006,1165.548096 950.887512,1179.518311 947.712708,1193.438477 
	C946.311340,1199.582886 942.064209,1202.785278 936.512329,1203.036499 
	C929.173218,1203.368652 923.966125,1201.114624 922.547791,1194.589111 
	C920.638123,1185.803345 919.956787,1176.645264 919.791382,1167.627686 
	C919.700439,1162.668335 921.364136,1157.544312 922.936462,1152.722778 
	C924.606750,1147.600708 928.591431,1144.522583 934.071533,1144.125610 
	C939.639587,1143.722168 944.140320,1145.762939 946.946899,1151.326660 
z"/>
<path fill="#09A69A" opacity="1.000000" stroke="none" 
	d="
M264.870361,1189.558350 
	C262.180542,1198.517822 260.072205,1201.842896 246.345520,1200.091553 
	C246.345520,1182.646118 246.345520,1165.144531 246.345520,1147.631958 
	C259.491058,1144.786255 265.474426,1149.320801 265.871918,1163.340088 
	C266.115417,1171.929443 265.304016,1180.548828 264.870361,1189.558350 
z"/>
<path fill="#0EA296" opacity="1.000000" stroke="none" 
	d="
M1082.618408,1163.403442 
	C1082.600098,1157.843628 1082.600098,1152.730103 1082.600098,1147.110474 
	C1086.491089,1147.110474 1090.114624,1146.747559 1093.635986,1147.192871 
	C1099.345093,1147.914795 1102.405884,1153.855591 1099.569214,1159.833008 
	C1098.370361,1162.359253 1095.018799,1164.788574 1092.240967,1165.388428 
	C1089.291016,1166.025635 1085.152954,1168.203003 1082.618408,1163.403442 
z"/>
</svg>