<?xml version="1.0" encoding="UTF-8" standalone="no"?>
<!-- Generator: Adobe Illustrator 25.0.0, SVG Export Plug-In . SVG Version: 6.00 Build 0)  -->

<svg
   version="1.1"
   id="katman_1"
   x="0px"
   y="0px"
   viewBox="0 0 1471.368 214.76801"
   xml:space="preserve"
   sodipodi:docname="googlebutton.svg"
   width="1471.368"
   height="214.76801"
   inkscape:version="1.3 (0e150ed6c4, 2023-07-21)"
   xmlns:inkscape="http://www.inkscape.org/namespaces/inkscape"
   xmlns:sodipodi="http://sodipodi.sourceforge.net/DTD/sodipodi-0.dtd"
   xmlns="http://www.w3.org/2000/svg"
   xmlns:svg="http://www.w3.org/2000/svg"><defs
   id="defs12" /><sodipodi:namedview
   id="namedview12"
   pagecolor="#ffffff"
   bordercolor="#000000"
   borderopacity="0.25"
   inkscape:showpageshadow="2"
   inkscape:pageopacity="0.0"
   inkscape:pagecheckerboard="0"
   inkscape:deskcolor="#d1d1d1"
   inkscape:zoom="0.60491071"
   inkscape:cx="900.13284"
   inkscape:cy="672"
   inkscape:window-width="1920"
   inkscape:window-height="1009"
   inkscape:window-x="-8"
   inkscape:window-y="-8"
   inkscape:window-maximized="1"
   inkscape:current-layer="katman_1" />&#10;<style
   type="text/css"
   id="style1">&#10;	.st0{fill-rule:evenodd;clip-rule:evenodd;fill:#E3ECF5;}&#10;	.st1{fill:#FFFFFF;stroke:#C7C6C6;stroke-width:0.8678;stroke-miterlimit:10;}&#10;	.st2{fill:#020203;}&#10;	.st3{font-family:'Roboto-Bold';}&#10;	.st4{font-size:67.077px;}&#10;	.st5{fill:#4877BB;}&#10;	.st6{fill:#21A849;}&#10;	.st7{fill:#FBBA10;}&#10;	.st8{fill:#E73830;}&#10;</style>&#10;&#10;<g
   id="g12"
   transform="translate(-164.2661,-396.4661)">&#10;	<g
   id="g6">&#10;		<path
   class="st1"
   d="M 1623.2,610.8 H 176.8 c -6.7,0 -12.1,-5.4 -12.1,-12.1 V 409 c 0,-6.7 5.4,-12.1 12.1,-12.1 h 1446.3 c 6.7,0 12.1,5.4 12.1,12.1 v 189.7 c 0,6.7 -5.4,12.1 -12,12.1 z"
   id="path1" />&#10;		<g
   id="g1">&#10;			<text
   transform="translate(603.0796,525.1384)"
   class="st2 st3 st4"
   id="text1"> Sign in with Google</text>&#10;		</g>&#10;		<g
   id="g5">&#10;			<path
   class="st5"
   d="m 373,508 c 0,-4.5 -0.4,-7.8 -1.2,-11.3 H 320 v 20.5 h 30.4 c -0.6,5.1 -3.9,12.7 -11.3,17.9 l -0.1,0.7 16.4,12.7 1.1,0.1 C 367,539 373,524.8 373,508"
   id="path2" />&#10;			<path
   class="st6"
   d="m 320,562 c 14.9,0 27.4,-4.9 36.5,-13.4 l -17.4,-13.5 c -4.7,3.2 -10.9,5.5 -19.1,5.5 -14.6,0 -27,-9.6 -31.4,-22.9 l -0.6,0.1 -17,13.2 -0.2,0.6 c 9,18 27.6,30.4 49.2,30.4"
   id="path3" />&#10;			<path
   class="st7"
   d="m 288.6,517.7 c -1.2,-3.4 -1.8,-7.1 -1.8,-10.9 0,-3.8 0.7,-7.5 1.8,-10.9 v -0.7 l -17.2,-13.4 -0.6,0.3 c -3.7,7.5 -5.9,15.9 -5.9,24.8 0,8.9 2.1,17.3 5.9,24.8 l 17.8,-14"
   id="path4" />&#10;			<path
   class="st8"
   d="m 320,473 c 10.4,0 17.3,4.5 21.3,8.2 L 356.9,466 c -9.6,-8.9 -22,-14.3 -36.9,-14.3 -21.6,0 -40.2,12.4 -49.3,30.4 l 17.8,13.9 c 4.5,-13.4 16.9,-23 31.5,-23"
   id="path5" />&#10;		</g>&#10;	</g>&#10;	&#10;</g>&#10;</svg>
