<?xml version="1.0" encoding="UTF-8" standalone="no"?>
<!-- Created with Inkscape (http://www.inkscape.org/) -->

<svg
   width="353mm"
   height="55mm"
   viewBox="0 0 353 55"
   version="1.1"
   id="svg1"
   inkscape:version="1.3 (0e150ed6c4, 2023-07-21)"
   sodipodi:docname="microsoftbuttonb.svg"
   xmlns:inkscape="http://www.inkscape.org/namespaces/inkscape"
   xmlns:sodipodi="http://sodipodi.sourceforge.net/DTD/sodipodi-0.dtd"
   xmlns="http://www.w3.org/2000/svg"
   xmlns:svg="http://www.w3.org/2000/svg">
  <sodipodi:namedview
     id="namedview1"
     pagecolor="#ffffff"
     bordercolor="#000000"
     borderopacity="0.25"
     inkscape:showpageshadow="2"
     inkscape:pageopacity="0.0"
     inkscape:pagecheckerboard="0"
     inkscape:deskcolor="#d1d1d1"
     inkscape:document-units="mm"
     showguides="true"
     inkscape:zoom="0.72426347"
     inkscape:cx="396.95499"
     inkscape:cy="377.62501"
     inkscape:window-width="1920"
     inkscape:window-height="1009"
     inkscape:window-x="-8"
     inkscape:window-y="-8"
     inkscape:window-maximized="1"
     inkscape:current-layer="layer1" />
  <defs
     id="defs1" />
  <g
     inkscape:label="Layer 1"
     inkscape:groupmode="layer"
     id="layer1">
    <g
       id="g11"
       transform="matrix(0.26458333,0,0,0.26458333,-61.489166,-197.88187)">&#10;		<path
   class="st9"
   d="M 1468,952.3 H 332 c -55,0 -99.6,-44.6 -99.6,-99.6 v -5.2 c 0,-55 44.6,-99.6 99.6,-99.6 h 1136 c 55,0 99.6,44.6 99.6,99.6 v 5.2 c 0,55 -44.6,99.6 -99.6,99.6 z"
   id="path6"
   style="fill:#303030" />
&#10;		<g
   id="g7">&#10;			<text
   transform="translate(624.8042,871.7549)"
   class="st10 st3 st4"
   id="text6"
   style="font-size:64.1575px;font-family:Roboto-Bold;fill:#ffffff">Sign in with Microsoft</text>
&#10;		</g>
&#10;		<g
   id="g10">&#10;			<path
   class="st5"
   d="m 319.4,796 h 52.4 v 52.4 h -52.4 z"
   id="path7"
   style="fill:#e95228" />
&#10;			<path
   class="st6"
   d="m 377.2,796 h 52.4 v 52.4 h -52.4 z"
   id="path8"
   style="fill:#7eba28" />
&#10;			<path
   class="st7"
   d="m 319.4,853.8 h 52.4 v 52.4 h -52.4 z"
   id="path9"
   style="fill:#339fda" />
&#10;			<path
   class="st8"
   d="m 377.2,853.8 h 52.4 v 52.4 h -52.4 z"
   id="path10"
   style="fill:#fbb811" />
&#10;		</g>
&#10;	</g>
  </g>
</svg>
